<svg width="64" height="65" viewBox="0 0 64 65" fill="none" xmlns="http://www.w3.org/2000/svg">
<path opacity="0.2" d="M58 16.8501V48.8501C58 49.3805 57.7893 49.8892 57.4142 50.2643C57.0391 50.6394 56.5304 50.8501 56 50.8501H40C37.8783 50.8501 35.8434 51.693 34.3431 53.1932C32.8429 54.6935 32 56.7284 32 58.8501V22.8501C32 20.7284 32.8429 18.6935 34.3431 17.1932C35.8434 15.693 37.8783 14.8501 40 14.8501H56C56.5304 14.8501 57.0391 15.0608 57.4142 15.4359C57.7893 15.811 58 16.3197 58 16.8501Z" fill="#F15B10"/>
<path d="M56 12.8501H40C38.4475 12.8501 36.9164 13.2115 35.5279 13.9058C34.1393 14.6001 32.9315 15.6081 32 16.8501C31.0685 15.6081 29.8607 14.6001 28.4721 13.9058C27.0836 13.2115 25.5525 12.8501 24 12.8501H8C6.93913 12.8501 5.92172 13.2715 5.17157 14.0217C4.42143 14.7718 4 15.7892 4 16.8501V48.8501C4 49.911 4.42143 50.9284 5.17157 51.6785C5.92172 52.4287 6.93913 52.8501 8 52.8501H24C25.5913 52.8501 27.1174 53.4822 28.2426 54.6075C29.3679 55.7327 30 57.2588 30 58.8501C30 59.3805 30.2107 59.8892 30.5858 60.2643C30.9609 60.6394 31.4696 60.8501 32 60.8501C32.5304 60.8501 33.0391 60.6394 33.4142 60.2643C33.7893 59.8892 34 59.3805 34 58.8501C34 57.2588 34.6321 55.7327 35.7574 54.6075C36.8826 53.4822 38.4087 52.8501 40 52.8501H56C57.0609 52.8501 58.0783 52.4287 58.8284 51.6785C59.5786 50.9284 60 49.911 60 48.8501V16.8501C60 15.7892 59.5786 14.7718 58.8284 14.0217C58.0783 13.2715 57.0609 12.8501 56 12.8501ZM24 48.8501H8V16.8501H24C25.5913 16.8501 27.1174 17.4822 28.2426 18.6075C29.3679 19.7327 30 21.2588 30 22.8501V50.8501C28.2707 49.5488 26.1643 48.8467 24 48.8501ZM56 48.8501H40C37.8357 48.8467 35.7293 49.5488 34 50.8501V22.8501C34 21.2588 34.6321 19.7327 35.7574 18.6075C36.8826 17.4822 38.4087 16.8501 40 16.8501H56V48.8501ZM40 22.8501H50C50.5304 22.8501 51.0391 23.0608 51.4142 23.4359C51.7893 23.811 52 24.3197 52 24.8501C52 25.3805 51.7893 25.8892 51.4142 26.2643C51.0391 26.6394 50.5304 26.8501 50 26.8501H40C39.4696 26.8501 38.9609 26.6394 38.5858 26.2643C38.2107 25.8892 38 25.3805 38 24.8501C38 24.3197 38.2107 23.811 38.5858 23.4359C38.9609 23.0608 39.4696 22.8501 40 22.8501ZM52 32.8501C52 33.3805 51.7893 33.8892 51.4142 34.2643C51.0391 34.6394 50.5304 34.8501 50 34.8501H40C39.4696 34.8501 38.9609 34.6394 38.5858 34.2643C38.2107 33.8892 38 33.3805 38 32.8501C38 32.3197 38.2107 31.811 38.5858 31.4359C38.9609 31.0608 39.4696 30.8501 40 30.8501H50C50.5304 30.8501 51.0391 31.0608 51.4142 31.4359C51.7893 31.811 52 32.3197 52 32.8501ZM52 40.8501C52 41.3805 51.7893 41.8892 51.4142 42.2643C51.0391 42.6394 50.5304 42.8501 50 42.8501H40C39.4696 42.8501 38.9609 42.6394 38.5858 42.2643C38.2107 41.8892 38 41.3805 38 40.8501C38 40.3197 38.2107 39.811 38.5858 39.4359C38.9609 39.0608 39.4696 38.8501 40 38.8501H50C50.5304 38.8501 51.0391 39.0608 51.4142 39.4359C51.7893 39.811 52 40.3197 52 40.8501Z" fill="#F15B10"/>
</svg>
