<svg
  width="100"
  height="100"
  viewBox="0 0 100 100"
  fill="none"
  xmlns="http://www.w3.org/2000/svg"
>
  <g id="Illustration">
    <path
      id="Vector"
      d="M67.6841 88.2122C68.0091 90.8907 68.1818 93.4219 68.1818 95.7216H59.0909C59.0909 90.1491 53.4295 83.9414 49.4023 76.7654C50.1136 76.3254 50.775 75.8128 51.4273 75.2889C52.6523 77.1963 54.1364 79.047 55.8773 80.7843C59.3659 84.2658 63.5045 86.8241 67.6841 88.2122ZM79.5455 75.3093C76.8659 75.3093 74.2432 74.6175 71.9068 73.3225C69.3636 74.6289 66.5545 75.3093 63.6364 75.3093C60.8273 75.3093 58.1205 74.6334 55.6659 73.4336C56.6386 74.867 57.775 76.2641 59.0909 77.5773C66.6227 85.0936 76.7977 87.1235 81.8182 82.1134C83.1955 80.739 84.0227 78.9722 84.3705 76.9854C83.0114 76.5998 81.7023 76.0282 80.4705 75.2798C80.1568 75.2979 79.85 75.3093 79.5455 75.3093ZM98.425 56.0309C99.4 57.7047 100 59.6258 100 61.701C100 67.9631 94.9114 73.0412 88.6364 73.0412C85.9773 73.0412 83.5614 72.0909 81.6273 70.5645C80.95 70.6893 80.2591 70.7732 79.5455 70.7732C78.3795 70.7732 77.2795 70.5509 76.225 70.2198C79.6409 66.9175 81.8182 62.2726 81.8182 57.1649C81.8182 55.9107 80.8 54.8969 79.5455 54.8969C78.2909 54.8969 77.2727 55.9107 77.2727 57.1649C77.2727 61.5128 75.2159 65.3843 72.0273 67.8769C69.7114 69.6845 66.8045 70.7732 63.6364 70.7732C59.4273 70.7732 55.6682 68.868 53.1659 65.8788C51.1886 63.5177 50 60.4763 50 57.1649C50 55.9107 48.9818 54.8969 47.7273 54.8969C46.4727 54.8969 45.4545 55.9107 45.4545 57.1649C45.4545 62.0843 47.4409 66.5546 50.6364 69.8251C47.7227 73.1796 43.4341 75.3093 38.6364 75.3093C29.9909 75.3093 22.7273 68.2738 22.7273 59.433C22.7273 55.1101 24.3841 50.9755 27.2727 48.0928C28.1614 47.206 28.1614 45.7726 27.2727 44.8858C26.3841 43.999 24.9477 43.999 24.0591 44.8858C20.3227 48.6122 18.1818 53.9148 18.1818 59.433C18.1818 60.1111 18.2182 60.8051 18.2841 61.4674C17.5114 61.6035 16.7227 61.701 15.9091 61.701C8.97727 61.701 3.26818 56.5367 2.4 49.855C4.95227 51.5946 8.04773 52.6289 11.3636 52.6289C12.6182 52.6289 13.6364 51.6151 13.6364 50.3608C13.6364 49.1066 12.6182 48.0928 11.3636 48.0928C7.95909 48.0928 4.93182 46.5664 2.84773 44.1918C1.09773 42.1959 0 39.6126 0 36.7526C0 32.9536 1.88864 29.6128 4.76136 27.5534C6.62273 26.2107 8.89773 25.4124 11.3636 25.4124C12.6182 25.4124 13.6364 24.3986 13.6364 23.1443C13.6364 21.8901 12.6182 20.8763 11.3636 20.8763C9.14773 20.8763 6.98636 21.3594 5.06591 22.1804C6.34318 17.9505 10.0068 14.7662 14.5227 14.2128C16.2455 10.1326 20.2864 7.26804 25 7.26804C25.1932 7.26804 25.3795 7.29526 25.5705 7.3066C23.7909 9.86948 22.7273 12.9948 22.7273 16.3402C22.7273 17.5944 23.7455 18.6082 25 18.6082C26.2545 18.6082 27.2727 17.5944 27.2727 16.3402C27.2727 13.3668 28.4455 10.6746 30.3295 8.64928C32.4045 6.41753 35.3455 5 38.6364 5C41.2068 5 43.55 5.88454 45.4545 7.32021C48.2023 9.39093 50 12.6456 50 16.3402C50 17.5944 51.0182 18.6082 52.2727 18.6082C53.5273 18.6082 54.5455 17.5944 54.5455 16.3402C54.5455 12.0423 52.7977 8.12082 50.0091 5.26082C50.7409 5.1066 51.4909 5 52.2727 5C55.5636 5 58.5045 6.41753 60.5795 8.64928C62.175 7.7965 63.9727 7.26804 65.9091 7.26804C68.7545 7.26804 71.3455 8.32268 73.3386 10.0464C66.475 11.8087 61.3636 18.0231 61.3636 25.4124C61.3636 26.6666 62.3818 27.6804 63.6364 27.6804C64.8909 27.6804 65.9091 26.6666 65.9091 25.4124C65.9091 19.4724 70.5091 14.5847 76.3409 14.1107C76.575 14.0835 76.9614 14.0722 77.2727 14.0722C83.5477 14.0722 88.6364 19.1503 88.6364 25.4124C88.6364 25.7231 88.5682 26.0157 88.5454 26.3196C92.6068 28.0501 95.4545 32.0668 95.4545 36.7526C95.4545 38.1792 95.1614 39.5309 94.6795 40.7897C93.0432 45.0491 88.9295 48.0928 84.0909 48.0928C82.8364 48.0928 81.8182 49.1066 81.8182 50.3608C81.8182 51.6151 82.8364 52.6289 84.0909 52.6289C90.1591 52.6289 95.4477 49.1928 98.1295 44.1963C99.3 45.9699 100 48.0769 100 50.3608C100 52.4361 99.4 54.3571 98.425 56.0309ZM40.9091 18.6082C40.9091 17.354 39.8909 16.3402 38.6364 16.3402C37.3818 16.3402 36.3636 17.354 36.3636 18.6082C36.3636 27.3606 26.1682 34.4845 13.6364 34.4845C12.3818 34.4845 11.3636 35.4983 11.3636 36.7526C11.3636 38.0068 12.3818 39.0206 13.6364 39.0206C28.675 39.0206 40.9091 29.8645 40.9091 18.6082ZM56.8182 36.7526C56.8182 35.4983 55.8 34.4845 54.5455 34.4845C53.2909 34.4845 52.2727 35.4983 52.2727 36.7526C52.2727 40.5039 49.2136 43.5567 45.4545 43.5567C39.1886 43.5567 34.0909 48.6439 34.0909 54.8969C34.0909 56.1511 35.1091 57.1649 36.3636 57.1649C37.6182 57.1649 38.6364 56.1511 38.6364 54.8969C38.6364 51.1456 41.6955 48.0928 45.4545 48.0928C51.7205 48.0928 56.8182 43.0056 56.8182 36.7526ZM81.8182 29.9485C81.8182 28.6942 80.8 27.6804 79.5455 27.6804C69.35 27.6804 61.3636 40.6309 61.3636 57.1649C61.3636 58.4192 62.3818 59.433 63.6364 59.433C64.8909 59.433 65.9091 58.4192 65.9091 57.1649C65.9091 43.6406 72.1545 32.2165 79.5455 32.2165C80.8 32.2165 81.8182 31.2027 81.8182 29.9485Z"
      fill="currentColor"
    />
  </g>
</svg>
