<svg
  width="33"
  height="33"
  viewBox="0 0 33 33"
  fill="none"
  xmlns="http://www.w3.org/2000/svg"
>
  <g id="CaretRight">
    <path
      id="Vector"
      d="M23.2075 17.2076L13.2075 27.2076C13.0676 27.3476 12.8894 27.4429 12.6953 27.4816C12.5012 27.5202 12.3 27.5004 12.1172 27.4247C11.9344 27.3489 11.7782 27.2206 11.6683 27.056C11.5584 26.8914 11.4998 26.698 11.5 26.5001V6.50006C11.4998 6.30216 11.5584 6.10867 11.6683 5.94407C11.7782 5.77948 11.9344 5.65119 12.1172 5.57543C12.3 5.49968 12.5012 5.47988 12.6953 5.51853C12.8894 5.55718 13.0676 5.65254 13.2075 5.79256L23.2075 15.7926C23.3005 15.8854 23.3742 15.9957 23.4246 16.1171C23.4749 16.2385 23.5008 16.3686 23.5008 16.5001C23.5008 16.6315 23.4749 16.7616 23.4246 16.883C23.3742 17.0044 23.3005 17.1147 23.2075 17.2076Z"
      fill="currentColor"
    />
  </g>
</svg>
