<svg width="116" height="120" viewBox="0 0 116 120" fill="none" xmlns="http://www.w3.org/2000/svg">
<path d="M26.163 13.8714L19.1325 32.6196L4.40186 43.3326L11.7672 60.0719L6.41058 77.1461L19.1325 88.8636L26.163 104.933H42.9023L60.646 115.312L72.3635 104.933H92.7855L97.4725 86.1853L111.868 77.1461L105.173 60.0719L108.855 40.6543L95.7986 30.9455L92.7855 15.8802L72.3635 13.8714L57.6329 5.16699L44.5762 15.8802L26.163 13.8714Z" fill="#FCDECF" stroke="#F15B10"/>
<path d="M109.428 60C109.891 57.8867 110.748 55.8799 111.957 54.0857C113.33 52.3121 114.317 50.2715 114.855 48.0944C115.394 45.9174 115.473 43.6519 115.086 41.4429C114.083 39.3774 112.657 37.5464 110.9 36.0695C109.142 34.5926 107.093 33.5028 104.886 32.8714C102.979 32.2176 101.197 31.2468 99.6141 30C98.8033 28.0696 98.353 26.007 98.2855 23.9143C98.3576 21.6336 97.9482 19.3634 97.0843 17.2515C96.2203 15.1396 94.9211 13.2334 93.2712 11.6571C91.2753 10.5843 89.0751 9.94575 86.8149 9.78325C84.5548 9.62076 82.2858 9.93804 80.157 10.7143C78.1276 11.3065 76.0019 11.4958 73.8998 11.2714C72.2319 10.226 70.7776 8.87346 69.6141 7.28571C68.3136 5.30973 66.6034 3.63648 64.5995 2.37942C62.5956 1.12236 60.3448 0.310883 57.9998 0C55.7028 0.308917 53.4967 1.09829 51.5251 2.31669C49.5535 3.53509 47.8607 5.15518 46.557 7.07143C45.3934 8.65917 43.9391 10.0117 42.2712 11.0571C40.1692 11.2815 38.0435 11.0922 36.0141 10.5C33.8852 9.72376 31.6163 9.40648 29.3561 9.56897C27.096 9.73146 24.8958 10.3701 22.8998 11.4429C21.2189 13.0039 19.8878 14.9033 18.9939 17.0159C18.1001 19.1286 17.6639 21.4066 17.7141 23.7C17.6731 25.8651 17.2223 28.0028 16.3855 30C14.818 31.3228 13.0349 32.3665 11.1141 33.0857C8.90691 33.7171 6.85767 34.8068 5.10011 36.2838C3.34256 37.7607 1.91619 39.5917 0.914104 41.6571C0.527097 43.8662 0.605461 46.1317 1.14418 48.3087C1.68291 50.4858 2.67012 52.5264 4.04268 54.3C5.22691 56.0294 6.08394 57.9614 6.57125 60C6.1091 62.1133 5.25114 64.12 4.04268 65.9143C2.67012 67.6879 1.68291 69.7285 1.14418 71.9056C0.605461 74.0826 0.527097 76.3481 0.914104 78.5571C1.91619 80.6226 3.34256 82.4536 5.10011 83.9305C6.85767 85.4074 8.90691 86.4972 11.1141 87.1286C13.0349 87.8478 14.818 88.8915 16.3855 90.2143C17.1963 92.1447 17.6466 94.2073 17.7141 96.3C17.6421 98.5807 18.0514 100.851 18.9153 102.963C19.7793 105.075 21.0785 106.981 22.7284 108.557C24.7243 109.63 26.9246 110.269 29.1847 110.431C31.4448 110.594 33.7138 110.276 35.8427 109.5C37.8721 108.908 39.9977 108.719 42.0998 108.943C43.7677 109.988 45.222 111.341 46.3855 112.929C47.7079 114.865 49.4277 116.497 51.4304 117.716C53.4331 118.936 55.6726 119.714 57.9998 120C60.2968 119.691 62.503 118.902 64.4746 117.683C66.4462 116.465 68.139 114.845 69.4427 112.929C70.6062 111.341 72.0605 109.988 73.7284 108.943C75.8305 108.719 77.9561 108.908 79.9855 109.5C82.1144 110.276 84.3834 110.594 86.6435 110.431C88.9036 110.269 91.1039 109.63 93.0998 108.557C94.7497 106.981 96.0489 105.075 96.9129 102.963C97.7768 100.851 98.1861 98.5807 98.1141 96.3C98.1816 94.2073 98.6319 92.1447 99.4427 90.2143C101.01 88.8915 102.793 87.8478 104.714 87.1286C106.921 86.4972 108.971 85.4074 110.728 83.9305C112.486 82.4536 113.912 80.6226 114.914 78.5571C115.301 76.3481 115.223 74.0826 114.684 71.9056C114.145 69.7285 113.158 67.6879 111.786 65.9143C110.637 64.1073 109.838 62.1013 109.428 60ZM104.5 70.1143C105.443 71.8286 107.243 74.9571 106.943 75.9C106.643 76.8428 103.428 78.3857 101.371 79.3286C98.0657 80.5336 95.1176 82.553 92.7998 85.2C90.9622 88.2593 89.9575 91.7463 89.8855 95.3143C89.6284 97.4571 89.2427 100.971 88.3427 101.614C87.4427 102.257 84.057 101.614 81.9998 101.1C78.542 100.094 74.8866 99.9766 71.3712 100.757C68.1085 102.135 65.2586 104.335 63.0998 107.143C61.557 108.857 59.1998 111.429 57.9998 111.429C56.7998 111.429 54.4427 108.857 52.8998 107.143C50.7767 104.353 47.973 102.154 44.757 100.757C43.5055 100.383 42.2059 100.196 40.8998 100.2C38.6194 100.286 36.3521 100.587 34.1284 101.1C32.0712 101.529 28.5998 102.214 27.7855 101.614C26.9712 101.014 26.4998 97.3286 26.2427 95.3143C26.1707 91.7463 25.166 88.2593 23.3284 85.2C21.0106 82.553 18.0625 80.5336 14.757 79.3286C12.6998 78.3857 9.57125 76.9714 9.18553 75.9C8.79982 74.8286 10.6855 71.8286 11.6284 70.1143C13.6368 67.0946 14.846 63.6145 15.1427 60C14.8075 56.3738 13.5538 52.8928 11.4998 49.8857C10.557 48.1714 8.75696 45.0429 9.05696 44.1C9.35696 43.1571 12.5712 41.6143 14.6284 40.6714C17.9339 39.4664 20.882 37.447 23.1998 34.8C25.0374 31.7407 26.0422 28.2537 26.1141 24.6857C26.3712 22.5429 26.757 19.0286 27.657 18.3857C28.557 17.7429 31.9427 18.3857 33.9998 18.9C37.4576 19.9055 41.113 20.0234 44.6284 19.2429C47.8912 17.8651 50.741 15.6649 52.8998 12.8571C54.4427 11.1429 56.7998 8.57143 57.9998 8.57143C59.1998 8.57143 61.557 11.1429 63.0998 12.8571C65.2229 15.6475 68.0266 17.8462 71.2427 19.2429C74.7581 20.0234 78.4135 19.9055 81.8712 18.9C83.9207 18.2577 86.0879 18.082 88.2141 18.3857C89.1141 19.0286 89.4998 22.6714 89.757 24.6857C89.8289 28.2537 90.8336 31.7407 92.6712 34.8C94.989 37.447 97.9371 39.4664 101.243 40.6714C103.3 41.6143 106.428 43.0286 106.814 44.1C107.2 45.1714 105.314 48.3857 104.371 49.8857C102.363 52.9054 101.154 56.3855 100.857 60C101.192 63.6262 102.446 67.1072 104.5 70.1143Z" fill="#F15B10"/>
<path d="M74.2427 44.0997L51.5712 66.814L43.8998 59.0997C43.5002 58.7002 43.0258 58.3832 42.5037 58.1669C41.9816 57.9507 41.4221 57.8394 40.857 57.8394C40.2918 57.8394 39.7323 57.9507 39.2102 58.1669C38.6881 58.3832 38.2137 58.7002 37.8141 59.0997C37.4145 59.4993 37.0975 59.9737 36.8813 60.4958C36.665 61.0179 36.5537 61.5775 36.5537 62.1426C36.5537 62.7077 36.665 63.2673 36.8813 63.7894C37.0975 64.3115 37.4145 64.7859 37.8141 65.1855L48.5284 75.8997C48.9268 76.3014 49.4008 76.6203 49.9231 76.8379C50.4453 77.0554 51.0055 77.1675 51.5712 77.1675C52.137 77.1675 52.6972 77.0554 53.2194 76.8379C53.7417 76.6203 54.2157 76.3014 54.6141 75.8997L80.3284 50.1855C80.728 49.7859 81.045 49.3115 81.2612 48.7894C81.4775 48.2673 81.5888 47.7077 81.5888 47.1426C81.5888 46.5775 81.4775 46.0179 81.2612 45.4958C81.045 44.9737 80.728 44.4993 80.3284 44.0997C79.9288 43.7002 79.4544 43.3832 78.9323 43.1669C78.4102 42.9507 77.8506 42.8394 77.2855 42.8394C76.7204 42.8394 76.1608 42.9507 75.6388 43.1669C75.1167 43.3832 74.6423 43.7002 74.2427 44.0997Z" fill="#F15B10"/>
</svg>
