<svg width="64" height="65" viewBox="0 0 64 65" fill="none" xmlns="http://www.w3.org/2000/svg">
<path opacity="0.2" d="M48 54.8501C46.8133 54.8501 45.6533 54.4982 44.6666 53.8389C43.6799 53.1796 42.9108 52.2426 42.4567 51.1462C42.0026 50.0498 41.8838 48.8434 42.1153 47.6796C42.3468 46.5157 42.9182 45.4466 43.7574 44.6075C44.5965 43.7683 45.6656 43.1969 46.8295 42.9654C47.9933 42.7339 49.1997 42.8527 50.2961 43.3068C51.3925 43.7609 52.3295 44.53 52.9888 45.5167C53.6481 46.5034 54 47.6634 54 48.8501C54 50.4414 53.3679 51.9675 52.2426 53.0927C51.1174 54.218 49.5913 54.8501 48 54.8501Z" fill="#F15B10"/>
<path d="M48 56.8501C49.4961 56.8493 50.962 56.4291 52.2312 55.637C53.5005 54.845 54.5222 53.7129 55.1803 52.3693C55.8385 51.0257 56.1067 49.5246 55.9545 48.0362C55.8023 46.5479 55.2358 45.132 54.3193 43.9495C53.4028 42.767 52.1731 41.8651 50.7698 41.3464C49.3665 40.8276 47.8459 40.7128 46.3806 41.0149C44.9153 41.317 43.5641 42.0239 42.4804 43.0553C41.3968 44.0868 40.624 45.4015 40.25 46.8501L38 46.8501C36.9391 46.8501 35.9217 46.4287 35.1716 45.6785C34.4214 44.9284 34 43.911 34 42.8501L34 24.8501C34.0017 23.4448 33.6298 22.0644 32.9225 20.8501L40.25 20.8501C40.7368 22.7354 41.8945 24.3785 43.506 25.4713C45.1176 26.5641 47.0724 27.0317 49.004 26.7863C50.9356 26.541 52.7115 25.5996 53.9986 24.1386C55.2858 22.6775 55.996 20.7972 55.996 18.8501C55.996 16.9029 55.2858 15.0226 53.9986 13.5616C52.7115 12.1006 50.9356 11.1592 49.004 10.9138C47.0724 10.6685 45.1176 11.1361 43.506 12.2289C41.8945 13.3217 40.7368 14.9648 40.25 16.8501L23.75 16.8501C23.2632 14.9648 22.1055 13.3217 20.494 12.2289C18.8824 11.1361 16.9276 10.6685 14.996 10.9138C13.0644 11.1592 11.2885 12.1006 10.0014 13.5616C8.71418 15.0226 8.00403 16.9029 8.00403 18.8501C8.00403 20.7972 8.71418 22.6775 10.0014 24.1385C11.2885 25.5996 13.0644 26.541 14.996 26.7863C16.9276 27.0317 18.8824 26.5641 20.494 25.4713C22.1055 24.3785 23.2632 22.7354 23.75 20.8501L26 20.8501C27.0609 20.8501 28.0783 21.2715 28.8284 22.0217C29.5786 22.7718 30 23.7892 30 24.8501L30 42.8501C30 44.9718 30.8429 47.0066 32.3431 48.5069C33.8434 50.0072 35.8783 50.8501 38 50.8501L40.25 50.8501C40.6959 52.5667 41.6986 54.087 43.101 55.1727C44.5034 56.2585 46.2264 56.8484 48 56.8501ZM48 14.8501C48.7911 14.8501 49.5645 15.0847 50.2223 15.5242C50.8801 15.9637 51.3928 16.5884 51.6955 17.3194C51.9983 18.0503 52.0775 18.8545 51.9231 19.6304C51.7688 20.4064 51.3878 21.1191 50.8284 21.6785C50.269 22.2379 49.5563 22.6189 48.7804 22.7732C48.0044 22.9276 47.2002 22.8484 46.4693 22.5456C45.7384 22.2429 45.1136 21.7302 44.6741 21.0724C44.2346 20.4146 44 19.6412 44 18.8501C44 17.7892 44.4214 16.7718 45.1716 16.0217C45.9217 15.2715 46.9391 14.8501 48 14.8501ZM16 22.8501C15.2089 22.8501 14.4355 22.6155 13.7777 22.176C13.1199 21.7364 12.6072 21.1117 12.3045 20.3808C12.0017 19.6499 11.9225 18.8456 12.0769 18.0697C12.2312 17.2938 12.6122 16.5811 13.1716 16.0217C13.731 15.4622 14.4437 15.0813 15.2196 14.9269C15.9956 14.7726 16.7998 14.8518 17.5307 15.1546C18.2616 15.4573 18.8864 15.97 19.3259 16.6278C19.7654 17.2856 20 18.059 20 18.8501C20 19.911 19.5786 20.9284 18.8284 21.6785C18.0783 22.4287 17.0609 22.8501 16 22.8501ZM44 48.8501C44 48.059 44.2346 47.2856 44.6741 46.6278C45.1136 45.97 45.7384 45.4573 46.4693 45.1546C47.2002 44.8518 48.0044 44.7726 48.7804 44.9269C49.5563 45.0813 50.269 45.4622 50.8284 46.0217C51.3878 46.5811 51.7688 47.2938 51.9231 48.0697C52.0775 48.8456 51.9983 49.6499 51.6955 50.3808C51.3928 51.1117 50.8801 51.7364 50.2223 52.176C49.5645 52.6155 48.7911 52.8501 48 52.8501C46.9391 52.8501 45.9217 52.4287 45.1716 51.6785C44.4214 50.9284 44 49.911 44 48.8501Z" fill="#F15B10"/>
</svg>
