<svg width="24" height="25" viewBox="0 0 24 25" fill="none" xmlns="http://www.w3.org/2000/svg">
<mask id="mask0_919_19342" style="mask-type:luminance" maskUnits="userSpaceOnUse" x="0" y="0" width="24" height="25">
<path d="M23.7209 10.3182H12.2791V14.9545H18.8651C18.2512 17.9 15.6837 19.5909 12.2791 19.5909C8.26047 19.5909 5.02326 16.4273 5.02326 12.5C5.02326 8.57273 8.26047 5.40909 12.2791 5.40909C14.0093 5.40909 15.5721 6.0091 16.8 6.99092L20.3721 3.5C18.1953 1.64545 15.4047 0.5 12.2791 0.5C5.46977 0.5 0 5.84545 0 12.5C0 19.1545 5.46977 24.5 12.2791 24.5C18.4186 24.5 24 20.1364 24 12.5C24 11.7909 23.8884 11.0273 23.7209 10.3182Z" fill="white"/>
</mask>
<g mask="url(#mask0_919_19342)">
<path d="M-1.11621 19.591V5.40918L8.37216 12.5001L-1.11621 19.591Z" fill="#FBBC05"/>
</g>
<mask id="mask1_919_19342" style="mask-type:luminance" maskUnits="userSpaceOnUse" x="0" y="0" width="24" height="25">
<path d="M23.7209 10.3182H12.2791V14.9545H18.8651C18.2512 17.9 15.6837 19.5909 12.2791 19.5909C8.26047 19.5909 5.02326 16.4273 5.02326 12.5C5.02326 8.57273 8.26047 5.40909 12.2791 5.40909C14.0093 5.40909 15.5721 6.0091 16.8 6.99092L20.3721 3.5C18.1953 1.64545 15.4047 0.5 12.2791 0.5C5.46977 0.5 0 5.84545 0 12.5C0 19.1545 5.46977 24.5 12.2791 24.5C18.4186 24.5 24 20.1364 24 12.5C24 11.7909 23.8884 11.0273 23.7209 10.3182Z" fill="white"/>
</mask>
<g mask="url(#mask1_919_19342)">
<path d="M-1.11621 5.40918L8.37216 12.5001L12.2791 9.17283L25.6745 7.04554V-0.59082H-1.11621V5.40918Z" fill="#EA4335"/>
</g>
<mask id="mask2_919_19342" style="mask-type:luminance" maskUnits="userSpaceOnUse" x="0" y="0" width="24" height="25">
<path d="M23.7209 10.3182H12.2791V14.9545H18.8651C18.2512 17.9 15.6837 19.5909 12.2791 19.5909C8.26047 19.5909 5.02326 16.4273 5.02326 12.5C5.02326 8.57273 8.26047 5.40909 12.2791 5.40909C14.0093 5.40909 15.5721 6.0091 16.8 6.99092L20.3721 3.5C18.1953 1.64545 15.4047 0.5 12.2791 0.5C5.46977 0.5 0 5.84545 0 12.5C0 19.1545 5.46977 24.5 12.2791 24.5C18.4186 24.5 24 20.1364 24 12.5C24 11.7909 23.8884 11.0273 23.7209 10.3182Z" fill="white"/>
</mask>
<g mask="url(#mask2_919_19342)">
<path d="M-1.11621 19.591L15.628 7.04554L20.0373 7.591L25.6745 -0.59082V25.591H-1.11621V19.591Z" fill="#34A853"/>
</g>
<mask id="mask3_919_19342" style="mask-type:luminance" maskUnits="userSpaceOnUse" x="0" y="0" width="24" height="25">
<path d="M23.7209 10.3182H12.2791V14.9545H18.8651C18.2512 17.9 15.6837 19.5909 12.2791 19.5909C8.26047 19.5909 5.02326 16.4273 5.02326 12.5C5.02326 8.57273 8.26047 5.40909 12.2791 5.40909C14.0093 5.40909 15.5721 6.0091 16.8 6.99092L20.3721 3.5C18.1953 1.64545 15.4047 0.5 12.2791 0.5C5.46977 0.5 0 5.84545 0 12.5C0 19.1545 5.46977 24.5 12.2791 24.5C18.4186 24.5 24 20.1364 24 12.5C24 11.7909 23.8884 11.0273 23.7209 10.3182Z" fill="white"/>
</mask>
<g mask="url(#mask3_919_19342)">
<path d="M25.6745 25.591L8.37221 12.5001L6.13965 10.8637L25.6745 5.40918V25.591Z" fill="#4285F4"/>
</g>
</svg>
