<svg
  width="24"
  height="24"
  viewBox="0 0 24 24"
  fill="none"
  xmlns="http://www.w3.org/2000/svg"
>
  <path
    d="M16.6149 10.1605C16.6149 11.4384 16.2359 12.6876 15.526 13.7502C14.816 14.8127 13.8069 15.6409 12.6262 16.1299C11.4456 16.619 10.1464 16.7469 8.89302 16.4976C7.63964 16.2483 6.48834 15.6329 5.58471 14.7293C4.68107 13.8257 4.06569 12.6744 3.81638 11.421C3.56707 10.1676 3.69502 8.86846 4.18407 7.68781C4.67311 6.50716 5.50127 5.49803 6.56384 4.78805C7.6264 4.07807 8.87563 3.69912 10.1536 3.69912C11.8672 3.69912 13.5107 4.37987 14.7224 5.5916C15.9341 6.80334 16.6149 8.4468 16.6149 10.1605ZM23.7293 23.7362C23.6436 23.822 23.5418 23.8901 23.4297 23.9365C23.3176 23.983 23.1975 24.0069 23.0762 24.0069C22.9549 24.0069 22.8348 23.983 22.7228 23.9365C22.6107 23.8901 22.5089 23.822 22.4232 23.7362L16.6472 17.9591C14.6385 19.6301 12.063 20.4625 9.45627 20.2831C6.84955 20.1036 4.41234 18.9262 2.65159 16.9957C0.890847 15.0651 -0.0578858 12.5301 0.00273608 9.91795C0.063358 7.30577 1.12867 4.8175 2.97707 2.97073C4.82548 1.12396 7.31469 0.0608449 9.92693 0.00253165C12.5392 -0.0557816 15.0733 0.895191 17.0023 2.65764C18.9313 4.42009 20.1066 6.85834 20.2837 9.46522C20.4608 12.0721 19.6262 14.6469 17.9533 16.6541L23.7293 22.4301C23.8151 22.5158 23.8832 22.6176 23.9296 22.7296C23.9761 22.8417 24 22.9618 24 23.0831C24 23.2044 23.9761 23.3245 23.9296 23.4366C23.8832 23.5486 23.8151 23.6505 23.7293 23.7362ZM10.1536 18.4679C11.7966 18.4679 13.4028 17.9807 14.7689 17.0678C16.1351 16.155 17.1999 14.8576 17.8286 13.3396C18.4574 11.8216 18.6219 10.1512 18.3014 8.53976C17.9808 6.92827 17.1896 5.44803 16.0278 4.28622C14.866 3.1244 13.3857 2.3332 11.7743 2.01265C10.1628 1.69211 8.49243 1.85662 6.97444 2.48539C5.45646 3.11416 4.15902 4.17895 3.24619 5.54509C2.33335 6.91124 1.84613 8.5174 1.84613 10.1605C1.84857 12.363 2.7246 14.4746 4.28202 16.032C5.83943 17.5894 7.95104 18.4654 10.1536 18.4679Z"
    fill="currentColor"
  />
</svg>
