<svg
  width="25"
  height="25"
  viewBox="0 0 25 25"
  fill="none"
  xmlns="http://www.w3.org/2000/svg"
>
  <path
    d="M4.84398 13.0504C4.73004 12.8803 4.4887 12.8279 4.30464 12.9333C4.12089 13.0386 4.06392 13.2617 4.17786 13.4318L6.50239 16.9003C6.57658 17.0111 6.70492 17.0719 6.83576 17.0719C6.90619 17.0719 6.97756 17.0545 7.04173 17.0175C7.22579 16.9121 7.28245 16.689 7.16851 16.5192L4.84398 13.0504Z"
    fill="currentColor"
  />
  <mask
    id="mask0_550_448"
    style="mask-type: luminance"
    maskUnits="userSpaceOnUse"
    x="0"
    y="10"
    width="16"
    height="15"
  >
    <path d="M0.834961 10.5574H15.74V24.7226H0.834961V10.5574Z" fill="white" />
  </mask>
  <g mask="url(#mask0_550_448)">
    <path
      d="M14.7922 19.4519C14.662 18.7236 14.2375 18.0798 13.5974 17.6391L12.7885 17.0824C13.8018 16.4403 14.4679 15.363 14.4679 14.1446C14.4679 12.1819 12.7403 10.585 10.6171 10.585C9.4041 10.585 8.32072 11.1067 7.61454 11.9195L3.16707 10.7493C2.47653 10.5679 1.7356 10.7814 1.27921 11.2936C0.844414 11.7814 0.746124 12.4684 1.02879 13.0442C1.03192 13.0502 1.03505 13.0566 1.03849 13.0627L4.52372 19.2033L4.00284 24.3274C3.98281 24.5265 4.14089 24.703 4.35625 24.7218C4.36877 24.7227 4.38098 24.7233 4.3935 24.7233C4.59321 24.7233 4.76381 24.5827 4.78291 24.3952L5.31442 19.164C5.32162 19.0942 5.3066 19.0242 5.27123 18.962L1.73779 12.736C1.58316 12.4122 1.64013 12.0277 1.88397 11.7539C2.14222 11.464 2.56167 11.3431 2.95233 11.4458L7.17223 12.556C6.91305 13.0346 6.76624 13.574 6.76624 14.1446C6.76624 16.1072 8.49383 17.7042 10.6171 17.7042C11.1129 17.7042 11.5865 17.6159 12.0223 17.4576L13.1291 18.2198C13.6062 18.5482 13.9223 19.0277 14.0194 19.5699L14.8871 24.4203C14.919 24.5974 15.0849 24.7233 15.273 24.7233C15.2943 24.7233 15.3159 24.7215 15.3375 24.7184C15.551 24.6857 15.6953 24.4993 15.6602 24.302L14.7922 19.4519ZM7.54974 14.1446C7.54974 12.5809 8.9258 11.3092 10.6171 11.3092C12.3084 11.3092 13.6844 12.5809 13.6844 14.1446C13.6844 15.7079 12.3084 16.9799 10.6171 16.9799C8.9258 16.9799 7.54974 15.7079 7.54974 14.1446Z"
      fill="currentColor"
    />
  </g>
  <mask
    id="mask1_550_448"
    style="mask-type: luminance"
    maskUnits="userSpaceOnUse"
    x="11"
    y="0"
    width="14"
    height="14"
  >
    <path d="M11.8936 0.722656H24.835V13.4463H11.8936V0.722656Z" fill="white" />
  </mask>
  <g mask="url(#mask1_550_448)">
    <path
      d="M19.7453 0.722656H16.9525C14.165 0.722656 11.8975 2.81872 11.8975 5.3954V7.14482C11.8975 9.21745 13.3512 11.0152 15.4694 11.6121V13.0626C15.4694 13.1966 15.5495 13.3199 15.6776 13.3827C15.7352 13.4107 15.7981 13.4249 15.861 13.4249C15.938 13.4249 16.0147 13.4038 16.0807 13.3624L18.5486 11.8173H19.7453C22.5325 11.8173 24.8001 9.72121 24.8001 7.14482V5.3954C24.8001 2.81872 22.5325 0.722656 19.7453 0.722656ZM24.0169 7.14482C24.0169 9.32191 22.1005 11.0933 19.7453 11.0933H18.4284C18.3502 11.0933 18.2735 11.1147 18.2087 11.1555L16.2529 12.3801V11.3355C16.2529 11.168 16.1286 11.0224 15.9527 10.9834C14.0263 10.5563 12.681 8.97758 12.681 7.14482V5.3954C12.681 3.21803 14.597 1.4469 16.9525 1.4469H19.7453C22.1005 1.4469 24.0169 3.21803 24.0169 5.3954V7.14482Z"
      fill="currentColor"
    />
    <path
      d="M19.9568 3.41039C19.5564 3.06346 19.024 2.89014 18.3585 2.89014C17.6395 2.89014 17.0738 3.09297 16.6616 3.49835C16.3532 3.8016 16.1604 4.17804 16.0828 4.6277C16.0396 4.87827 16.2499 5.10542 16.5245 5.10542C16.7495 5.10542 16.9367 4.95061 16.9677 4.74459C17.0025 4.51543 17.061 4.32879 17.1439 4.18528C17.3618 3.80275 17.755 3.61149 18.3237 3.61149C18.7836 3.61149 19.1132 3.7226 19.3123 3.94454C19.5117 4.16647 19.6112 4.42862 19.6112 4.7307C19.6112 4.94656 19.542 5.15489 19.4034 5.35513C19.3273 5.46942 19.2278 5.5788 19.1054 5.68354L18.6972 6.04899C18.3059 6.39766 18.0533 6.70669 17.94 6.97637C17.8686 7.1465 17.8198 7.58314 17.7932 7.82098C17.7662 8.06375 17.9722 8.27527 18.2361 8.27527C18.463 8.27527 18.6562 8.11699 18.6781 7.90808C18.7003 7.69598 18.7438 7.29176 18.8086 7.16126C18.9072 6.96248 19.1201 6.71971 19.4472 6.43296C19.8967 6.03829 20.1941 5.7391 20.3393 5.53568C20.4842 5.33198 20.5569 5.06693 20.5569 4.74025C20.5569 4.20061 20.3568 3.75732 19.9568 3.41039Z"
      fill="currentColor"
    />
    <path
      d="M18.2819 8.75342C17.9929 8.75342 17.7588 8.96985 17.7588 9.23693C17.7588 9.50371 17.9929 9.72043 18.2819 9.72043C18.5708 9.72043 18.8049 9.504 18.8049 9.23693C18.8049 8.96985 18.5708 8.75342 18.2819 8.75342Z"
      fill="currentColor"
    />
  </g>
  <mask
    id="mask2_550_448"
    style="mask-type: luminance"
    maskUnits="userSpaceOnUse"
    x="12"
    y="20"
    width="2"
    height="5"
  >
    <path d="M12.1338 20.0388H13.1755V24.7226H12.1338V20.0388Z" fill="white" />
  </mask>
  <g mask="url(#mask2_550_448)">
    <path
      d="M12.5778 20.1036C12.3615 20.11 12.1919 20.277 12.1984 20.4769L12.3299 24.3724C12.3365 24.5683 12.5105 24.7231 12.7212 24.7231C12.7252 24.7231 12.7293 24.7231 12.7334 24.7228C12.9497 24.7168 13.1197 24.5495 13.1128 24.3499L12.9816 20.4543C12.975 20.2544 12.7925 20.0964 12.5778 20.1036Z"
      fill="currentColor"
    />
  </g>
</svg>
