<svg width="60" height="60" viewBox="0 0 60 60" fill="none" xmlns="http://www.w3.org/2000/svg">
<rect x="1" y="1" width="58" height="58" rx="29" fill="white"/>
<rect x="1" y="1" width="58" height="58" rx="29" stroke="#F15B10" stroke-width="2"/>
<g clip-path="url(#clip0_410_11406)">
<path d="M30.0224 15.4262C31.6125 14.1561 33.8653 13.8218 35.7426 14.5349C37.6199 15.2479 39.0997 17.0306 39.453 19.0361V17.6991C41.0211 17.4763 42.6555 18.1894 43.5831 19.4818C44.4886 20.7742 44.6211 22.6015 43.8923 24.0053C44.9745 24.451 45.9684 25.1863 46.5868 26.1891C47.2052 27.1918 47.4481 28.462 47.0727 29.5761C46.6972 30.6903 45.6813 31.6039 44.5328 31.7376L44.1352 30.0441C44.6874 31.6708 44.2457 33.5872 43.053 34.8127C41.8383 36.016 39.9389 36.4617 38.3266 35.9046L38.8567 34.5008C38.2825 35.6149 37.5536 36.6845 36.5819 37.4867C35.6101 38.2667 34.3512 38.7792 33.1144 38.6232C31.8776 38.4672 30.6849 37.5982 30.3536 36.3949C29.1389 37.3753 27.8359 38.3781 26.3119 38.6009C24.523 38.8683 22.6236 37.9101 21.7622 36.3057L22.5132 35.1693C21.3205 35.8823 19.9733 36.5954 18.604 36.3057C17.588 36.0829 16.7267 35.303 16.2849 34.3225C15.8432 33.342 15.8211 32.2502 16.0199 31.2028L15.7549 31.7822C14.1205 31.4702 12.7954 29.9104 12.7291 28.2169C12.6628 26.5233 13.8997 24.8744 15.5119 24.451C15.0923 22.6906 15.6224 20.7297 16.8371 19.4149C18.0518 18.1002 19.9512 17.454 21.7181 17.7437L20.3267 17.3872C21.4751 15.5822 23.4187 14.2229 25.561 14.1115C27.7033 14.0001 29.8898 15.2257 30.6849 17.2089" fill="#F15B10"/>
<path d="M39.8066 36.2835C39.2986 36.2835 38.7686 36.1943 38.2827 36.0161C38.1943 35.9938 38.1281 35.8824 38.1723 35.7932C38.1943 35.7041 38.3048 35.6372 38.3931 35.6818C39.9391 36.2389 41.7723 35.8155 42.9207 34.6345C44.0913 33.4758 44.5109 31.6262 43.9588 30.0664C43.9367 29.9773 43.9809 29.8659 44.0692 29.8436C44.1575 29.8213 44.268 29.8659 44.2901 29.955C44.8643 31.6485 44.4226 33.6317 43.1637 34.9019C42.3023 35.7932 41.0434 36.2835 39.8066 36.2835Z" fill="black"/>
<path d="M39.8062 36.3729C39.2761 36.3729 38.746 36.2837 38.2601 36.1055C38.1276 36.0609 38.0393 35.9049 38.1055 35.7489C38.1497 35.6152 38.3043 35.5261 38.4589 35.5929C39.9828 36.1277 41.7718 35.7266 42.8982 34.5679C44.0466 33.4314 44.4442 31.6265 43.9141 30.0889C43.87 29.9552 43.9362 29.7993 44.0908 29.7324C44.1571 29.7101 44.2233 29.7101 44.2896 29.7547C44.3558 29.777 44.4 29.8438 44.4221 29.9107C45.0184 31.6265 44.5546 33.6543 43.2736 34.9467C42.346 35.8603 41.0871 36.3729 39.8062 36.3729ZM38.3264 35.7712C38.2822 35.7712 38.2601 35.7935 38.2381 35.8381C38.216 35.8826 38.2381 35.9495 38.3043 35.9495C38.7681 36.1277 39.2761 36.1946 39.8062 36.1946C41.065 36.1946 42.2577 35.7044 43.119 34.8353C44.3558 33.5874 44.7976 31.6488 44.2233 29.9775C44.2233 29.9552 44.2012 29.933 44.1792 29.933C44.1571 29.933 44.135 29.9107 44.1129 29.933C44.0687 29.9552 44.0466 29.9998 44.0466 30.0444C44.5988 31.6488 44.1571 33.5206 42.9865 34.7016C41.7939 35.8826 39.9387 36.3283 38.3706 35.7712C38.3485 35.7712 38.3485 35.7712 38.3264 35.7712Z" fill="#121313"/>
<path d="M22.756 34.9682C22.7118 34.9014 22.6677 34.8568 22.6014 34.8345C22.5352 34.8122 22.4689 34.8345 22.4026 34.8568C21.1437 35.5921 19.929 36.2384 18.6922 35.971C17.8088 35.7927 16.9916 35.0796 16.572 34.1437C16.0861 33.0741 16.1744 31.96 16.3069 31.2023C16.329 31.0463 16.2407 30.9126 16.0861 30.8904C15.9315 30.8681 15.799 30.9572 15.7769 31.1132C15.7548 31.2246 15.7327 31.336 15.7106 31.4697C14.2309 31.1355 13.0603 29.7093 13.0161 28.1941C12.972 26.6342 14.0983 25.0967 15.6002 24.6956C15.7327 24.651 15.821 24.5173 15.799 24.3613C15.4014 22.6901 15.9094 20.8183 17.0579 19.5704C18.2063 18.3225 20.0394 17.6986 21.6959 17.9883C21.8505 18.0106 21.983 17.9214 22.0051 17.7655C22.0272 17.6095 21.9388 17.4758 21.7842 17.4535C19.929 17.1415 17.9634 17.81 16.6603 19.1916C15.4235 20.5063 14.8714 22.445 15.2026 24.2276C13.5904 24.7847 12.4198 26.4782 12.4861 28.1941C12.5523 29.9767 13.9437 31.648 15.6664 32.0045C15.6223 32.7176 15.7106 33.5644 16.064 34.3888C16.5499 35.4807 17.5217 36.3052 18.5597 36.528C18.7806 36.5726 19.0235 36.5949 19.2444 36.5949C20.4149 36.5949 21.5634 35.971 22.6456 35.347C22.7118 35.3025 22.756 35.2579 22.7781 35.191C22.8223 35.1019 22.8002 35.0351 22.756 34.9682Z" fill="#121313"/>
<path d="M33.5786 38.7787C33.424 38.7787 33.2694 38.7787 33.1148 38.7564C31.8338 38.6005 30.7074 37.7537 30.2878 36.6395C29.2056 37.5086 27.8804 38.489 26.3565 38.7342C24.5013 39.0016 22.5135 37.9988 21.608 36.3276C21.5639 36.2384 21.5859 36.127 21.6743 36.0824C21.7626 36.0379 21.8731 36.0602 21.9172 36.1493C22.7344 37.6868 24.5675 38.6227 26.2902 38.3553C27.8142 38.1325 29.1172 37.0852 30.2436 36.1716C30.2878 36.127 30.354 36.127 30.4203 36.1493C30.4866 36.1716 30.5307 36.2161 30.5307 36.283C30.8178 37.3749 31.9 38.2439 33.1369 38.3776C34.2412 38.5113 35.4559 38.1102 36.4718 37.2857C37.3111 36.6172 38.0178 35.6813 38.7025 34.3666C38.7467 34.2775 38.8571 34.2329 38.9454 34.2998C39.0338 34.3443 39.078 34.4557 39.0117 34.5449C38.305 35.9042 37.5761 36.8624 36.6927 37.5754C35.7651 38.3553 34.6387 38.7787 33.5786 38.7787Z" fill="black"/>
<path d="M46.83 26.0107C46.2558 25.1194 45.3502 24.3395 44.268 23.827C44.9085 22.3563 44.7318 20.5959 43.8042 19.2812C42.8325 17.8996 41.0877 17.142 39.4312 17.3648C39.365 17.3648 39.3208 17.4094 39.2766 17.4539C38.592 16.0278 37.3552 14.8245 35.8533 14.2674C33.8656 13.5098 31.5245 13.8886 29.868 15.2033C29.8239 15.2479 29.7797 15.3147 29.7797 15.3593C28.6975 14.3343 27.1515 13.7103 25.5613 13.7994C23.441 13.9331 21.365 15.2256 20.1282 17.2088C20.084 17.2757 20.084 17.3425 20.084 17.4094C20.1061 17.4762 20.1502 17.5431 20.1944 17.5876C20.2386 17.6099 20.2828 17.6322 20.3269 17.6322C20.4153 17.6322 20.5036 17.5876 20.5478 17.4985C21.7183 15.6713 23.6398 14.468 25.5834 14.3565C27.6815 14.2228 29.7134 15.4707 30.4423 17.2757C30.4644 17.3425 30.5306 17.3871 30.5969 17.4316C30.6631 17.4539 30.7294 17.4539 30.7956 17.4316C30.9282 17.3648 30.9944 17.2088 30.9502 17.0751C30.7515 16.5626 30.4423 16.0946 30.0668 15.6713C30.111 15.6713 30.1552 15.649 30.1993 15.6267C31.7232 14.4234 33.8656 14.0891 35.6766 14.7799C37.4877 15.4707 38.8791 17.142 39.2104 19.0583C39.2324 19.192 39.3429 19.2812 39.4754 19.2812C39.4975 19.2812 39.4975 19.2812 39.5196 19.2812C39.6742 19.2589 39.7625 19.1029 39.7404 18.9692C39.6742 18.6127 39.5858 18.2784 39.4533 17.9442C39.4754 17.9442 39.4754 17.9442 39.4975 17.9442C40.9551 17.7436 42.5012 18.4121 43.3625 19.6154C44.2239 20.8187 44.3343 22.5345 43.6496 23.8492C43.6055 23.9161 43.6055 24.0052 43.6275 24.0721C43.6496 24.1389 43.7159 24.2058 43.7821 24.2281C44.8864 24.6737 45.792 25.4314 46.3441 26.3004C46.9625 27.2809 47.1392 28.4619 46.8079 29.4647C46.4545 30.512 45.5048 31.3365 44.4889 31.4256C44.3343 31.4479 44.2239 31.5816 44.2459 31.7153C44.268 31.849 44.3785 31.9604 44.511 31.9604H44.5331C45.7699 31.8267 46.8963 30.8908 47.3159 29.6206C47.7134 28.5065 47.5147 27.1472 46.83 26.0107Z" fill="#121313"/>
<path d="M39.6733 31.3367C39.6513 31.3367 39.6292 31.3367 39.6071 31.3367C39.077 31.1584 38.6574 30.735 38.5249 30.178C38.4144 29.7768 38.4586 29.3535 38.6574 28.9969C38.2157 28.9969 37.774 28.8409 37.4206 28.5513C36.9789 28.1502 36.758 27.5262 36.8463 26.9469C36.9347 26.2784 37.4206 25.6321 38.2598 25.0751C38.3482 25.0082 38.4586 25.0528 38.5028 25.1196C38.569 25.2088 38.5249 25.3202 38.4586 25.3647C37.7077 25.8773 37.2881 26.4121 37.1997 26.9914C37.1335 27.4594 37.3101 27.9719 37.6635 28.2839C38.0169 28.5958 38.5249 28.7295 38.9887 28.5958C39.077 28.5735 39.1433 28.6181 39.1874 28.685C39.2316 28.7518 39.2316 28.8409 39.1654 28.9078C38.8782 29.2198 38.7678 29.71 38.8782 30.1111C38.9887 30.5345 39.32 30.8687 39.7175 31.0024C39.8059 31.0247 39.8721 31.1361 39.8279 31.2253C39.8059 31.2921 39.7396 31.3367 39.6733 31.3367Z" fill="black"/>
<path d="M20.2819 31.2478C20.2598 31.2478 20.2598 31.2478 20.2377 31.2478C20.1494 31.2255 20.0831 31.1363 20.1052 31.0249C20.2598 30.3564 20.3924 29.7102 20.4144 29.064C20.4144 28.5737 20.3482 27.8384 19.9506 27.2367C19.4868 26.546 18.6255 26.1449 17.8083 26.2117C17.72 26.2117 17.6537 26.1671 17.6095 26.078C17.5874 25.9889 17.6095 25.8997 17.6979 25.8552C18.0071 25.6769 18.2279 25.3204 18.25 24.9638C18.2721 24.6073 18.0954 24.2285 17.8083 24.0279C17.72 23.9611 17.72 23.8497 17.7641 23.7828C17.8304 23.6937 17.9408 23.6937 18.0071 23.7383C18.4046 24.0279 18.6255 24.5182 18.6034 25.0084C18.5813 25.3204 18.4709 25.6101 18.2721 25.8552C19.0672 25.9443 19.796 26.3677 20.2377 27.0362C20.5911 27.571 20.7899 28.2841 20.7678 29.064C20.7678 29.7548 20.6132 30.4233 20.4586 31.0918C20.4365 31.1809 20.3703 31.2478 20.2819 31.2478Z" fill="black"/>
<path d="M25.9366 34.5902C25.9145 34.5902 25.8924 34.5902 25.8703 34.568C25.782 34.5234 25.7378 34.412 25.782 34.3228C26.1574 33.4761 26.9967 32.8967 27.9022 32.8299C28.7415 32.763 29.5807 33.1418 30.0887 33.8103C31.1047 32.9413 32.6507 32.7184 33.8433 33.3201C33.9317 33.3647 33.9758 33.4761 33.9317 33.5652C33.8875 33.6543 33.7771 33.6989 33.6887 33.6543C32.5623 33.0973 31.0826 33.3424 30.1771 34.2337C30.1329 34.2783 30.0887 34.3006 30.0225 34.2783C29.9783 34.2783 29.912 34.2337 29.89 34.1891C29.4703 33.5429 28.6752 33.1418 27.9022 33.2087C27.1292 33.2755 26.4004 33.788 26.0912 34.4788C26.0691 34.5457 26.0028 34.5902 25.9366 34.5902Z" fill="black"/>
<path d="M39.8723 45.9324H20.1276C18.4269 45.9324 17.0576 44.5508 17.0576 42.835V27.4372C17.0576 25.7214 18.4269 24.3398 20.1276 24.3398H39.8503C41.5509 24.3398 42.9202 25.7214 42.9202 27.4372V42.835C42.9423 44.5508 41.573 45.9324 39.8723 45.9324Z" fill="#FBEED4"/>
<path d="M40.0052 24.0723H19.9954C18.2286 24.0723 16.793 25.5207 16.793 27.3034V42.9908C16.793 44.7735 18.2286 46.2219 19.9954 46.2219H40.0273C41.7942 46.2219 43.2298 44.7735 43.2298 42.9908V27.3034C43.2077 25.5207 41.7721 24.0723 40.0052 24.0723ZM42.6776 27.3034V42.9908C42.6776 44.4615 41.485 45.6648 40.0273 45.6648H19.9954C18.5378 45.6648 17.3451 44.4615 17.3451 42.9908V27.3034C17.3451 25.8327 18.5378 24.6293 19.9954 24.6293H40.0273C41.485 24.6071 42.6776 25.8104 42.6776 27.3034Z" fill="#111212"/>
<path d="M13.5677 34.4785H17.0573V43.0353H14.8487C13.9653 43.0353 13.1923 42.3668 13.0818 41.4755L12.2646 35.7932C12.2646 35.0802 12.861 34.4785 13.5677 34.4785Z" fill="#FBEED4"/>
<path d="M13.5681 34.2109C12.7067 34.2109 12 34.924 12 35.7931L12.7951 41.5199C12.9276 42.5449 13.811 43.3025 14.827 43.3025H17.3227V34.2109H13.5681ZM13.5681 34.7457H16.7926V42.7677H14.8491C14.0982 42.7677 13.4577 42.2107 13.3472 41.453L12.5301 35.7708C12.5521 35.2137 13.016 34.7457 13.5681 34.7457Z" fill="#111212"/>
<path d="M46.432 34.4785H42.9424V43.0353H45.1731C46.0565 43.0353 46.8295 42.3668 46.9399 41.4755L47.735 35.7709C47.735 35.0802 47.1608 34.4785 46.432 34.4785Z" fill="#FBEED4"/>
<path d="M46.4323 34.2109H42.6777V43.3248H45.1734C46.1894 43.3248 47.0728 42.5449 47.2053 41.5422L48.0004 35.8376V35.8153C48.0004 34.924 47.2937 34.2109 46.4323 34.2109ZM47.4704 35.7708L46.6753 41.453C46.5649 42.2107 45.9244 42.7677 45.1734 42.7677H43.2299V34.7457H46.4544C47.0066 34.7457 47.4483 35.2137 47.4704 35.7708Z" fill="#111212"/>
<path d="M45.0851 38.3337C44.7759 37.8658 44.2458 37.5315 43.6937 37.4647L43.6053 37.4424L43.5391 37.9772L43.6274 37.9995C44.025 38.044 44.4225 38.2892 44.6434 38.6457C44.8642 39.0022 44.9305 39.4256 44.82 39.8267L44.798 39.9158L45.3059 40.0718L45.328 39.9827C45.4826 39.4256 45.3943 38.824 45.0851 38.3337Z" fill="#111212"/>
<path d="M30.9941 40.7625L30.8395 40.8962C30.6849 40.6956 30.464 40.5619 30.199 40.5619C29.9561 40.5396 29.7131 40.6511 29.5364 40.8293L29.3818 40.6956C29.6027 40.4728 29.9119 40.3614 30.199 40.3837C30.5303 40.3614 30.8174 40.5174 30.9941 40.7625Z" fill="#1A0D12"/>
<path d="M30.8175 41.0079L30.7733 40.9411C30.6408 40.7628 30.42 40.6514 30.1991 40.6291C29.9782 40.6068 29.7574 40.6959 29.6028 40.8519L29.5365 40.9188L29.2715 40.6514L29.3377 40.5845C29.5586 40.3394 29.912 40.2057 30.2433 40.228C30.5746 40.2503 30.8838 40.4285 31.0825 40.6959L31.1267 40.7628L30.8175 41.0079ZM30.1549 40.4508C30.177 40.4508 30.1991 40.4508 30.2212 40.4508C30.4641 40.4731 30.685 40.5845 30.8617 40.7628L30.8838 40.7405C30.7071 40.5622 30.4641 40.4285 30.2212 40.4285C29.9782 40.4063 29.7132 40.4954 29.5365 40.6737L29.5586 40.6959C29.7132 40.54 29.9341 40.4508 30.1549 40.4508Z" fill="#111212"/>
<path d="M16.1747 37.4863L16.0863 37.5086C15.5563 37.62 15.0925 37.9543 14.8274 38.4222C14.5624 38.8902 14.4961 39.4695 14.6728 39.9821L14.6949 40.0712L15.2029 39.8929L15.1808 39.8038C15.0704 39.4473 15.0925 39.0239 15.2912 38.6896C15.49 38.3554 15.8213 38.1103 16.1968 38.0434L16.2851 38.0211L16.1747 37.4863Z" fill="#111212"/>
<path d="M22.4026 32.0045C21.4529 31.7817 20.6578 31.7371 19.9511 31.8931C19.0456 32.0937 18.2725 32.6508 17.9192 33.3861L17.875 33.4752L18.3609 33.7204L18.4051 33.6312C18.6922 33.0519 19.3327 32.6062 20.0836 32.4279C20.702 32.2942 21.4308 32.3165 22.2922 32.5393L22.3805 32.5616L22.513 32.0268L22.4026 32.0045Z" fill="#121313"/>
<path d="M42.1032 33.5423C41.1093 32.339 39.5191 31.6928 37.9731 31.8711H37.8848L37.951 32.4059H38.0394C39.3866 32.2499 40.8222 32.8292 41.7056 33.8988L41.7719 33.9657L42.1915 33.6092L42.1032 33.5423Z" fill="#121313"/>
<path d="M31.9213 43.9046C31.9213 43.8823 31.8992 43.86 31.855 43.86C30.7728 43.9714 29.7127 43.5481 29.0059 42.7013C28.9839 42.679 28.9397 42.679 28.9176 42.7013L28.6084 42.9687C28.9839 44.1497 30.044 44.8851 31.4796 44.4617C31.6342 44.4171 31.7888 44.3725 31.9434 44.328L31.9213 43.9046Z" fill="#1D1215"/>
<path d="M23.9926 21.955C23.9705 22.0665 23.8821 22.1333 23.7938 22.1779C23.7055 22.2224 23.595 22.267 23.5288 22.3339C23.4183 22.423 23.3079 22.7572 23.1754 22.7795C23.0429 22.8018 23.0871 22.6458 23.1091 22.5344C23.1975 22.2002 23.6171 21.8659 23.9926 21.955Z" fill="#FCEED3"/>
<path d="M19.2225 29.8212C20.9894 27.4369 24.3023 26.3673 27.1072 27.2586C28.5649 27.7265 29.9121 28.6624 31.436 28.707C32.96 28.7516 34.3514 27.9494 35.7428 27.37C37.1563 26.8129 38.9011 26.5232 40.0716 27.526C40.933 28.2613 41.4189 29.6652 42.5673 29.732C43.3624 29.7989 44.0471 29.0858 44.29 28.3282C44.8422 26.6569 43.8041 24.8074 42.3465 23.8492C40.8888 22.8911 39.0998 22.6237 37.3771 22.4008C34.8594 22.0443 32.3416 21.71 29.8238 21.3758C26.2459 20.9078 22.5133 20.5067 19.0679 21.5986C18.052 21.9329 16.9919 22.4454 16.5281 23.4259C16.0201 24.4732 16.1305 25.6988 16.3956 26.8352C16.5943 27.6597 16.8814 28.4619 16.7268 29.2864C16.6385 29.7098 16.3072 30.356 16.4839 30.7794C17.1244 32.3615 18.7808 30.4228 19.2225 29.8212Z" fill="#F15B10"/>
<path d="M42.3461 23.6041C42.2799 23.5596 42.2136 23.5596 42.1473 23.5596C42.0811 23.5819 42.0148 23.6264 41.9707 23.671C41.9265 23.7378 41.9265 23.8047 41.9265 23.8715C41.9486 23.9384 41.9927 24.0052 42.0369 24.0498C43.34 24.8966 44.4001 26.6124 43.87 28.2168C43.6492 28.863 43.097 29.4869 42.4124 29.4424C41.794 29.3978 41.3743 28.8407 40.9326 28.2614C40.6676 27.9271 40.4026 27.5706 40.0934 27.3032C38.6799 26.0999 36.6038 26.657 35.4995 27.1026C35.1903 27.2363 34.8811 27.37 34.5719 27.5037C33.5118 27.9717 32.4296 28.4619 31.3032 28.4173C30.3756 28.3728 29.4921 27.994 28.5866 27.5929C28.0786 27.37 27.5707 27.1472 27.0406 26.9689C24.1473 26.033 20.7019 27.1472 18.8688 29.5984C18.3167 30.3337 17.4995 31.1136 17.0136 31.0468C16.8369 31.0245 16.7265 30.8908 16.6161 30.6234C16.5277 30.4006 16.6381 30.044 16.7486 29.7321C16.7927 29.5761 16.8369 29.4201 16.8811 29.2864C16.9032 29.1304 16.8148 28.9967 16.6602 28.9744C16.5056 28.9521 16.3731 29.0413 16.351 29.1973C16.3289 29.3087 16.2848 29.4424 16.2406 29.5984C16.1081 29.9995 15.9756 30.4451 16.1302 30.8462C16.3069 31.3142 16.594 31.5593 16.9694 31.6039C17.0136 31.6039 17.0578 31.6039 17.1019 31.6039C18.0075 31.6039 19.0455 30.3337 19.3326 29.9326C21.0332 27.6597 24.2357 26.6124 26.9302 27.4592C27.4381 27.6151 27.9461 27.838 28.432 28.0608C29.3596 28.4619 30.3093 28.8853 31.3473 28.9299C32.5842 28.9744 33.7326 28.4619 34.859 27.9717C35.1682 27.838 35.4774 27.7043 35.7866 27.5706C36.7805 27.1695 38.6357 26.657 39.8283 27.682C40.1154 27.9271 40.3584 28.2391 40.6013 28.5733C41.0872 29.2195 41.6173 29.9103 42.4786 29.9772C43.4283 30.044 44.2013 29.2195 44.4885 28.3728C45.0185 26.5233 43.8259 24.5623 42.3461 23.6041Z" fill="#121313"/>
<path d="M27.2168 22.512C27.0843 21.8658 26.6205 21.3087 25.9579 20.9745C25.4278 20.7071 24.7874 20.5957 24.0585 20.6625C23.2855 20.7071 22.645 20.9299 22.137 21.2864C21.5186 21.7321 21.1211 22.4229 21.1211 23.1137C21.1211 23.2697 21.2315 23.3811 21.3861 23.3811C21.5407 23.3811 21.6512 23.2697 21.6512 23.1137C21.6512 22.6012 21.9604 22.0664 22.4462 21.7321C22.8659 21.4201 23.418 21.2419 24.1027 21.1973C24.7432 21.1527 25.2732 21.2419 25.715 21.4647C26.2229 21.7098 26.5763 22.1555 26.6867 22.6234C26.7088 22.7794 26.8634 22.8686 26.9959 22.824C27.1726 22.8017 27.261 22.6457 27.2168 22.512Z" fill="#121313"/>
<path d="M37.4209 20.7295C36.5375 20.1056 35.4774 20.0387 34.7485 20.0833C33.7547 20.1502 32.8712 20.4844 32.1866 21.0192C32.0761 21.1083 32.0541 21.2866 32.1424 21.398C32.2307 21.5094 32.4074 21.5317 32.5179 21.4426C33.2467 20.8632 34.1522 20.685 34.7706 20.6181C35.4111 20.5735 36.3608 20.6181 37.0896 21.1752C37.7522 21.6654 38.1056 22.4899 37.951 23.1807C37.9068 23.3367 38.0172 23.4704 38.1498 23.5149C38.1719 23.5149 38.1939 23.5149 38.216 23.5149C38.3485 23.5149 38.459 23.4258 38.4811 23.3144C38.7019 22.3785 38.2602 21.3312 37.4209 20.7295Z" fill="#121313"/>
<path d="M23.3301 41.3863C24.8548 41.3863 26.0908 40.1392 26.0908 38.6008C26.0908 37.0625 24.8548 35.8154 23.3301 35.8154C21.8054 35.8154 20.5693 37.0625 20.5693 38.6008C20.5693 40.1392 21.8054 41.3863 23.3301 41.3863Z" fill="#1C1014"/>
<path d="M36.847 41.2976C38.2985 41.2976 39.4752 40.1104 39.4752 38.6459C39.4752 37.1814 38.2985 35.9941 36.847 35.9941C35.3954 35.9941 34.2188 37.1814 34.2188 38.6459C34.2188 40.1104 35.3954 41.2976 36.847 41.2976Z" fill="#1C1014"/>
<path d="M21.4087 40.0265C21.475 40.1602 21.5633 40.3162 21.7179 40.383C21.74 40.227 21.6738 40.0711 21.6517 39.9374C21.5192 39.4471 21.4529 38.9123 21.475 38.3998C21.475 38.3107 21.475 38.2215 21.4529 38.1547C21.3867 38.021 21.2541 37.9987 21.21 38.1547C21.1658 38.3107 21.1437 38.4667 21.1437 38.6226C21.1216 38.9346 21.1437 39.2466 21.2321 39.5585C21.2541 39.7145 21.3204 39.8705 21.4087 40.0265Z" fill="#FCEED3"/>
<path d="M21.4523 37.2639C21.4523 37.3084 21.4744 37.353 21.5186 37.353C21.5628 37.353 21.5849 37.3084 21.5849 37.2861C21.629 37.197 21.8499 36.7959 21.6732 36.7959C21.4965 36.7959 21.4303 37.1302 21.4523 37.2639Z" fill="#FCEED3"/>
<path d="M37.9731 40.2942C37.9289 40.3387 37.8848 40.3833 37.8848 40.4502C37.8848 40.517 37.8848 40.5839 37.951 40.6061C38.0173 40.6284 38.0835 40.5616 38.1277 40.517C38.5694 39.9599 38.8124 39.2468 38.7903 38.5338C38.7903 38.3778 38.7682 38.0658 38.6136 37.9767C38.5253 37.9321 38.5253 38.0213 38.5473 38.1104C38.5694 38.2218 38.5915 38.3332 38.5915 38.4446C38.6136 38.868 38.5473 39.2914 38.3707 39.6925C38.2602 39.9153 38.1277 40.1159 37.9731 40.2942Z" fill="#FCEED3"/>
<path d="M38.4586 36.9967C38.4365 36.9744 38.4144 36.9521 38.3702 36.9521C38.3481 36.9521 38.304 36.9521 38.2819 36.9744C38.2377 37.019 38.2598 37.0858 38.304 37.1527C38.3261 37.1973 38.3481 37.2418 38.3923 37.3087C38.4144 37.331 38.4144 37.3532 38.4365 37.3755C38.4586 37.3978 38.4807 37.3978 38.5248 37.3978C38.6573 37.331 38.5027 37.0636 38.4586 36.9967Z" fill="#FCEED3"/>
<path d="M27.3051 34.0107H19.3321C18.6916 34.0107 18.1836 34.5678 18.1836 35.2363V41.9882C18.1836 42.6567 18.7137 43.2138 19.3321 43.2138H27.3272C27.9676 43.2138 28.4756 42.6567 28.4756 41.9882V35.2363C28.4756 34.5678 27.9456 34.0107 27.3051 34.0107ZM27.8572 35.2363V41.9882C27.8572 42.3224 27.6143 42.5676 27.3051 42.5676H19.3321C19.0229 42.5676 18.7799 42.3002 18.7799 41.9882V35.2363C18.7799 34.9021 19.0229 34.657 19.3321 34.657H27.3272C27.6143 34.657 27.8572 34.9021 27.8572 35.2363Z" fill="#111212"/>
<path d="M40.6452 34.0107H32.8047C32.1863 34.0107 31.6562 34.5678 31.6562 35.2363V41.9882C31.6562 42.6567 32.1642 43.2138 32.8047 43.2138H40.6452C41.2636 43.2138 41.7937 42.6567 41.7937 41.9882V35.2363C41.7716 34.5678 41.2636 34.0107 40.6452 34.0107ZM41.1753 35.2363V41.9882C41.1753 42.3224 40.9323 42.5676 40.6452 42.5676H32.8047C32.5176 42.5676 32.2747 42.3002 32.2747 41.9882V35.2363C32.2747 34.9021 32.5176 34.657 32.8047 34.657H40.6452C40.9323 34.657 41.1753 34.9021 41.1753 35.2363Z" fill="#111212"/>
</g>
<defs>
<clipPath id="clip0_410_11406">
<rect width="36" height="32.4" fill="white" transform="translate(12 13.7998)"/>
</clipPath>
</defs>
</svg>
