<svg width="82" height="33" viewBox="0 0 82 33" fill="none" xmlns="http://www.w3.org/2000/svg">
<g clip-path="url(#clip0_481_3342)">
<path d="M21.8901 27.4396C26.3472 27.4396 29.9604 23.8264 29.9604 19.3693C29.9604 14.9122 26.3472 11.299 21.8901 11.299C17.433 11.299 13.8198 14.9122 13.8198 19.3693C13.8198 23.8264 17.433 27.4396 21.8901 27.4396Z" fill="#1C1014"/>
<path d="M61.4814 27.1914C65.7375 27.1914 69.1878 23.7411 69.1878 19.485C69.1878 15.2288 65.7375 11.7785 61.4814 11.7785C57.2252 11.7785 53.7749 15.2288 53.7749 19.485C53.7749 23.7411 57.2252 27.1914 61.4814 27.1914Z" fill="#1C1014"/>
<path d="M16.2351 23.5368C16.4501 23.9502 16.7147 24.3802 17.1447 24.5786C17.1943 24.1321 17.0454 23.7021 16.9297 23.2722C16.5162 21.8334 16.3509 20.312 16.417 18.8071C16.4335 18.559 16.4501 18.3109 16.3343 18.0794C16.1524 17.699 15.7555 17.6494 15.6398 18.0629C15.5075 18.4928 15.4578 18.9724 15.4248 19.4189C15.3586 20.3285 15.4578 21.2546 15.7059 22.1311C15.8217 22.6107 16.0036 23.0903 16.2351 23.5368Z" fill="#FCEED3"/>
<path d="M16.3673 15.483C16.3838 15.6153 16.4334 15.7641 16.5657 15.7806C16.665 15.7806 16.7477 15.6814 16.7973 15.5987C16.9296 15.3672 17.5911 14.2096 17.0288 14.16C16.5327 14.1269 16.3342 15.1357 16.3673 15.483Z" fill="#FCEED3"/>
<path d="M64.7557 24.314C64.6399 24.4463 64.5076 24.5786 64.458 24.7605C64.4084 24.9259 64.4745 25.1574 64.6399 25.2071C64.8384 25.2732 65.0368 25.1078 65.1691 24.9425C66.4921 23.3549 67.1867 21.2711 67.104 19.2205C67.0875 18.7905 67.0213 17.8644 66.5748 17.6164C66.2937 17.4675 66.3433 17.7652 66.3764 17.9967C66.426 18.3109 66.4921 18.6251 66.5087 18.9394C66.6079 20.1631 66.3764 21.42 65.8802 22.528C65.5991 23.173 65.2187 23.7848 64.7557 24.314Z" fill="#FCEED3"/>
<path d="M66.1617 14.7388C66.0955 14.6726 66.0128 14.623 65.9301 14.5899C65.8309 14.5734 65.7317 14.5899 65.6655 14.6561C65.5498 14.7884 65.6325 14.9868 65.7151 15.1357C65.7978 15.2845 65.8805 15.4168 65.9632 15.5657C66.0128 15.6483 66.0459 15.7145 66.112 15.7806C66.1782 15.8303 66.2774 15.8633 66.3436 15.8468C66.757 15.7145 66.327 14.9042 66.1617 14.7388Z" fill="#FCEED3"/>
<path d="M34.128 31.8385H9.56989C8.11459 31.8385 6.94043 30.6644 6.94043 29.2091V9.61218C6.94043 8.15689 8.11459 6.98273 9.56989 6.98273H34.1446C35.5999 6.98273 36.774 8.15689 36.774 9.61218V29.2256C36.7575 30.6644 35.5833 31.8385 34.128 31.8385Z" stroke="#1D1215" stroke-width="2" stroke-miterlimit="10"/>
<path d="M73.3882 31.8385H48.8135C47.3582 31.8385 46.1841 30.6644 46.1841 29.2091V9.61218C46.1841 8.15689 47.3582 6.98273 48.8135 6.98273H73.3882C74.8435 6.98273 76.0177 8.15689 76.0177 9.61218V29.2256C76.0177 30.6644 74.8435 31.8385 73.3882 31.8385Z" stroke="#1D1215" stroke-width="2" stroke-miterlimit="10"/>
<path d="M36.3944 11.7785L35.0549 6.70154H6.29625L2.65801 7.39611L1.59961 1.87259L5.75051 1.0788H39.3712L41.8353 10.3232L36.3944 11.7785Z" fill="#F15B10" stroke="#1C1014" stroke-width="2" stroke-miterlimit="10"/>
<path d="M46.3002 11.7785L47.6232 6.70154H75.8195L79.3751 7.39611L80.417 1.87259L76.3322 1.0788H43.3896L40.9751 10.3232L46.3002 11.7785Z" fill="#F15B10" stroke="#1C1014" stroke-width="2" stroke-miterlimit="10"/>
</g>
<defs>
<clipPath id="clip0_481_3342">
<rect width="80.1571" height="32" fill="white" transform="translate(0.921387 0.5)"/>
</clipPath>
</defs>
</svg>
