<svg width="68" height="61" viewBox="0 0 68 61" fill="none" xmlns="http://www.w3.org/2000/svg">
<path d="M34.0993 3.87735C37.0769 1.54485 41.2953 0.899687 44.8189 2.23964C48.3424 3.57959 51.072 6.85502 51.7171 10.5771V8.09572C54.6452 7.69869 57.7221 9.03864 59.4094 11.4208C61.0968 13.8029 61.3449 17.1776 59.9553 19.7582C61.9901 20.6019 63.8263 21.9419 64.9678 23.8277C66.1092 25.664 66.5558 28.0461 65.861 30.1305C65.1663 32.2148 63.2804 33.9022 61.0968 34.1007L60.402 30.9741C61.4442 34.0014 60.6005 37.525 58.3673 39.7582C56.134 41.9915 52.5608 42.7855 49.5335 41.7434L50.5261 39.1627C49.4342 41.2471 48.0943 43.1826 46.2581 44.6714C44.4218 46.1106 42.0893 47.0535 39.7568 46.7558C37.4243 46.458 35.2407 44.8699 34.6452 42.587C32.3623 44.3736 29.9802 46.2595 27.1017 46.6565C23.7767 47.1528 20.2035 45.3662 18.6154 42.3885L20.0546 40.3042C17.8213 41.5945 15.2903 42.9344 12.7593 42.3885C10.8238 41.9915 9.23574 40.5027 8.44169 38.7161C7.64765 36.9295 7.54839 34.8947 7.94542 32.9592L7.44914 34.0511C4.37221 33.4555 1.89082 30.5275 1.79157 27.4009C1.69231 24.2744 3.97519 21.2471 7.00249 20.453C6.25807 17.1776 7.201 13.6044 9.5335 11.1726C11.866 8.74088 15.3896 7.54981 18.665 8.09572L16.0844 7.45055C18.1687 4.12549 21.8412 1.6441 25.8114 1.39596C29.7816 1.14783 33.9008 3.48033 35.3896 7.15279" fill="#F15B10"/>
<path d="M52.2631 42.5374C51.3202 42.5374 50.3276 42.3886 49.4343 42.0412C49.2358 41.9915 49.1862 41.793 49.2358 41.5945C49.2854 41.396 49.4839 41.3464 49.6824 41.396C52.5609 42.4382 55.9852 41.6441 58.1688 39.5101C60.3524 37.3762 61.1465 33.9518 60.1539 31.0734C60.1043 30.8749 60.2035 30.726 60.3524 30.6268C60.5509 30.5771 60.6998 30.6764 60.7991 30.8253C61.8909 33.9518 60.9976 37.6243 58.6651 39.9568C56.9281 41.6441 54.5956 42.5374 52.2631 42.5374Z" fill="black"/>
<path d="M52.2631 42.6863C51.2705 42.6863 50.2779 42.5374 49.3846 42.1901C49.1365 42.0908 48.9876 41.793 49.0869 41.5449C49.1861 41.2968 49.4839 41.1479 49.732 41.2471C52.5608 42.2397 55.8859 41.4953 58.0199 39.4109C60.1539 37.2769 60.9479 33.9518 59.9554 31.1231C59.8561 30.8749 60.005 30.5772 60.2531 30.4779C60.402 30.4283 60.5013 30.4283 60.6502 30.4779C60.7494 30.5275 60.8487 30.6268 60.8983 30.7757C61.9901 33.9518 61.0968 37.7236 58.7147 40.1057C57.0273 41.7434 54.6948 42.6863 52.2631 42.6863ZM49.5335 41.5449C49.4839 41.5449 49.3846 41.5945 49.3846 41.6441C49.335 41.7434 49.3846 41.8427 49.4839 41.8427C50.3772 42.1404 51.3201 42.3389 52.2631 42.3389C54.5956 42.3389 56.8784 41.4456 58.4665 39.8575C60.799 37.5747 61.6427 33.9518 60.5509 30.8749C60.5509 30.8253 60.5013 30.7757 60.4516 30.7757C60.402 30.7757 60.3524 30.7757 60.3028 30.7757C60.2035 30.8253 60.1539 30.9245 60.2035 30.9742C61.1961 33.9518 60.402 37.3762 58.1688 39.6094C55.9355 41.793 52.4616 42.5871 49.5335 41.5449C49.5832 41.5449 49.5832 41.5449 49.5335 41.5449Z" fill="#121313"/>
<path d="M20.5013 40.0064C20.4516 39.9071 20.3027 39.8079 20.2035 39.7583C20.0546 39.7086 19.9553 39.7583 19.8065 39.8079C17.474 41.1478 15.1415 42.3389 12.8586 41.8426C11.2209 41.4952 9.68239 40.2049 8.88835 38.4679C7.99505 36.4828 8.14393 34.3985 8.4417 33.0089C8.49133 32.7607 8.29282 32.463 8.04468 32.4133C7.79654 32.3637 7.49877 32.5622 7.44914 32.8104C7.39952 33.0089 7.34989 33.2074 7.34989 33.4555C4.62036 32.8104 2.38711 30.1801 2.33748 27.3513C2.23823 24.4729 4.37222 21.6441 7.20101 20.8997C7.44914 20.8501 7.64766 20.5523 7.5484 20.3042C6.85361 17.2272 7.74691 13.7533 9.93053 11.4704C12.1142 9.18754 15.4888 8.0461 18.6154 8.54238C18.9132 8.592 19.1613 8.39349 19.2109 8.14535C19.2606 7.84759 19.062 7.59945 18.8139 7.54982C15.34 6.95429 11.6675 8.19498 9.23574 10.7756C6.90324 13.257 5.86106 16.7806 6.45659 20.1057C3.42929 21.0982 1.24567 24.2248 1.34493 27.4009C1.44418 30.726 4.02483 33.8029 7.30026 34.4481C7.20101 35.788 7.34989 37.3265 8.04468 38.865C8.93798 40.8997 10.7246 42.3885 12.7097 42.8352C13.1067 42.9344 13.5534 42.9841 14 42.9841C16.1836 42.9841 18.3673 41.8426 20.3524 40.7012C20.4516 40.6516 20.5509 40.5027 20.6005 40.4034C20.6005 40.2545 20.5509 40.1057 20.5013 40.0064Z" fill="#121313"/>
<path d="M40.6501 47.1032C40.3524 47.1032 40.0546 47.1032 39.8065 47.0536C37.4243 46.7558 35.34 45.1677 34.5459 43.133C32.5112 44.721 30.0794 46.5573 27.201 46.9543C23.7271 47.4506 20.005 45.5647 18.3673 42.4878C18.268 42.3389 18.3176 42.1404 18.5161 42.0411C18.665 41.9419 18.8635 41.9915 18.9628 42.19C20.5013 45.0188 23.9256 46.7558 27.1017 46.3091C29.9305 45.9121 32.3623 43.9766 34.4963 42.2893C34.5955 42.2397 34.6948 42.19 34.7941 42.2397C34.8933 42.2893 34.9926 42.3389 34.9926 42.4878C35.5385 44.5225 37.5236 46.1106 39.8561 46.4084C41.8908 46.6565 44.1737 45.9121 46.1092 44.4233C47.6477 43.1826 48.9876 41.4456 50.2779 39.0139C50.3772 38.865 50.5757 38.7657 50.7246 38.865C50.8735 38.9642 50.9727 39.1627 50.8735 39.3116C49.5335 41.8426 48.1439 43.6292 46.5558 44.9196C44.7196 46.3091 42.6352 47.1032 40.6501 47.1032Z" fill="black"/>
<path d="M65.4144 23.5796C64.3722 21.8923 62.6849 20.5027 60.6502 19.5598C61.8412 16.8302 61.5434 13.5548 59.8065 11.1727C58.0199 8.64165 54.7444 7.20245 51.6179 7.6491C51.5186 7.6491 51.4194 7.74835 51.3201 7.79798C50.1291 5.01882 47.7966 2.8352 45.0174 1.74339C41.3449 0.35381 36.9281 0.998971 33.8511 3.43073C33.7519 3.52999 33.7023 3.62924 33.6526 3.7285C31.6179 1.84264 28.7395 0.701205 25.8114 0.850088C21.8908 1.0486 17.9702 3.48036 15.6874 7.15282C15.6377 7.25207 15.5881 7.40096 15.6377 7.54984C15.6874 7.69872 15.737 7.79798 15.8363 7.84761C15.9355 7.89724 15.9851 7.94686 16.0844 7.94686C16.2829 7.94686 16.4318 7.84761 16.531 7.69872C18.665 4.32403 22.2382 2.09078 25.8611 1.89227C29.7817 1.69376 33.5534 3.97664 34.943 7.35133C34.9926 7.50021 35.0918 7.54984 35.1911 7.6491C35.2903 7.69872 35.4392 7.69872 35.5881 7.6491C35.8363 7.54984 35.9851 7.25207 35.8859 7.00393C35.4889 6.06101 34.943 5.16771 34.2482 4.37366C34.3474 4.37366 34.397 4.32403 34.4963 4.27441C37.3251 2.04116 41.3449 1.44562 44.7196 2.73594C48.0943 4.02627 50.675 7.15282 51.3201 10.6764C51.3698 10.9245 51.5683 11.0734 51.8164 11.0734C51.866 11.0734 51.866 11.0734 51.9157 11.0734C52.1638 11.0238 52.3623 10.7756 52.3127 10.4779C52.2134 9.83272 52.0149 9.18756 51.7668 8.59202C51.8164 8.59202 51.8164 8.59202 51.866 8.59202C54.5956 8.195 57.474 9.48532 59.0621 11.7186C60.6502 13.9518 60.8487 17.128 59.608 19.5598C59.5583 19.7087 59.5583 19.8079 59.5583 19.9568C59.608 20.1057 59.7072 20.2049 59.8561 20.2546C61.9405 21.0982 63.6278 22.4878 64.6204 24.1255C65.7618 25.9618 66.0596 28.1454 65.4641 29.9816C64.8189 31.9171 63.0323 33.4059 61.1464 33.6044C60.8487 33.6541 60.6502 33.9022 60.6998 34.1503C60.7494 34.3985 60.9479 34.597 61.1961 34.597H61.2457C63.5782 34.3489 65.6626 32.6119 66.4566 30.2794C67.1018 28.1454 66.7544 25.6144 65.4144 23.5796Z" fill="#121313"/>
<path d="M52.0646 33.3563C52.0149 33.3563 52.0149 33.3563 51.9653 33.3563C50.9728 33.0585 50.2283 32.2149 49.9306 31.2223C49.7321 30.4779 49.8313 29.6839 50.1787 29.0387C49.335 29.0387 48.4914 28.7409 47.8958 28.195C47.0522 27.4506 46.6551 26.3092 46.804 25.2174C47.0025 23.9767 47.8958 22.7856 49.4343 21.7434C49.5832 21.6442 49.7817 21.6938 49.8809 21.8427C49.9802 21.9916 49.9306 22.1901 49.7817 22.2893C48.3921 23.2322 47.5981 24.2248 47.4492 25.267C47.3003 26.1107 47.6477 27.0536 48.2929 27.6491C48.938 28.2447 49.9306 28.4432 50.7742 28.2447C50.9231 28.195 51.072 28.2447 51.1713 28.3935C51.2705 28.5424 51.2209 28.6913 51.1216 28.7906C50.5757 29.3861 50.3772 30.2298 50.5757 31.0238C50.7742 31.7682 51.4194 32.463 52.1638 32.7112C52.3623 32.7608 52.4616 32.9593 52.3623 33.1578C52.3127 33.3067 52.2135 33.3563 52.0646 33.3563Z" fill="black"/>
<path d="M15.8859 33.0586C15.8363 33.0586 15.8363 33.0586 15.7867 33.0586C15.5882 33.0089 15.4889 32.8104 15.5385 32.6615C15.8363 31.4208 16.0844 30.2298 16.1341 29.0387C16.1341 28.0958 15.9852 26.8054 15.2408 25.664C14.3971 24.3737 12.809 23.6293 11.2705 23.7285C11.1217 23.7285 10.9728 23.6293 10.9232 23.4804C10.8735 23.3315 10.9232 23.1826 11.072 23.0834C11.6676 22.736 12.0646 22.0908 12.0646 21.4456C12.1142 20.8005 11.7668 20.1057 11.2209 19.7087C11.072 19.6094 11.0224 19.4109 11.1713 19.2124C11.2705 19.0635 11.5187 19.0139 11.6676 19.1628C12.412 19.7087 12.809 20.602 12.7594 21.4953C12.7098 22.0908 12.5112 22.6367 12.1142 23.0834C13.6031 23.2322 14.943 24.0263 15.7867 25.267C16.4318 26.2595 16.7792 27.5499 16.7792 29.0387C16.7792 30.2794 16.4815 31.5201 16.1837 32.8104C16.1837 32.9593 16.0348 33.0586 15.8859 33.0586Z" fill="black"/>
<path d="M26.4069 39.3116C26.3573 39.3116 26.3077 39.3116 26.2581 39.262C26.1092 39.1627 26.0099 38.9642 26.1092 38.8153C26.804 37.2769 28.3424 36.1851 30.0794 36.0858C31.6675 35.9866 33.2059 36.6813 34.1489 37.922C36.0347 36.334 38.9131 35.9369 41.1464 37.0287C41.2953 37.128 41.3945 37.3265 41.2953 37.4754C41.196 37.6243 40.9975 37.7235 40.8486 37.6243C38.7643 36.5821 35.9851 37.0287 34.2978 38.6665C34.2481 38.7161 34.1489 38.7657 34 38.7657C33.9007 38.7657 33.8015 38.7161 33.7518 38.6168C32.9578 37.4258 31.469 36.6813 30.0794 36.7806C28.6402 36.8799 27.3002 37.8228 26.7047 39.1131C26.6551 39.2124 26.5062 39.3116 26.4069 39.3116Z" fill="black"/>
<path d="M51.1712 60.3538L16.6799 60.2546C12.8585 60.2546 9.78162 57.128 9.78162 53.3067L9.83124 27.2025C9.83124 23.3811 12.9578 20.3042 16.7791 20.3042L51.2704 20.4035C55.0918 20.4035 58.1687 23.53 58.1687 27.3513L58.1191 53.4556C58.1191 57.2769 54.9925 60.3538 51.1712 60.3538Z" fill="#FCEED3"/>
<path d="M52.7593 19.9072L15.3896 19.8079C12.1142 19.8079 9.43428 22.4878 9.38466 25.7633L9.2854 54.7459C9.2854 58.0213 11.9653 60.7012 15.2407 60.7509L52.6105 60.8501C55.8859 60.8501 58.5658 58.1702 58.6154 54.8948L58.7147 25.9121C58.7147 22.6367 56.0348 19.9072 52.7593 19.9072ZM57.6725 25.9121L57.5732 54.8948C57.5732 57.6243 55.34 59.8575 52.6105 59.8575L15.2407 59.7583C12.5112 59.7583 10.278 57.525 10.278 54.7955L10.3772 25.8129C10.3772 23.0834 12.6105 20.8501 15.34 20.8501L52.7097 20.9494C55.4889 20.9494 57.6725 23.1826 57.6725 25.9121Z" fill="#111212"/>
<path d="M3.33008 39.0635H9.83132V54.8947H5.71221C4.02487 54.8947 2.63529 53.654 2.38715 52.0163L0.898315 41.4456C0.898315 40.1057 1.99013 39.0635 3.33008 39.0635Z" fill="#FCEED3"/>
<path d="M3.33002 38.5672C1.6923 38.5672 0.401978 39.8575 0.401978 41.4952L1.89081 52.1156C2.13895 54.0014 3.77667 55.4406 5.71215 55.4406H10.3772V38.5672H3.33002ZM3.33002 39.5598H9.33498L9.28535 54.3985H5.66252C4.27295 54.3985 3.03225 53.3563 2.83374 51.9667L1.39453 41.4456C1.44416 40.4034 2.28783 39.5598 3.33002 39.5598Z" fill="#111212"/>
<path d="M64.67 39.2124H58.1688L58.1191 55.0436H62.2382C63.9256 55.0436 65.3152 53.8029 65.5633 52.1652L67.1018 41.6441C67.1018 40.3042 66.01 39.2124 64.67 39.2124Z" fill="#FCEED3"/>
<path d="M64.6699 38.7161H57.6724L57.6228 55.5399H62.2878C64.1737 55.5399 65.8114 54.1503 66.1092 52.2645L67.6476 41.7434V41.6938C67.598 40.056 66.258 38.7161 64.6699 38.7161ZM66.6054 41.5945L65.067 52.1156C64.8685 53.5052 63.6774 54.5474 62.2382 54.5474H58.6154L58.665 39.7087H64.6699C65.7121 39.7087 66.5558 40.6019 66.6054 41.5945Z" fill="#111212"/>
<path d="M62.0894 46.3091C61.4938 45.4158 60.5509 44.8203 59.5087 44.6714H59.3598L59.2109 45.664H59.3598C60.1042 45.7632 60.799 46.2099 61.2457 46.855C61.6427 47.5002 61.7916 48.2942 61.5931 49.0387L61.5434 49.1875L62.4864 49.4853L62.536 49.3364C62.8338 48.3439 62.6849 47.2024 62.0894 46.3091Z" fill="#111212"/>
<path d="M35.8363 50.7756L35.5385 51.0238C35.2407 50.6764 34.8437 50.4282 34.3474 50.3786C33.9008 50.329 33.4045 50.5275 33.1067 50.8749L32.809 50.6268C33.206 50.2297 33.8015 49.9816 34.3474 50.0312C34.943 49.9816 35.4889 50.2794 35.8363 50.7756Z" fill="#1A0D12"/>
<path d="M35.4889 51.2223L35.3896 51.0734C35.1415 50.726 34.7445 50.5275 34.3474 50.5275C33.9504 50.4779 33.5038 50.6764 33.206 50.9741L33.1068 51.0734L32.6105 50.5771L32.7097 50.4779C33.1564 50.0312 33.7519 49.7831 34.3971 49.8327C34.9926 49.8823 35.5881 50.1801 35.9852 50.6764L36.0844 50.8253L35.4889 51.2223ZM34.2482 50.1801C34.2978 50.1801 34.2978 50.1801 34.3474 50.1801C34.7941 50.2297 35.2407 50.4282 35.5385 50.7756L35.5881 50.726C35.2904 50.3786 34.8437 50.1801 34.3474 50.1305C33.9008 50.0809 33.4045 50.2794 33.0571 50.5771L33.1068 50.6268C33.4541 50.329 33.8512 50.1801 34.2482 50.1801Z" fill="#111212"/>
<path d="M8.1936 44.6218L8.04471 44.6714C7.05216 44.8699 6.20849 45.5151 5.71221 46.3588C5.21593 47.2024 5.11668 48.2943 5.41444 49.2372L5.46407 49.3861L6.407 49.0883L6.35737 48.8898C6.10923 48.195 6.20849 47.4506 6.55588 46.855C6.90328 46.2595 7.54844 45.8129 8.24323 45.664L8.39211 45.6144L8.1936 44.6218Z" fill="#111212"/>
<path d="M19.8064 34.4977C18.0198 34.0511 16.531 34.0015 15.2407 34.2992C13.5533 34.6466 12.1141 35.6888 11.4193 37.0288L11.3201 37.1776L12.2134 37.6243L12.3126 37.4754C12.8585 36.3836 14.0496 35.5895 15.4392 35.2422C16.5806 34.994 17.9702 35.0436 19.5583 35.4407L19.7072 35.4903L19.9553 34.4977H19.8064Z" fill="#121313"/>
<path d="M56.5807 37.4754C54.6948 35.2421 51.7668 34.0511 48.8884 34.3488H48.7395L48.8388 35.3414H48.9876C51.5187 35.0932 54.1986 36.1354 55.8363 38.1205L55.9355 38.2694L56.7296 37.6243L56.5807 37.4754Z" fill="#121313"/>
<path d="M37.5235 56.5325C37.5235 56.4828 37.4739 56.4332 37.4243 56.4332C35.3895 56.6317 33.4044 55.8377 32.1141 54.2992C32.0645 54.2496 32.0148 54.2496 31.9652 54.2992L31.4193 54.7955C32.1141 56.9791 34.0992 58.3191 36.7791 57.5747C37.0769 57.4754 37.3746 57.4258 37.6724 57.3265L37.5235 56.5325Z" fill="#1D1215"/>
<path d="M22.8338 15.937C22.7841 16.1355 22.6352 16.2844 22.4864 16.3836C22.3375 16.4829 22.139 16.5325 21.9901 16.6814C21.7916 16.8303 21.5931 17.4754 21.3449 17.525C21.0968 17.5747 21.1464 17.2769 21.196 17.0784C21.3449 16.3836 22.139 15.7384 22.8338 15.937Z" fill="#FCEED3"/>
<path d="M13.9504 30.4283C17.2754 26.061 23.4293 24.0759 28.6898 25.7136C31.4194 26.5573 33.9008 28.2943 36.7792 28.4432C39.608 28.5424 42.1886 27.0536 44.8189 26.0114C47.4492 24.9692 50.7246 24.4729 52.9082 26.3092C54.5459 27.6987 55.4392 30.2794 57.5236 30.4283C59.0124 30.5275 60.3027 29.2372 60.7494 27.8476C61.7916 24.7707 59.8561 21.3464 57.1266 19.5598C54.397 17.7732 51.072 17.2769 47.8462 16.8303C43.1315 16.1851 38.4665 15.4903 33.7519 14.8948C27.1018 14.0511 20.1539 13.2571 13.7022 15.2422C11.8164 15.8377 9.83128 16.7806 8.93798 18.6169C7.99505 20.5523 8.19356 22.8352 8.68984 24.9196C9.03724 26.458 9.58314 27.8973 9.28537 29.4357C9.13649 30.2298 8.49133 31.3712 8.83872 32.2149C9.98016 35.1429 13.0571 31.5697 13.9504 30.4283Z" fill="#F15B10"/>
<path d="M57.1265 19.0635C57.0273 19.0138 56.8784 18.9642 56.7295 19.0138C56.5806 19.0635 56.4814 19.1131 56.4317 19.2124C56.3821 19.3116 56.3325 19.4605 56.3821 19.6094C56.4317 19.7583 56.4814 19.8575 56.5806 19.9071C59.0124 21.4952 60.9975 24.6714 60.0049 27.5995C59.6079 28.7905 58.5657 29.932 57.2754 29.8327C56.134 29.7334 55.3399 28.7409 54.4963 27.6491C54 27.0039 53.5037 26.3588 52.9082 25.8625C50.2779 23.6292 46.4069 24.6714 44.3226 25.4655C43.727 25.7136 43.1315 25.9617 42.5856 26.2099C40.6005 27.0535 38.5657 27.9468 36.4814 27.8972C34.7444 27.8476 33.1067 27.1032 31.4193 26.3588C30.4764 25.9617 29.5335 25.5151 28.5409 25.2173C23.1315 23.53 16.6799 25.5647 13.2556 30.0808C12.2134 31.4704 10.6749 32.86 9.78161 32.7607C9.48384 32.7111 9.2357 32.463 9.03719 31.9667C8.88831 31.5697 9.08682 30.9245 9.28533 30.329C9.38459 30.0312 9.48384 29.7334 9.53347 29.4853C9.5831 29.2372 9.38459 28.9394 9.13645 28.8898C8.88831 28.8401 8.59054 29.0387 8.54091 29.2868C8.49129 29.4853 8.44166 29.7334 8.3424 30.0312C8.09426 30.7756 7.84613 31.6193 8.14389 32.3637C8.49129 33.2074 8.98756 33.7037 9.68235 33.8029C9.78161 33.8029 9.83124 33.8029 9.93049 33.8029C11.6178 33.8029 13.5533 31.4704 14.0992 30.726C17.2754 26.5076 23.2804 24.6218 28.2928 26.2099C29.2357 26.5076 30.1786 26.9047 31.0719 27.3017C32.8089 28.0461 34.5459 28.8401 36.531 28.9394C38.8635 29.0387 40.9975 28.0957 43.0819 27.2024C43.6278 26.9543 44.2233 26.7062 44.8188 26.458C46.7047 25.7136 50.129 24.7707 52.3623 26.6565C52.8585 27.1032 53.3548 27.6987 53.8015 28.2942C54.7444 29.4853 55.6873 30.7756 57.2754 30.8749C59.062 31.0238 60.5012 29.4853 60.9975 27.9468C62.0893 24.4729 59.8561 20.8501 57.1265 19.0635Z" fill="#121313"/>
<path d="M28.8884 16.9791C28.6402 15.788 27.7469 14.7458 26.5559 14.1503C25.5633 13.654 24.3722 13.4555 23.0323 13.5548C21.5931 13.654 20.402 14.0511 19.4591 14.6962C18.268 15.5399 17.5732 16.7806 17.5732 18.0709C17.5732 18.3687 17.7718 18.5672 18.0695 18.5672C18.3673 18.5672 18.5658 18.3687 18.5658 18.0709C18.5658 17.128 19.1613 16.1354 20.0546 15.4903C20.8487 14.9444 21.8909 14.597 23.1316 14.4977C24.3226 14.3985 25.3152 14.597 26.1589 14.994C27.1018 15.4406 27.7966 16.2843 27.9455 17.128C27.9951 17.3761 28.2928 17.5746 28.541 17.525C28.7891 17.525 28.938 17.2272 28.8884 16.9791Z" fill="#121313"/>
<path d="M47.8957 13.7037C46.258 12.5126 44.2729 12.4134 42.8833 12.5126C40.9975 12.6615 39.3597 13.257 38.119 14.2C37.9205 14.3488 37.8709 14.6962 38.0198 14.8947C38.1687 15.0933 38.5161 15.1429 38.7146 14.994C40.1042 13.9022 41.7915 13.6044 42.9329 13.5052C44.124 13.4059 45.861 13.5052 47.2506 14.5474C48.4913 15.4407 49.1364 16.9791 48.8387 18.2694C48.789 18.5176 48.9379 18.8153 49.186 18.865C49.2357 18.865 49.2853 18.865 49.2853 18.865C49.5334 18.865 49.732 18.7161 49.7816 18.468C50.3275 16.7806 49.4838 14.8451 47.8957 13.7037Z" fill="#121313"/>
<path d="M21.5434 51.8675C24.3939 51.8675 26.7047 49.5567 26.7047 46.7062C26.7047 43.8557 24.3939 41.5449 21.5434 41.5449C18.6929 41.5449 16.3821 43.8557 16.3821 46.7062C16.3821 49.5567 18.6929 51.8675 21.5434 51.8675Z" fill="#1C1014"/>
<path d="M46.7543 51.7682C49.4678 51.7682 51.6675 49.5685 51.6675 46.855C51.6675 44.1416 49.4678 41.9419 46.7543 41.9419C44.0409 41.9419 41.8412 44.1416 41.8412 46.855C41.8412 49.5685 44.0409 51.7682 46.7543 51.7682Z" fill="#1C1014"/>
<path d="M17.9207 49.3364C18.0695 49.5846 18.2184 49.8823 18.5162 49.9816C18.5658 49.6838 18.4666 49.4357 18.3673 49.1379C18.1192 48.195 18.0199 47.2521 18.0695 46.3091C18.0695 46.1603 18.0695 46.0114 18.0199 45.8625C17.9207 45.6144 17.6725 45.6144 17.5733 45.8625C17.474 46.1603 17.474 46.458 17.4244 46.7062C17.3747 47.3017 17.4244 47.8972 17.5733 48.4431C17.6725 48.7409 17.7718 49.0387 17.9207 49.3364Z" fill="#FCEED3"/>
<path d="M18.0199 44.2248C18.0199 44.324 18.0695 44.4233 18.1688 44.4233C18.2184 44.4233 18.268 44.3737 18.3177 44.324C18.4169 44.1751 18.8139 43.4307 18.4665 43.4307C18.1192 43.3315 18.0199 43.9766 18.0199 44.2248Z" fill="#FCEED3"/>
<path d="M48.8387 49.932C48.7395 50.0312 48.6898 50.0809 48.6402 50.2297C48.5906 50.329 48.6402 50.4779 48.7395 50.5275C48.8883 50.5771 48.9876 50.4779 49.0868 50.3786C49.9305 49.3861 50.3772 48.0461 50.3275 46.7558C50.3275 46.458 50.2779 45.9121 49.9801 45.7136C49.7816 45.6144 49.8313 45.8129 49.8313 45.9617C49.8809 46.1603 49.8809 46.3588 49.9305 46.5573C49.9801 47.3513 49.8313 48.1454 49.5335 48.8402C49.3846 49.1875 49.1365 49.5846 48.8387 49.932Z" fill="#FCEED3"/>
<path d="M49.7816 43.8278C49.732 43.7781 49.6824 43.7285 49.6328 43.7285C49.5831 43.7285 49.4839 43.7285 49.4839 43.7781C49.3846 43.8774 49.4839 43.9767 49.5335 44.0759C49.5831 44.1752 49.6328 44.2744 49.6824 44.324C49.732 44.3737 49.732 44.4233 49.7816 44.4729C49.8313 44.5226 49.8809 44.5226 49.9305 44.5226C50.129 44.4729 49.8809 43.927 49.7816 43.8278Z" fill="#FCEED3"/>
<path d="M28.9876 38.2198L14.0992 38.1702C12.9082 38.1702 11.9156 39.1628 11.9156 40.4034L11.866 52.9593C11.866 54.2 12.8089 55.2422 14 55.2422L28.8883 55.2918C30.0794 55.2918 31.0719 54.2992 31.0719 53.0585L31.1216 40.5523C31.1216 39.262 30.1786 38.2695 28.9876 38.2198ZM30.0297 40.5027L29.9801 53.0089C29.9801 53.6044 29.5335 54.1007 28.9379 54.1007L14.0496 54.0511C13.5037 54.0511 13.0074 53.5548 13.0074 52.9593L13.057 40.4531C13.057 39.8575 13.5037 39.3613 14.0992 39.3613L28.9876 39.4109C29.5335 39.4109 30.0297 39.9072 30.0297 40.5027Z" fill="#111212"/>
<path d="M54.0992 38.319L39.459 38.2694C38.2679 38.2694 37.325 39.262 37.325 40.5027L37.2754 53.0089C37.2754 54.2496 38.2183 55.2917 39.4094 55.2917L54.0496 55.3414C55.2407 55.3414 56.1836 54.3488 56.1836 53.1081L56.2332 40.6019C56.2332 39.3116 55.2903 38.319 54.0992 38.319ZM55.0918 40.5523L55.0421 53.0585C55.0421 53.654 54.5955 54.1503 54.0496 54.1503L39.4094 54.1007C38.8635 54.1007 38.4168 53.6044 38.4168 53.0089L38.4665 40.5523C38.4665 39.9568 38.9131 39.4605 39.459 39.4605L54.0992 39.5101C54.6451 39.5101 55.0918 39.9568 55.0918 40.5523Z" fill="#111212"/>
</svg>
