<svg width="48" height="61" viewBox="0 0 48 61" fill="none" xmlns="http://www.w3.org/2000/svg">
<path d="M45.9245 35.6523C45.7783 34.1907 45.1206 32.6559 44.0244 31.7059C44.609 30.8289 44.9013 29.8788 45.0475 28.8557C45.2668 26.5902 44.4629 24.2516 43.0743 22.4245C41.6127 20.4513 39.5664 18.8435 37.1547 18.0396C34.8161 17.3088 32.1121 17.3819 29.8465 18.405C27.8002 19.3551 26.1925 21.036 25.0962 22.9361C24.1462 24.6901 23.7077 26.5171 23.5615 28.4172V7.36971C23.5615 4.37336 21.1498 1.96167 18.1535 1.96167C15.1571 1.96167 12.7454 4.37336 12.7454 7.36971V12.997C12.7454 10.0006 10.3337 7.58895 7.3374 7.58895C4.41413 7.58895 2.00244 10.0006 2.00244 12.997V32.8752V37.4793V38.064C2.00244 49.684 11.43 59.0384 22.9769 59.0384C32.4775 59.0384 40.5895 52.6803 43.1474 43.9836C43.5859 43.3259 44.0244 42.522 44.3898 41.7911C45.3398 39.891 46.0706 37.7717 45.9245 35.6523Z" fill="#FCEED3"/>
<path d="M22.9768 60.5C10.626 60.5 0.540771 50.4147 0.540771 37.9909V12.9239C0.540771 9.12363 3.6102 6.0542 7.41044 6.0542C8.87208 6.0542 10.2606 6.49269 11.3569 7.29659C11.3569 3.56943 14.4263 0.5 18.1534 0.5C21.8806 0.5 25.0231 3.56943 25.0231 7.36967V20.4513C26.1924 18.9896 27.654 17.8203 29.2618 17.0895C31.8197 15.9202 34.816 15.7741 37.5932 16.651C40.151 17.4549 42.5627 19.2089 44.2436 21.5475C45.9245 23.8861 46.7284 26.5171 46.5091 29.0018C46.436 29.8788 46.2168 30.6827 45.8514 31.4866C46.7284 32.5828 47.313 34.0445 47.3861 35.5792C47.6053 38.2832 46.5822 40.768 45.7052 42.4488C45.3398 43.2527 44.9013 43.9836 44.4628 44.6413C41.6126 53.9957 32.8428 60.5 22.9768 60.5ZM7.41044 9.05055C5.21799 9.05055 3.46404 10.8045 3.46404 12.997V38.0639C3.46404 48.8069 12.2338 57.5767 22.9768 57.5767C31.6005 57.5767 39.274 51.8033 41.6857 43.5451L41.7588 43.3258L41.905 43.1066C42.2704 42.5219 42.6358 41.8642 43.0012 41.1334C44.0974 38.9409 44.4628 37.26 44.3897 35.7984C44.3167 34.6291 43.8051 33.5329 43.0012 32.8021L42.1242 31.9251L42.7819 30.9019C43.2204 30.2442 43.5128 29.4403 43.5858 28.7095C43.8051 26.9555 43.1474 25.0554 41.905 23.3015C40.5895 21.4744 38.7625 20.0859 36.7162 19.5012C34.6699 18.8435 32.4044 18.9166 30.5042 19.7935C28.8234 20.5244 27.3617 21.986 26.4117 23.74C25.6078 25.1285 25.1693 26.7363 25.0231 28.6364L24.8769 30.4635L22.0998 29.3672V28.3441V7.29659C22.0998 5.10414 20.3459 3.35018 18.1534 3.35018C15.961 3.35018 14.207 5.10414 14.207 7.29659V12.9239H11.2838C11.3568 10.8045 9.52981 9.05055 7.41044 9.05055Z" fill="black"/>
<path d="M12.8184 31.3405C12.0145 31.3405 11.3568 30.6827 11.3568 29.8788V9.19674C11.3568 8.39284 12.0145 7.73511 12.8184 7.73511C13.6223 7.73511 14.2801 8.39284 14.2801 9.19674V29.8788C14.2801 30.6827 13.6223 31.3405 12.8184 31.3405Z" fill="black"/>
<path d="M45.8514 37.1139C46.2899 34.9214 45.1206 32.5828 43.2204 31.5597C41.5396 30.6827 39.274 30.902 37.7393 31.9982C36.1315 33.1675 35.5469 36.0177 35.5469 37.8447" fill="#FCEED3"/>
<path d="M35.5468 39.3794C34.7429 39.3794 34.0852 38.7217 34.0852 37.9178C34.0852 36.0907 34.6699 32.5097 36.8623 30.8289C38.8355 29.3672 41.6857 29.0749 43.8781 30.2442C46.436 31.5597 47.8976 34.556 47.313 37.4062C47.1668 38.2101 46.3629 38.7217 45.559 38.5755C44.7551 38.4294 44.2435 37.6255 44.3897 36.8216C44.682 35.2869 43.8781 33.606 42.4896 32.8752C41.3203 32.2905 39.7125 32.4367 38.6163 33.2406C37.5931 33.9714 37.0085 36.2369 37.0085 37.9178C37.0085 38.7217 36.3507 39.3794 35.5468 39.3794Z" fill="black"/>
<path d="M31.0157 26.444C31.0888 29.3672 33.5736 32.0713 36.4969 32.3636L31.0157 26.444Z" fill="#EEEDF2"/>
<path d="M36.57 33.8252C36.4969 33.8252 36.4969 33.8252 36.4238 33.8252C32.7697 33.4598 29.7003 30.1711 29.6272 26.4439C29.6272 25.64 30.2849 24.9823 31.0888 24.9823C31.8927 24.9823 32.5505 25.64 32.5505 26.4439C32.6235 28.6364 34.5237 30.7557 36.7161 30.9019C37.52 30.975 38.1047 31.7058 38.0316 32.5097C37.8854 33.2405 37.3008 33.8252 36.57 33.8252Z" fill="black"/>
</svg>
