<svg width="40" height="36" viewBox="0 0 40 36" fill="none" xmlns="http://www.w3.org/2000/svg">
<g id="Frame" clip-path="url(#clip0_1292_13673)">
<g id="Group">
<g id="Group_2">
<g id="Group_3">
<g id="Group_4">
<g id="Group_5">
<g id="Group_6">
<path id="Vector" d="M20.0252 1.80647C21.792 0.395194 24.2951 0.0238044 26.381 0.816101C28.4669 1.6084 30.1111 3.58914 30.5037 5.81748V4.33192C32.246 4.08433 34.062 4.87662 35.0927 6.31266C36.0988 7.7487 36.246 9.77896 35.4362 11.3388C36.6387 11.834 37.743 12.651 38.4301 13.7652C39.1172 14.8794 39.3871 16.2907 38.97 17.5286C38.5528 18.7666 37.4239 19.7817 36.1479 19.9303L35.7062 18.0486C36.3196 19.856 35.8288 21.9853 34.5037 23.347C33.154 24.6841 31.0436 25.1792 29.2522 24.5603L29.8411 23.0004C29.2031 24.2384 28.3933 25.4268 27.3135 26.3182C26.2338 27.1847 24.835 27.7542 23.4607 27.5809C22.0865 27.4076 20.7614 26.442 20.3933 25.105C19.0436 26.1944 17.5957 27.3085 15.9025 27.5561C13.9147 27.8532 11.8043 26.7886 10.8473 25.0059L11.6816 23.7432C10.3565 24.5355 8.85952 25.3278 7.33805 25.0059C6.20922 24.7583 5.25216 23.8918 4.76136 22.8023C4.27056 21.7129 4.24602 20.4997 4.46688 19.336L4.17241 19.9798C2.35645 19.6332 0.884062 17.9 0.810442 16.0183C0.736822 14.1366 2.11106 12.3044 3.90247 11.834C3.43621 9.878 4.02517 7.69918 5.37486 6.23838C6.72455 4.77759 8.83498 4.05957 10.7982 4.38144L9.25216 3.98529C10.5282 1.97979 12.6877 0.469472 15.0681 0.345675C17.4485 0.221879 19.8779 1.58364 20.7614 3.78722" fill="#F15B10"/>
</g>
</g>
</g>
<g id="Group_7">
<g id="Group_8">
<g id="Group_9">
<path id="Vector_2" d="M30.896 24.9801C30.3316 24.9801 29.7427 24.8811 29.2028 24.683C29.1046 24.6582 29.031 24.5344 29.0801 24.4354C29.1046 24.3364 29.2273 24.2621 29.3255 24.3116C31.0433 24.9306 33.0801 24.4602 34.3561 23.1479C35.6568 21.8604 36.123 19.8054 35.5095 18.0723C35.485 17.9732 35.5341 17.8494 35.6322 17.8247C35.7304 17.7999 35.8531 17.8494 35.8776 17.9485C36.5157 19.8302 36.0249 22.0337 34.6261 23.445C33.669 24.4354 32.2703 24.9801 30.896 24.9801Z" fill="black"/>
<path id="Vector_3" d="M30.8961 25.0801C30.3071 25.0801 29.7181 24.981 29.1783 24.783C29.031 24.7334 28.9329 24.5601 29.0065 24.3868C29.0556 24.2383 29.2273 24.1392 29.3991 24.2135C31.0924 24.8077 33.0801 24.3621 34.3316 23.0746C35.6077 21.8119 36.0494 19.8063 35.4605 18.098C35.4114 17.9494 35.485 17.7761 35.6568 17.7018C35.7304 17.6771 35.804 17.6771 35.8776 17.7266C35.9513 17.7513 36.0003 17.8256 36.0249 17.8999C36.6875 19.8064 36.1721 22.0594 34.7488 23.4955C33.7181 24.5106 32.3194 25.0801 30.8961 25.0801ZM29.2519 24.4116C29.2028 24.4116 29.1783 24.4363 29.1537 24.4859C29.1292 24.5354 29.1537 24.6097 29.2273 24.6097C29.7427 24.8077 30.3071 24.882 30.8961 24.882C32.2948 24.882 33.62 24.3373 34.577 23.3717C35.9513 21.9852 36.4421 19.8311 35.804 17.9742C35.804 17.9494 35.7795 17.9246 35.7549 17.9246C35.7304 17.9246 35.7059 17.8999 35.6813 17.9246C35.6322 17.9494 35.6077 17.9989 35.6077 18.0484C36.2212 19.8311 35.7304 21.9109 34.4298 23.2231C33.1046 24.5354 31.0433 25.0306 29.301 24.4116C29.2764 24.4116 29.2764 24.4116 29.2519 24.4116Z" fill="#121313"/>
</g>
</g>
</g>
<path id="Vector_4" d="M11.9511 23.5213C11.902 23.447 11.853 23.3975 11.7793 23.3728C11.7057 23.348 11.6321 23.3728 11.5585 23.3975C10.1597 24.2146 8.81002 24.9326 7.43579 24.6355C6.45419 24.4374 5.54622 23.6451 5.07996 22.6052C4.54008 21.4168 4.63824 20.1788 4.78548 19.337C4.81002 19.1637 4.71186 19.0151 4.54008 18.9904C4.36831 18.9656 4.22107 19.0646 4.19653 19.238C4.17199 19.3618 4.14745 19.4856 4.12291 19.6341C2.47873 19.2627 1.17812 17.6781 1.12904 15.9945C1.07996 14.2613 2.3315 12.553 4.00021 12.1073C4.14745 12.0578 4.24561 11.9092 4.22107 11.7359C3.77935 9.87895 4.34377 7.79917 5.61984 6.41265C6.89591 5.02613 8.93272 4.33287 10.7732 4.65474C10.945 4.6795 11.0922 4.58046 11.1168 4.40715C11.1413 4.23383 11.0432 4.08528 10.8714 4.06052C8.81002 3.71389 6.62597 4.45667 5.17812 5.99174C3.80389 7.45254 3.19039 9.6066 3.55849 11.5873C1.76708 12.2063 0.466465 14.088 0.540085 15.9945C0.613704 17.9752 2.15972 19.8322 4.07383 20.2283C4.02475 21.0206 4.12291 21.9615 4.51554 22.8776C5.05542 24.0908 6.13518 25.0069 7.28855 25.2545C7.53395 25.304 7.80389 25.3287 8.04929 25.3287C9.3499 25.3287 10.626 24.6355 11.8284 23.9422C11.902 23.8927 11.9511 23.8432 11.9757 23.7689C12.0247 23.6699 12.0002 23.5956 11.9511 23.5213Z" fill="#121313"/>
<g id="Group_10">
<g id="Group_11">
<g id="Group_12">
<path id="Vector_5" d="M23.9755 27.7546C23.8038 27.7546 23.632 27.7546 23.4602 27.7298C22.0369 27.5565 20.7854 26.6156 20.3191 25.3777C19.1166 26.3433 17.6443 27.4327 15.951 27.705C13.8897 28.0022 11.6811 26.888 10.6749 25.031C10.6259 24.932 10.6504 24.8082 10.7485 24.7587C10.8467 24.7092 10.9694 24.7339 11.0185 24.833C11.9265 26.5414 13.9633 27.5813 15.8774 27.2841C17.5706 27.0365 19.0185 25.8729 20.27 24.8577C20.3191 24.8082 20.3927 24.8082 20.4663 24.833C20.54 24.8577 20.589 24.9072 20.589 24.9815C20.9081 26.1947 22.1105 27.1603 23.4847 27.3089C24.7117 27.4575 26.0614 27.0118 27.1903 26.0957C28.1228 25.3529 28.9081 24.313 29.6688 22.8522C29.7179 22.7532 29.8406 22.7037 29.9387 22.778C30.0369 22.8275 30.086 22.9513 30.0124 23.0503C29.2271 24.5606 28.4173 25.6253 27.4357 26.4176C26.405 27.2841 25.1535 27.7546 23.9755 27.7546Z" fill="black"/>
</g>
</g>
</g>
<path id="Vector_6" d="M38.6992 13.5677C38.0612 12.5773 37.0551 11.7107 35.8526 11.1413C36.5643 9.50717 36.3679 7.55119 35.3373 6.09039C34.2575 4.55531 32.3189 3.7135 30.4784 3.96109C30.4048 3.96109 30.3557 4.01061 30.3066 4.06013C29.5459 2.47553 28.1716 1.13853 26.5029 0.51955C24.2943 -0.322265 21.6931 0.0986427 19.8526 1.55944C19.8035 1.60896 19.7545 1.68324 19.7545 1.73276C18.552 0.593828 16.8342 -0.0994316 15.0673 -0.000394482C12.7115 0.148161 10.4048 1.5842 9.03053 3.78778C8.98145 3.86205 8.98145 3.93633 8.98145 4.01061C9.00599 4.08489 9.05506 4.15917 9.10414 4.20868C9.15322 4.23344 9.2023 4.2582 9.25138 4.2582C9.34954 4.2582 9.4477 4.20868 9.49678 4.10965C10.7974 2.07939 12.9324 0.742384 15.0919 0.618588C17.4232 0.470032 19.6808 1.85655 20.4906 3.86205C20.5152 3.93633 20.5888 3.98585 20.6624 4.03537C20.736 4.06013 20.8097 4.06013 20.8833 4.03537C21.0305 3.96109 21.1041 3.78778 21.0551 3.63922C20.8342 3.06976 20.4906 2.54981 20.0735 2.07939C20.1226 2.07939 20.1716 2.05463 20.2207 2.02987C21.914 0.692866 24.2943 0.321476 26.3066 1.08901C28.3189 1.85655 29.8649 3.7135 30.233 5.8428C30.2575 5.99135 30.3802 6.09039 30.5275 6.09039C30.552 6.09039 30.552 6.09039 30.5765 6.09039C30.7483 6.06563 30.8465 5.89232 30.8219 5.74376C30.7483 5.34761 30.6502 4.97622 30.5029 4.60483C30.5275 4.60483 30.5275 4.60483 30.552 4.60483C32.1716 4.382 33.8894 5.12478 34.8465 6.46178C35.8035 7.79878 35.9262 9.70525 35.1655 11.166C35.1164 11.2403 35.1164 11.3394 35.141 11.4136C35.1655 11.4879 35.2391 11.5622 35.3127 11.587C36.5397 12.0821 37.5459 12.924 38.1594 13.8896C38.8465 14.979 39.0428 16.2912 38.6747 17.4054C38.2821 18.5691 37.2268 19.4852 36.098 19.5842C35.9262 19.609 35.8035 19.7575 35.8281 19.9061C35.8526 20.0546 35.9753 20.1784 36.1225 20.1784H36.1471C37.5213 20.0299 38.7729 18.99 39.2391 17.5787C39.6808 16.3407 39.46 14.8304 38.6992 13.5677Z" fill="#121313"/>
<g id="Group_13">
<g id="Group_14">
<g id="Group_15">
<path id="Vector_7" d="M30.7484 19.4843C30.7238 19.4843 30.6993 19.4843 30.6748 19.4843C30.0858 19.2863 29.6195 18.8158 29.4723 18.1969C29.3496 17.7512 29.3987 17.2808 29.6195 16.8846C29.1287 16.8846 28.6379 16.7113 28.2453 16.3894C27.7545 15.9438 27.5091 15.2505 27.6073 14.6068C27.7054 13.864 28.2453 13.146 29.1778 12.527C29.276 12.4527 29.3987 12.5022 29.4478 12.5765C29.5214 12.6755 29.4723 12.7993 29.3987 12.8488C28.5643 13.4183 28.0981 14.0125 27.9999 14.6563C27.9263 15.1762 28.1226 15.7457 28.5152 16.0923C28.9079 16.4389 29.4723 16.5875 29.9876 16.4389C30.0858 16.4142 30.1594 16.4637 30.2085 16.538C30.2576 16.6123 30.2576 16.7113 30.184 16.7856C29.8649 17.1322 29.7422 17.6769 29.8649 18.1226C29.9876 18.593 30.3557 18.9644 30.7975 19.1129C30.8956 19.1377 30.9692 19.2615 30.9202 19.3605C30.8956 19.4348 30.822 19.4843 30.7484 19.4843Z" fill="black"/>
</g>
</g>
</g>
<g id="Group_16">
<g id="Group_17">
<g id="Group_18">
<path id="Vector_8" d="M9.20279 19.3862C9.17825 19.3862 9.17825 19.3862 9.15371 19.3862C9.05555 19.3614 8.98193 19.2624 9.00647 19.1386C9.17825 18.3958 9.32548 17.6778 9.35002 16.9598C9.35002 16.4151 9.27641 15.598 8.83469 14.9295C8.31935 14.162 7.36229 13.7163 6.45432 13.7906C6.35616 13.7906 6.28254 13.7411 6.23346 13.642C6.20892 13.543 6.23346 13.4439 6.33162 13.3944C6.67518 13.1964 6.92058 12.8002 6.94512 12.4041C6.96966 12.0079 6.77334 11.587 6.45432 11.3642C6.35616 11.2899 6.35616 11.1661 6.40524 11.0918C6.47886 10.9928 6.60156 10.9928 6.67518 11.0423C7.1169 11.3642 7.36229 11.9089 7.33775 12.4536C7.31322 12.8002 7.19052 13.1221 6.96966 13.3944C7.85309 13.4935 8.66291 13.9639 9.15371 14.7067C9.54634 15.3009 9.7672 16.0932 9.74266 16.9598C9.74266 17.7273 9.57088 18.4701 9.3991 19.2129C9.37456 19.3119 9.30095 19.3862 9.20279 19.3862Z" fill="black"/>
</g>
</g>
</g>
<g id="Group_19">
<g id="Group_20">
<g id="Group_21">
<path id="Vector_9" d="M15.485 23.0992C15.4604 23.0992 15.4359 23.0992 15.4114 23.0744C15.3132 23.0249 15.2641 22.9011 15.3132 22.8021C15.7304 21.8612 16.6629 21.2175 17.669 21.1432C18.6015 21.0689 19.5341 21.4898 20.0985 22.2326C21.2273 21.267 22.9451 21.0194 24.2703 21.6879C24.3684 21.7374 24.4175 21.8612 24.3684 21.9603C24.3193 22.0593 24.1966 22.1088 24.0985 22.0593C22.8469 21.4403 21.2028 21.7127 20.1966 22.703C20.1476 22.7525 20.0985 22.7773 20.0249 22.7526C19.9758 22.7526 19.9022 22.703 19.8776 22.6535C19.4114 21.9355 18.5279 21.4898 17.669 21.5641C16.8101 21.6384 16.0003 22.2078 15.6568 22.9754C15.6322 23.0497 15.5586 23.0992 15.485 23.0992Z" fill="black"/>
</g>
</g>
</g>
</g>
<g id="Group_22">
<g id="Group_23">
<path id="Vector_10" d="M30.9698 35.7027H9.03116C7.14159 35.7027 5.62012 34.1676 5.62012 32.2611V15.1525C5.62012 13.246 7.14159 11.7109 9.03116 11.7109H30.9453C32.8348 11.7109 34.3563 13.246 34.3563 15.1525V32.2611C34.3809 34.1676 32.8594 35.7027 30.9698 35.7027Z" fill="#FBEED4"/>
</g>
</g>
<path id="Vector_11" d="M31.1166 11.4141H8.88348C6.92029 11.4141 5.3252 13.0234 5.3252 15.0042V32.4347C5.3252 34.4154 6.92029 36.0248 8.88348 36.0248H31.1411C33.1043 36.0248 34.6994 34.4154 34.6994 32.4347V15.0042C34.6749 13.0234 33.0798 11.4141 31.1166 11.4141ZM34.0859 15.0042V32.4347C34.0859 34.0688 32.7608 35.4058 31.1411 35.4058H8.88348C7.26385 35.4058 5.93869 34.0688 5.93869 32.4347V15.0042C5.93869 13.37 7.26385 12.033 8.88348 12.033H31.1411C32.7608 12.0083 34.0859 13.3453 34.0859 15.0042Z" fill="#111212"/>
<g id="Group_24">
<g id="Group_25">
<path id="Vector_12" d="M1.74277 22.9766H5.62008V32.4841H3.16609C2.18449 32.4841 1.3256 31.7413 1.2029 30.751L0.294922 24.4374C0.294922 23.6451 0.957498 22.9766 1.74277 22.9766Z" fill="#FBEED4"/>
</g>
</g>
<path id="Vector_13" d="M1.74233 22.6797C0.785276 22.6797 0 23.472 0 24.4376L0.883436 30.8007C1.03067 31.9397 2.01227 32.7815 3.1411 32.7815H5.91411V22.6797H1.74233ZM1.74233 23.2739H5.32515V32.1873H3.16564C2.33129 32.1873 1.61963 31.5683 1.49693 30.7265L0.588957 24.4128C0.613497 23.7939 1.12883 23.2739 1.74233 23.2739Z" fill="#111212"/>
<g id="Group_26">
<g id="Group_27">
<path id="Vector_14" d="M38.2582 22.9766H34.3809V32.4841H36.8594C37.841 32.4841 38.6999 31.7413 38.8226 30.751L39.706 24.4126C39.706 23.6451 39.068 22.9766 38.2582 22.9766Z" fill="#FBEED4"/>
</g>
</g>
<path id="Vector_15" d="M38.2577 22.6797H34.0859V32.8062H36.8589C37.9878 32.8062 38.9694 31.9397 39.1166 30.8255L40 24.4871V24.4624C40 23.472 39.2148 22.6797 38.2577 22.6797ZM39.4111 24.4128L38.5277 30.7265C38.405 31.5683 37.6933 32.1873 36.8589 32.1873H34.6994V23.2739H38.2823C38.8958 23.2739 39.3866 23.7939 39.4111 24.4128Z" fill="#111212"/>
<path id="Vector_16" d="M36.7608 27.2599C36.4172 26.74 35.8282 26.3686 35.2147 26.2943L35.1166 26.2695L35.043 26.8638L35.1411 26.8885C35.5828 26.938 36.0246 27.2104 36.27 27.6065C36.5154 28.0027 36.589 28.4731 36.4663 28.9188L36.4417 29.0178L37.0062 29.1911L37.0307 29.0921C37.2025 28.4731 37.1043 27.8046 36.7608 27.2599Z" fill="#111212"/>
<g id="Group_28">
<g id="Group_29">
<g id="Group_30">
<path id="Vector_17" d="M21.1049 29.9592L20.9331 30.1077C20.7613 29.8849 20.5159 29.7363 20.2215 29.7363C19.9515 29.7116 19.6816 29.8354 19.4853 30.0335L19.3135 29.8849C19.5589 29.6373 19.9024 29.5135 20.2215 29.5383C20.5896 29.5135 20.9086 29.6868 21.1049 29.9592Z" fill="#1A0D12"/>
<path id="Vector_18" d="M20.9082 30.2306L20.8591 30.1563C20.7119 29.9582 20.4665 29.8344 20.2211 29.8097C19.9757 29.7849 19.7303 29.8839 19.5585 30.0573L19.4849 30.1315L19.1904 29.8344L19.2641 29.7601C19.5094 29.4878 19.9021 29.3392 20.2702 29.364C20.6383 29.3888 20.9818 29.5868 21.2027 29.8839L21.2518 29.9582L20.9082 30.2306ZM20.172 29.6116C20.1966 29.6116 20.2211 29.6116 20.2456 29.6116C20.5156 29.6364 20.761 29.7601 20.9573 29.9582L20.9818 29.9335C20.7855 29.7354 20.5156 29.5868 20.2456 29.5868C19.9757 29.5621 19.6812 29.6611 19.4849 29.8592L19.5094 29.8839C19.6812 29.7106 19.9266 29.6116 20.172 29.6116Z" fill="#111212"/>
</g>
</g>
</g>
<path id="Vector_19" d="M4.63766 26.3184L4.5395 26.3431C3.95054 26.4669 3.4352 26.8383 3.14072 27.3582C2.84624 27.8782 2.77262 28.5219 2.96894 29.0914L2.99348 29.1904L3.5579 28.9924L3.53336 28.8933C3.41066 28.4972 3.4352 28.0267 3.65606 27.6554C3.87692 27.284 4.24502 27.0116 4.66219 26.9373L4.76035 26.9126L4.63766 26.3184Z" fill="#111212"/>
<path id="Vector_20" d="M11.558 20.2284C10.5028 19.9808 9.61937 19.9312 8.83409 20.1046C7.82796 20.3274 6.96906 20.9464 6.57642 21.7634L6.52734 21.8625L7.06722 22.1348L7.1163 22.0358C7.43532 21.392 8.14698 20.8969 8.98133 20.6988C9.66845 20.5502 10.4783 20.575 11.4353 20.8226L11.5335 20.8473L11.6807 20.2531L11.558 20.2284Z" fill="#121313"/>
<path id="Vector_21" d="M33.4479 21.9363C32.3436 20.5993 30.5767 19.8813 28.8589 20.0794H28.7607L28.8344 20.6736H28.9325C30.4295 20.5003 32.0245 21.144 33.0061 22.3325L33.0798 22.4068L33.546 22.0106L33.4479 21.9363Z" fill="#121313"/>
<path id="Vector_22" d="M22.1351 33.4493C22.1351 33.4246 22.1105 33.3998 22.0615 33.3998C20.859 33.5236 19.6811 33.0532 18.8958 32.1123C18.8713 32.0876 18.8222 32.0876 18.7977 32.1123L18.4541 32.4094C18.8713 33.7217 20.0492 34.5387 21.6443 34.0683C21.8161 34.0188 21.9878 33.9693 22.1596 33.9197L22.1351 33.4493Z" fill="#1D1215"/>
<g id="Group_31">
<g id="Group_32">
<g id="Group_33">
<path id="Vector_23" d="M13.325 9.06116C13.3004 9.18495 13.2023 9.25923 13.1041 9.30875C13.006 9.35827 12.8833 9.40779 12.8096 9.48206C12.6869 9.5811 12.5642 9.95249 12.417 9.97725C12.2698 10.002 12.3188 9.82869 12.3434 9.7049C12.4415 9.33351 12.9078 8.96212 13.325 9.06116Z" fill="#FCEED3"/>
</g>
</g>
</g>
<g id="Group_34">
<g id="Group_35">
<g id="Group_36">
<path id="Vector_24" d="M8.0244 17.8007C9.98759 15.1514 13.6686 13.963 16.7851 14.9533C18.4048 15.4733 19.9017 16.5132 21.595 16.5627C23.2882 16.6122 24.8342 15.7209 26.3802 15.0771C27.9508 14.4582 29.8894 14.1363 31.19 15.2505C32.1471 16.0675 32.687 17.6273 33.9631 17.7016C34.8465 17.7759 35.6072 16.9836 35.8772 16.1418C36.4907 14.2848 35.3373 12.2298 33.7177 11.1652C32.098 10.1005 30.1103 9.80341 28.1962 9.55582C25.3986 9.15967 22.6011 8.78828 19.8035 8.41689C15.8281 7.89695 11.6808 7.45128 7.85262 8.66449C6.72379 9.03588 5.54587 9.60534 5.03054 10.6947C4.46612 11.8584 4.58882 13.2202 4.8833 14.4829C5.10416 15.399 5.42318 16.2903 5.2514 17.2064C5.15324 17.6769 4.78514 18.3949 4.98146 18.8653C5.69311 20.6232 7.5336 18.4692 8.0244 17.8007Z" fill="#F15B10"/>
</g>
</g>
</g>
<path id="Vector_25" d="M33.7179 10.8933C33.6443 10.8438 33.5707 10.8438 33.4971 10.8438C33.4234 10.8685 33.3498 10.918 33.3007 10.9675C33.2517 11.0418 33.2517 11.1161 33.2517 11.1904C33.2762 11.2647 33.3253 11.3389 33.3744 11.3885C34.8222 12.3293 36.0001 14.2358 35.4112 16.0184C35.1658 16.7365 34.5523 17.4297 33.7915 17.3802C33.1044 17.3307 32.6382 16.7117 32.1474 16.068C31.8529 15.6966 31.5584 15.3004 31.2148 15.0033C29.6443 13.6663 27.3375 14.2853 26.1106 14.7805C25.767 14.929 25.4234 15.0776 25.0799 15.2261C23.902 15.7461 22.6995 16.2908 21.448 16.2413C20.4173 16.1918 19.4357 15.7708 18.4296 15.3252C17.8652 15.0776 17.3007 14.83 16.7118 14.6319C13.4971 13.592 9.66883 14.83 7.63202 17.5535C7.01853 18.3706 6.11055 19.2371 5.57067 19.1629C5.37435 19.1381 5.25165 18.9896 5.12896 18.6924C5.0308 18.4449 5.1535 18.0487 5.27619 17.7021C5.32527 17.5288 5.37435 17.3554 5.42343 17.2069C5.44797 17.0336 5.34981 16.885 5.17804 16.8603C5.00626 16.8355 4.85902 16.9345 4.83448 17.1078C4.80994 17.2316 4.76086 17.3802 4.71178 17.5535C4.56454 17.9992 4.4173 18.4944 4.58908 18.94C4.7854 19.46 5.10442 19.7323 5.52159 19.7819C5.57067 19.7819 5.61975 19.7819 5.66883 19.7819C6.67497 19.7819 7.82834 18.3706 8.14736 17.9249C10.0369 15.3995 13.5952 14.2358 16.5891 15.1766C17.1535 15.3499 17.7179 15.5975 18.2578 15.8451C19.2885 16.2908 20.3437 16.7612 21.4971 16.8107C22.8713 16.8603 24.1474 16.2908 25.3989 15.7461C25.7425 15.5975 26.086 15.449 26.4296 15.3004C27.5339 14.8548 29.5952 14.2853 30.9204 15.4242C31.2394 15.6966 31.5093 16.0432 31.7793 16.4146C32.3191 17.1326 32.9081 17.9001 33.8652 17.9744C34.9204 18.0487 35.7793 17.1326 36.0983 16.1918C36.6872 14.1367 35.3621 11.9579 33.7179 10.8933Z" fill="#121313"/>
<path id="Vector_26" d="M16.9078 9.67959C16.7605 8.96157 16.2452 8.34259 15.509 7.9712C14.92 7.67409 14.2084 7.55029 13.3986 7.62457C12.5397 7.67409 11.828 7.92168 11.2636 8.31783C10.5765 8.81302 10.1348 9.58056 10.1348 10.3481C10.1348 10.5214 10.2575 10.6452 10.4292 10.6452C10.601 10.6452 10.7237 10.5214 10.7237 10.3481C10.7237 9.77863 11.0673 9.18441 11.6072 8.81302C12.0734 8.46639 12.6869 8.26831 13.4476 8.2188C14.1593 8.16928 14.7483 8.26831 15.2391 8.51591C15.8035 8.78826 16.1961 9.28344 16.3188 9.80339C16.3434 9.9767 16.5151 10.0757 16.6624 10.0262C16.8587 10.0015 16.9569 9.82815 16.9078 9.67959Z" fill="#121313"/>
<path id="Vector_27" d="M28.2449 7.69903C27.2633 7.00577 26.0854 6.93149 25.2756 6.98101C24.1713 7.05529 23.1897 7.42668 22.429 8.0209C22.3063 8.11994 22.2817 8.31801 22.3799 8.44181C22.4781 8.56561 22.6744 8.59036 22.7971 8.49133C23.6069 7.84759 24.613 7.64951 25.3002 7.57523C26.0118 7.52572 27.067 7.57523 27.8768 8.19422C28.613 8.73892 29.0057 9.65501 28.8339 10.4226C28.7848 10.5959 28.9075 10.7444 29.0548 10.7939C29.0793 10.7939 29.1038 10.7939 29.1284 10.7939C29.2756 10.7939 29.3983 10.6949 29.4229 10.5711C29.6682 9.53122 29.1775 8.36753 28.2449 7.69903Z" fill="#121313"/>
<g id="Group_37">
<g id="Group_38">
<path id="Vector_28" d="M12.589 30.6508C14.2831 30.6508 15.6565 29.2651 15.6565 27.5558C15.6565 25.8466 14.2831 24.4609 12.589 24.4609C10.8948 24.4609 9.52148 25.8466 9.52148 27.5558C9.52148 29.2651 10.8948 30.6508 12.589 30.6508Z" fill="#1C1014"/>
</g>
</g>
<g id="Group_39">
<g id="Group_40">
<path id="Vector_29" d="M27.6077 30.5529C29.2206 30.5529 30.528 29.2337 30.528 27.6065C30.528 25.9793 29.2206 24.6602 27.6077 24.6602C25.9949 24.6602 24.6875 25.9793 24.6875 27.6065C24.6875 29.2337 25.9949 30.5529 27.6077 30.5529Z" fill="#1C1014"/>
</g>
</g>
<g id="Group_41">
<g id="Group_42">
<g id="Group_43">
<path id="Vector_30" d="M10.4537 29.1421C10.5273 29.2906 10.6255 29.4639 10.7973 29.5382C10.8218 29.3649 10.7482 29.1916 10.7237 29.043C10.5764 28.4983 10.5028 27.9041 10.5273 27.3346C10.5273 27.2356 10.5273 27.1366 10.5028 27.0623C10.4292 26.9137 10.2819 26.889 10.2329 27.0623C10.1838 27.2356 10.1592 27.4089 10.1592 27.5822C10.1347 27.9289 10.1592 28.2755 10.2574 28.6221C10.2819 28.7954 10.3556 28.9687 10.4537 29.1421Z" fill="#FCEED3"/>
</g>
</g>
</g>
<g id="Group_44">
<g id="Group_45">
<g id="Group_46">
<path id="Vector_31" d="M10.5026 26.0707C10.5026 26.1202 10.5271 26.1698 10.5762 26.1698C10.6253 26.1698 10.6498 26.1202 10.6498 26.0955C10.6989 25.9964 10.9443 25.5508 10.748 25.5508C10.5517 25.5508 10.4781 25.9222 10.5026 26.0707Z" fill="#FCEED3"/>
</g>
</g>
</g>
<g id="Group_47">
<g id="Group_48">
<g id="Group_49">
<path id="Vector_32" d="M28.8589 29.4377C28.8098 29.4873 28.7607 29.5368 28.7607 29.6111C28.7607 29.6853 28.7607 29.7596 28.8344 29.7844C28.908 29.8091 28.9816 29.7349 29.0307 29.6853C29.5215 29.0664 29.7914 28.2741 29.7669 27.4818C29.7669 27.3084 29.7423 26.9618 29.5706 26.8628C29.4724 26.8133 29.4724 26.9123 29.4969 27.0113C29.5215 27.1351 29.546 27.2589 29.546 27.3827C29.5706 27.8532 29.4969 28.3236 29.3006 28.7692C29.1779 29.0168 29.0307 29.2397 28.8589 29.4377Z" fill="#FCEED3"/>
</g>
</g>
</g>
<g id="Group_50">
<g id="Group_51">
<g id="Group_52">
<path id="Vector_33" d="M29.3989 25.7741C29.3743 25.7494 29.3498 25.7246 29.3007 25.7246C29.2762 25.7246 29.2271 25.7246 29.2025 25.7494C29.1535 25.7989 29.178 25.8732 29.2271 25.9474C29.2516 25.997 29.2762 26.0465 29.3252 26.1208C29.3498 26.1455 29.3498 26.1703 29.3743 26.195C29.3989 26.2198 29.4234 26.2198 29.4725 26.2198C29.6197 26.1455 29.4479 25.8484 29.3989 25.7741Z" fill="#FCEED3"/>
</g>
</g>
</g>
<path id="Vector_34" d="M17.0061 22.457H8.14717C7.43551 22.457 6.87109 23.076 6.87109 23.8188V31.3209C6.87109 32.0636 7.46005 32.6826 8.14717 32.6826H17.0306C17.7423 32.6826 18.3067 32.0636 18.3067 31.3209V23.8188C18.3067 23.076 17.7177 22.457 17.0061 22.457ZM17.6196 23.8188V31.3209C17.6196 31.6922 17.3496 31.9646 17.0061 31.9646H8.14717C7.80361 31.9646 7.53367 31.6675 7.53367 31.3209V23.8188C7.53367 23.4474 7.80361 23.1751 8.14717 23.1751H17.0306C17.3496 23.1751 17.6196 23.4474 17.6196 23.8188Z" fill="#111212"/>
<path id="Vector_35" d="M31.8285 22.457H23.1169C22.4298 22.457 21.8408 23.076 21.8408 23.8188V31.3209C21.8408 32.0636 22.4052 32.6826 23.1169 32.6826H31.8285C32.5157 32.6826 33.1046 32.0636 33.1046 31.3209V23.8188C33.0801 23.076 32.5157 22.457 31.8285 22.457ZM32.4175 23.8188V31.3209C32.4175 31.6922 32.1476 31.9646 31.8285 31.9646H23.1169C22.7979 31.9646 22.5279 31.6675 22.5279 31.3209V23.8188C22.5279 23.4474 22.7979 23.1751 23.1169 23.1751H31.8285C32.1476 23.1751 32.4175 23.4474 32.4175 23.8188Z" fill="#111212"/>
</g>
</g>
</g>
<defs>
<clipPath id="clip0_1292_13673">
<rect width="40" height="36" fill="white"/>
</clipPath>
</defs>
</svg>
