<svg width="64" height="65" viewBox="0 0 64 65" fill="none" xmlns="http://www.w3.org/2000/svg">
<path opacity="0.2" d="M58 32.8501C58 35.9776 53.545 38.3376 52.33 41.2726C51.16 44.1026 52.685 48.9326 50.385 51.2351C48.085 53.5376 43.2525 52.0101 40.4225 53.1801C37.5 54.3951 35.125 58.8501 32 58.8501C28.875 58.8501 26.5 54.3951 23.5775 53.1801C20.7475 52.0101 15.915 53.5351 13.615 51.2351C11.315 48.9351 12.84 44.1026 11.67 41.2726C10.455 38.3501 6 35.9751 6 32.8501C6 29.7251 10.455 27.3501 11.67 24.4276C12.84 21.6001 11.315 16.7651 13.615 14.4651C15.915 12.1651 20.75 13.6901 23.5775 12.5201C26.5125 11.3051 28.875 6.8501 32 6.8501C35.125 6.8501 37.5 11.3051 40.4225 12.5201C43.2525 13.6901 48.085 12.1651 50.385 14.4651C52.685 16.7651 51.16 21.5976 52.33 24.4276C53.545 27.3626 58 29.7251 58 32.8501Z" fill="#F15B10"/>
<path d="M56.465 26.5551C55.5225 25.5701 54.5475 24.5551 54.18 23.6626C53.84 22.8451 53.82 21.4901 53.8 20.1776C53.7625 17.7376 53.7225 14.9726 51.8 13.0501C49.8775 11.1276 47.1125 11.0876 44.6725 11.0501C43.36 11.0301 42.005 11.0101 41.1875 10.6701C40.2975 10.3026 39.28 9.3276 38.295 8.3851C36.57 6.7276 34.61 4.8501 32 4.8501C29.39 4.8501 27.4325 6.7276 25.705 8.3851C24.72 9.3276 23.705 10.3026 22.8125 10.6701C22 11.0101 20.64 11.0301 19.3275 11.0501C16.8875 11.0876 14.1225 11.1276 12.2 13.0501C10.2775 14.9726 10.25 17.7376 10.2 20.1776C10.18 21.4901 10.16 22.8451 9.82 23.6626C9.4525 24.5526 8.4775 25.5701 7.535 26.5551C5.8775 28.2801 4 30.2401 4 32.8501C4 35.4601 5.8775 37.4176 7.535 39.1451C8.4775 40.1301 9.4525 41.1451 9.82 42.0376C10.16 42.8551 10.18 44.2101 10.2 45.5226C10.2375 47.9626 10.2775 50.7276 12.2 52.6501C14.1225 54.5726 16.8875 54.6126 19.3275 54.6501C20.64 54.6701 21.995 54.6901 22.8125 55.0301C23.7025 55.3976 24.72 56.3726 25.705 57.3151C27.43 58.9726 29.39 60.8501 32 60.8501C34.61 60.8501 36.5675 58.9726 38.295 57.3151C39.28 56.3726 40.295 55.3976 41.1875 55.0301C42.005 54.6901 43.36 54.6701 44.6725 54.6501C47.1125 54.6126 49.8775 54.5726 51.8 52.6501C53.7225 50.7276 53.7625 47.9626 53.8 45.5226C53.82 44.2101 53.84 42.8551 54.18 42.0376C54.5475 41.1476 55.5225 40.1301 56.465 39.1451C58.1225 37.4201 60 35.4601 60 32.8501C60 30.2401 58.1225 28.2826 56.465 26.5551ZM53.5775 36.3776C52.38 37.6276 51.14 38.9201 50.4825 40.5076C49.8525 42.0326 49.825 43.7751 49.8 45.4626C49.775 47.2126 49.7475 49.0451 48.97 49.8201C48.1925 50.5951 46.3725 50.6251 44.6125 50.6501C42.925 50.6751 41.1825 50.7026 39.6575 51.3326C38.07 51.9901 36.7775 53.2301 35.5275 54.4276C34.2775 55.6251 33 56.8501 32 56.8501C31 56.8501 29.7125 55.6201 28.4725 54.4276C27.2325 53.2351 25.93 51.9901 24.3425 51.3326C22.8175 50.7026 21.075 50.6751 19.3875 50.6501C17.6375 50.6251 15.805 50.5976 15.03 49.8201C14.255 49.0426 14.225 47.2226 14.2 45.4626C14.175 43.7751 14.1475 42.0326 13.5175 40.5076C12.86 38.9201 11.62 37.6276 10.4225 36.3776C9.225 35.1276 8 33.8501 8 32.8501C8 31.8501 9.23 30.5626 10.4225 29.3226C11.615 28.0826 12.86 26.7801 13.5175 25.1926C14.1475 23.6676 14.175 21.9251 14.2 20.2376C14.225 18.4876 14.2525 16.6551 15.03 15.8801C15.8075 15.1051 17.6275 15.0751 19.3875 15.0501C21.075 15.0251 22.8175 14.9976 24.3425 14.3676C25.93 13.7101 27.2225 12.4701 28.4725 11.2726C29.7225 10.0751 31 8.8501 32 8.8501C33 8.8501 34.2875 10.0801 35.5275 11.2726C36.7675 12.4651 38.07 13.7101 39.6575 14.3676C41.1825 14.9976 42.925 15.0251 44.6125 15.0501C46.3625 15.0751 48.195 15.1026 48.97 15.8801C49.745 16.6576 49.775 18.4776 49.8 20.2376C49.825 21.9251 49.8525 23.6676 50.4825 25.1926C51.14 26.7801 52.38 28.0726 53.5775 29.3226C54.775 30.5726 56 31.8501 56 32.8501C56 33.8501 54.77 35.1376 53.5775 36.3776ZM35 45.8501C35 46.4434 34.8241 47.0235 34.4944 47.5168C34.1648 48.0102 33.6962 48.3947 33.148 48.6217C32.5999 48.8488 31.9967 48.9082 31.4147 48.7925C30.8328 48.6767 30.2982 48.391 29.8787 47.9714C29.4591 47.5519 29.1734 47.0173 29.0576 46.4354C28.9419 45.8534 29.0013 45.2502 29.2284 44.702C29.4554 44.1539 29.8399 43.6853 30.3333 43.3557C30.8266 43.026 31.4067 42.8501 32 42.8501C32.7956 42.8501 33.5587 43.1662 34.1213 43.7288C34.6839 44.2914 35 45.0544 35 45.8501ZM42 27.8501C42 32.1951 38.56 35.8326 34 36.6701V36.8501C34 37.3805 33.7893 37.8892 33.4142 38.2643C33.0391 38.6394 32.5304 38.8501 32 38.8501C31.4696 38.8501 30.9609 38.6394 30.5858 38.2643C30.2107 37.8892 30 37.3805 30 36.8501V34.8501C30 34.3197 30.2107 33.811 30.5858 33.4359C30.9609 33.0608 31.4696 32.8501 32 32.8501C35.3075 32.8501 38 30.6001 38 27.8501C38 25.1001 35.3075 22.8501 32 22.8501C28.6925 22.8501 26 25.1001 26 27.8501V28.8501C26 29.3805 25.7893 29.8892 25.4142 30.2643C25.0391 30.6394 24.5304 30.8501 24 30.8501C23.4696 30.8501 22.9609 30.6394 22.5858 30.2643C22.2107 29.8892 22 29.3805 22 28.8501V27.8501C22 22.8876 26.485 18.8501 32 18.8501C37.515 18.8501 42 22.8876 42 27.8501Z" fill="#F15B10"/>
</svg>
