<svg
  width="24"
  height="20"
  viewBox="0 0 24 20"
  fill="none"
  xmlns="http://www.w3.org/2000/svg"
>
  <mask
    id="mask0_550_443"
    style="mask-type: luminance"
    maskUnits="userSpaceOnUse"
    x="0"
    y="0"
    width="24"
    height="20"
  >
    <path d="M0 0H24V20H0V0Z" fill="white" />
  </mask>
  <g mask="url(#mask0_550_443)">
    <path
      fill-rule="evenodd"
      clip-rule="evenodd"
      d="M9.05014 13.56C9.27512 13.56 9.42418 13.7011 9.42418 13.914C9.42418 14.1269 9.27512 14.2679 9.05014 14.2679H2.57679C2.3518 14.2679 2.20275 14.1269 2.20275 13.914C2.20275 13.7011 2.3518 13.56 2.57679 13.56H9.05014ZM0.408475 10.5864H6.88157C7.10655 10.5864 7.25561 10.7275 7.25561 10.9404C7.25561 11.1415 7.1226 11.2787 6.91826 11.2932L6.88157 11.2946H0.408475C0.183235 11.2946 0.0341797 11.1536 0.0341797 10.9404C0.0341797 10.7393 0.167183 10.6023 0.37153 10.5876L0.408475 10.5864ZM2.57679 7.61285H9.05014C9.27512 7.61285 9.42418 7.75391 9.42418 7.96682C9.42418 8.16816 9.29117 8.30512 9.08683 8.31983L9.05014 8.32104H2.57679C2.35333 8.32104 2.20275 8.17853 2.20275 7.96682C2.20275 7.76572 2.33575 7.62876 2.5401 7.61405L2.57679 7.61285ZM22.9261 7.06694C23.5789 8.27329 23.9412 9.63976 23.9412 11.0815C23.9412 16.0038 19.7131 20.0051 14.5117 20.0024C12.0053 20.0024 9.64763 19.0825 7.85132 17.3828C7.70226 17.2418 7.70226 17.0286 7.85132 16.8875C8.00038 16.7465 8.22562 16.7465 8.37467 16.8875C10.0201 18.4464 12.1905 19.2957 14.5099 19.2957C19.2993 19.2957 23.1898 15.6139 23.1898 11.0815C23.1898 9.84496 22.8965 8.66826 22.3711 7.61381L22.9261 7.06694ZM21.7787 8.19758C22.1828 9.09361 22.4065 10.0798 22.4065 11.1159C22.4065 15.2238 18.8904 18.5516 14.5494 18.5516C12.9421 18.5516 11.4075 18.091 10.0979 17.2418C9.91084 17.1366 9.87287 16.9237 9.98549 16.7465C10.0979 16.6054 10.3231 16.5695 10.5466 16.6732C11.7054 17.4518 13.0909 17.8419 14.5497 17.8419C18.4781 17.8419 21.6585 14.8322 21.6585 11.1145C21.6585 10.2853 21.5002 9.49098 21.2105 8.75772L21.7787 8.19758ZM21.6811 5.10513C22.0147 5.06197 22.34 5.22594 22.4871 5.51191C22.6351 5.79861 22.5711 6.14198 22.3298 6.36357C19.5778 8.97377 17.5889 11.0911 14.8044 13.731C14.5196 14.0044 14.0604 14.0244 13.7501 13.777L10.3769 11.0757C10.2176 10.95 10.1182 10.7697 10.1009 10.5739C10.0828 10.3783 10.1475 10.1845 10.2816 10.0347C10.4153 9.88426 10.6069 9.79119 10.8126 9.77479C11.0195 9.75863 11.2241 9.82084 11.3823 9.94744L14.2044 12.2037C16.6836 9.82567 18.6287 7.792 21.2268 5.32769C21.3476 5.20761 21.5076 5.129 21.6809 5.10513H21.6811ZM14.5494 3.68031C16.532 3.68031 18.3423 4.37428 19.7243 5.51987L19.2073 6.03058C17.9604 5.00651 16.3319 4.38706 14.5497 4.38706C13.0527 4.38706 11.5927 4.81313 10.3957 5.66237C10.2087 5.76895 9.98524 5.73278 9.87262 5.59172C9.76 5.45067 9.79796 5.20327 9.94702 5.09669C11.2946 4.17559 12.9039 3.68031 14.5494 3.68031ZM16.2333 0C16.4583 0 16.6074 0.141059 16.6074 0.353974C16.6074 0.555314 16.4746 0.692274 16.27 0.706742L16.2333 0.708189H14.8857V2.19498C17.0851 2.26418 19.0695 3.04712 20.6265 4.31038L20.7234 4.38995L20.7967 4.45939L20.2747 4.97565C18.7258 3.68683 16.7052 2.90172 14.5099 2.90172C12.1161 2.90172 9.87134 3.82282 8.18765 5.48683C8.0386 5.62789 7.81361 5.62789 7.6643 5.48683C7.51524 5.34578 7.51524 5.13262 7.6643 4.99156C9.35487 3.28873 11.5848 2.33652 14.0031 2.20173L14.1376 2.19498V0.708189H12.828C12.603 0.708189 12.454 0.56713 12.454 0.353974C12.454 0.152874 12.587 0.0159143 12.7913 0.00120563L12.828 0H16.2333Z"
      fill="currentColor"
    />
  </g>
</svg>
