<?xml version="1.0" encoding="UTF-8"?><svg id="Layer_2" xmlns="http://www.w3.org/2000/svg" xmlns:xlink="http://www.w3.org/1999/xlink" viewBox="0 0 1920.62 1086.06"><defs><style>.cls-1{fill:#f15b10;}.cls-1,.cls-2,.cls-3,.cls-4,.cls-5,.cls-6{stroke-width:0px;}.cls-3{fill:#1c1014;}.cls-4{fill:#eeedf2;}.cls-5{fill:none;}.cls-7{clip-path:url(#clippath);}.cls-6{fill:#0f1110;}</style><clipPath id="clippath"><rect class="cls-5" width="1920.62" height="1086.06"/></clipPath></defs><g id="Layer_1-2"><g class="cls-7"><path class="cls-2" d="m212,824.27c-23.02,0-41.74-18.72-41.74-41.74v-46.52c0-7.02,5.72-12.74,12.74-12.74,2.71,0,5.23.85,7.3,2.31h0c0-7.03,5.72-12.75,12.74-12.75s12.74,5.72,12.74,12.74v24.28c2.16-2.71,4.85-4.87,7.84-6.25,4.7-2.16,10.35-2.45,15.49-.78,4.8,1.55,9.18,4.78,12.31,9.08,3.18,4.36,4.66,9.28,4.17,13.86-.17,1.59-.6,3.15-1.27,4.61,1.62,2.1,2.68,4.79,2.9,7.55h0c.4,4.97-1.55,9.68-3.06,12.78-.74,1.52-1.47,2.84-2.24,4.02-5.32,17.41-21.67,29.53-39.92,29.53Zm-29-95.56c-4.03,0-7.3,3.27-7.3,7.3v46.52c0,20.02,16.28,36.3,36.3,36.3,15.98,0,30.3-10.7,34.82-26.03l.12-.4.23-.35c.71-1.06,1.4-2.27,2.09-3.71,1.98-4.08,2.76-7.16,2.53-9.97-.18-2.18-1.15-4.25-2.6-5.55l-1.73-1.54,1.25-1.95c.8-1.25,1.31-2.68,1.46-4.13.35-3.23-.78-6.81-3.16-10.08-2.47-3.38-5.87-5.91-9.6-7.11-3.86-1.25-8.07-1.05-11.54.55-3.09,1.42-5.78,4.01-7.58,7.3-1.44,2.63-2.27,5.59-2.52,9.04l-.27,3.66-5.17-1.99-.02-1.87v-39.11c0-4.03-3.27-7.3-7.3-7.3s-7.3,3.27-7.3,7.3v10.44h-5.44c0-4.03-3.27-7.3-7.3-7.3Z"/><path class="cls-2" d="m193.02,770.08c-1.5,0-2.72-1.22-2.72-2.72v-38.43c0-1.5,1.22-2.72,2.72-2.72s2.72,1.22,2.72,2.72v38.43c0,1.5-1.22,2.72-2.72,2.72Z"/><path class="cls-2" d="m235.31,785.05c-1.5,0-2.71-1.21-2.72-2.71-.01-3.43,1.07-10.05,5.21-13.11,3.73-2.76,8.95-3.2,12.99-1.1,4.73,2.45,7.41,8.03,6.37,13.25-.29,1.47-1.72,2.42-3.2,2.14-1.47-.29-2.43-1.73-2.14-3.2.56-2.81-.99-6.04-3.53-7.36-2.21-1.15-5.19-.88-7.26.65-1.89,1.4-3.01,5.53-3,8.71,0,1.5-1.21,2.72-2.71,2.73h-.01Z"/><path class="cls-4" d="m226.94,761.04c.11,5.46,4.74,10.47,10.18,11"/><path class="cls-2" d="m237.13,774.76c-.09,0-.18,0-.27-.01-6.83-.67-12.5-6.79-12.64-13.65-.03-1.5,1.16-2.74,2.67-2.77,1.48-.01,2.74,1.16,2.77,2.67.08,4.05,3.69,7.96,7.73,8.35,1.49.14,2.59,1.48,2.44,2.97-.14,1.4-1.32,2.46-2.7,2.46Z"/><path class="cls-2" d="m480.33,788.97c23.02,0,41.74,18.72,41.74,41.74v46.52c0,7.02-5.72,12.74-12.74,12.74-2.71,0-5.23-.85-7.3-2.31h0c0,7.03-5.72,12.75-12.74,12.75s-12.74-5.72-12.74-12.74v-24.28c-2.16,2.71-4.85,4.87-7.84,6.25-4.7,2.16-10.35,2.45-15.49.78-4.8-1.55-9.18-4.78-12.31-9.08-3.18-4.36-4.66-9.28-4.17-13.86.17-1.59.6-3.15,1.27-4.61-1.62-2.1-2.68-4.79-2.9-7.55h0c-.4-4.97,1.55-9.68,3.06-12.78.74-1.52,1.47-2.84,2.24-4.02,5.32-17.41,21.67-29.53,39.92-29.53Zm29,95.56c4.03,0,7.3-3.27,7.3-7.3v-46.52c0-20.02-16.28-36.3-36.3-36.3-15.98,0-30.3,10.7-34.82,26.03l-.12.4-.23.35c-.71,1.06-1.4,2.27-2.09,3.71-1.98,4.08-2.76,7.16-2.53,9.97.18,2.18,1.15,4.25,2.6,5.55l1.73,1.54-1.25,1.95c-.8,1.25-1.31,2.68-1.46,4.13-.35,3.23.78,6.81,3.16,10.08,2.47,3.38,5.87,5.91,9.6,7.11,3.86,1.25,8.07,1.05,11.54-.55,3.09-1.42,5.78-4.01,7.58-7.3,1.44-2.63,2.27-5.59,2.52-9.04l.27-3.66,5.17,1.99.02,1.87v39.11c0,4.03,3.27,7.3,7.3,7.3s7.3-3.27,7.3-7.3v-10.44h5.44c0,4.03,3.27,7.3,7.3,7.3Z"/><path class="cls-2" d="m499.31,843.16c1.5,0,2.72,1.22,2.72,2.72v38.43c0,1.5-1.22,2.72-2.72,2.72s-2.72-1.22-2.72-2.72v-38.43c0-1.5,1.22-2.72,2.72-2.72Z"/><path class="cls-2" d="m457.02,828.19c1.5,0,2.71,1.21,2.72,2.71.01,3.43-1.07,10.05-5.21,13.11-3.73,2.76-8.95,3.2-12.99,1.1-4.73-2.45-7.41-8.03-6.37-13.25.29-1.47,1.72-2.42,3.2-2.14,1.47.29,2.43,1.73,2.14,3.2-.56,2.81.99,6.04,3.53,7.36,2.21,1.15,5.19.88,7.26-.65,1.89-1.4,3.01-5.53,3-8.71,0-1.5,1.21-2.72,2.71-2.73h.01Z"/><path class="cls-4" d="m465.39,852.2c-.11-5.46-4.74-10.47-10.18-11"/><path class="cls-2" d="m455.2,838.48c.09,0,.18,0,.27.01,6.83.67,12.5,6.79,12.64,13.65.03,1.5-1.16,2.74-2.67,2.77-1.48.01-2.74-1.16-2.77-2.67-.08-4.05-3.69-7.96-7.73-8.35-1.49-.14-2.59-1.48-2.44-2.97.14-1.4,1.32-2.46,2.7-2.46Z"/><path class="cls-2" d="m661.45,547.86c-23.02,0-41.74-18.72-41.74-41.74v-46.52c0-7.02,5.72-12.74,12.74-12.74,2.71,0,5.23.85,7.3,2.31h0c0-7.03,5.72-12.75,12.74-12.75s12.74,5.72,12.74,12.74v24.28c2.16-2.71,4.85-4.87,7.84-6.25,4.7-2.16,10.35-2.45,15.49-.78,4.8,1.55,9.18,4.78,12.31,9.08,3.18,4.36,4.66,9.28,4.17,13.86-.17,1.59-.6,3.15-1.27,4.61,1.62,2.1,2.68,4.79,2.9,7.55h0c.4,4.97-1.55,9.68-3.06,12.78-.74,1.52-1.47,2.84-2.24,4.02-5.32,17.41-21.67,29.53-39.92,29.53Zm-29-95.56c-4.03,0-7.3,3.27-7.3,7.3v46.52c0,20.02,16.28,36.3,36.3,36.3,15.98,0,30.3-10.7,34.82-26.03l.12-.4.23-.35c.71-1.06,1.4-2.27,2.09-3.71,1.98-4.08,2.76-7.16,2.53-9.97-.18-2.18-1.15-4.25-2.6-5.55l-1.73-1.54,1.25-1.95c.8-1.25,1.31-2.68,1.46-4.13.35-3.23-.78-6.81-3.16-10.08-2.47-3.38-5.87-5.91-9.6-7.11-3.86-1.25-8.07-1.05-11.54.55-3.09,1.42-5.78,4.01-7.58,7.3-1.44,2.63-2.27,5.59-2.52,9.04l-.27,3.66-5.17-1.99-.02-1.87v-39.11c0-4.03-3.27-7.3-7.3-7.3s-7.3,3.27-7.3,7.3v10.44h-5.44c0-4.03-3.27-7.3-7.3-7.3Z"/><line class="cls-4" x1="642.47" y1="490.94" x2="642.47" y2="452.51"/><path class="cls-2" d="m642.47,493.66c-1.5,0-2.72-1.22-2.72-2.72v-38.43c0-1.5,1.22-2.72,2.72-2.72,1.5,0,2.72,1.22,2.72,2.72v38.43c0,1.5-1.22,2.72-2.72,2.72Z"/><path class="cls-2" d="m684.76,508.64c-1.5,0-2.71-1.21-2.72-2.71-.01-3.43,1.07-10.05,5.21-13.11,3.73-2.76,8.95-3.2,12.99-1.1,4.73,2.45,7.41,8.03,6.37,13.25-.29,1.47-1.72,2.42-3.2,2.14-1.47-.29-2.43-1.73-2.14-3.2.56-2.81-.99-6.04-3.53-7.36-2.21-1.15-5.19-.88-7.26.65-1.89,1.4-3.01,5.53-3,8.71,0,1.5-1.21,2.72-2.71,2.73h-.01Z"/><path class="cls-4" d="m676.39,484.62c.11,5.46,4.74,10.47,10.18,11"/><path class="cls-2" d="m686.57,498.34c-.09,0-.18,0-.27-.01-6.83-.67-12.5-6.79-12.64-13.65-.03-1.5,1.16-2.74,2.67-2.77,1.48-.01,2.74,1.16,2.77,2.67.08,4.05,3.69,7.96,7.73,8.35,1.49.14,2.59,1.48,2.44,2.97-.14,1.4-1.32,2.46-2.7,2.46Z"/><path class="cls-2" d="m450.48,106.84c0,23.02-18.72,41.74-41.74,41.74h-46.52c-7.02,0-12.74-5.72-12.74-12.74,0-2.71.85-5.23,2.31-7.3h0c-7.02,0-12.74-5.72-12.74-12.74s5.72-12.74,12.74-12.74h24.28c-2.71-2.16-4.87-4.85-6.25-7.84-2.16-4.7-2.45-10.35-.78-15.49,1.55-4.8,4.78-9.18,9.08-12.31,4.36-3.18,9.28-4.66,13.86-4.17,1.59.17,3.15.6,4.61,1.27,2.1-1.62,4.79-2.68,7.55-2.9h0c4.97-.4,9.68,1.55,12.78,3.06,1.52.74,2.84,1.47,4.02,2.24,17.41,5.32,29.53,21.67,29.53,39.92Zm-95.56,29c0,4.03,3.27,7.3,7.3,7.3h46.52c20.02,0,36.3-16.28,36.3-36.3,0-15.98-10.7-30.3-26.03-34.82l-.4-.12-.35-.23c-1.06-.71-2.27-1.4-3.71-2.09-4.08-1.98-7.16-2.76-9.97-2.53-2.18.18-4.25,1.15-5.55,2.6l-1.54,1.73-1.95-1.25c-1.25-.8-2.68-1.31-4.13-1.46-3.23-.35-6.81.78-10.08,3.16-3.38,2.47-5.91,5.87-7.11,9.6-1.25,3.86-1.05,8.07.55,11.54,1.42,3.09,4.01,5.78,7.3,7.58,2.63,1.44,5.59,2.27,9.04,2.52l3.66.27-1.99,5.17-1.87.02h-39.11c-4.03,0-7.3,3.27-7.3,7.3s3.27,7.3,7.3,7.3h10.44v5.44c-4.03,0-7.3,3.27-7.3,7.3Z"/><path class="cls-2" d="m396.29,125.83c0,1.5-1.22,2.72-2.72,2.72h-38.43c-1.5,0-2.72-1.22-2.72-2.72s1.22-2.72,2.72-2.72h38.43c1.5,0,2.72,1.22,2.72,2.72Z"/><path class="cls-2" d="m411.26,83.53c0,1.5-1.21,2.71-2.71,2.72-3.43.01-10.05-1.07-13.11-5.21-2.76-3.73-3.2-8.95-1.1-12.99,2.45-4.73,8.03-7.41,13.25-6.37,1.47.29,2.42,1.72,2.14,3.2-.29,1.47-1.73,2.43-3.2,2.14-2.81-.56-6.04.99-7.36,3.53-1.15,2.21-.88,5.19.65,7.26,1.4,1.89,5.53,3.01,8.71,3,1.5,0,2.72,1.21,2.73,2.71h0Z"/><path class="cls-4" d="m387.24,91.9c5.46-.11,10.47-4.74,11-10.18"/><path class="cls-2" d="m400.97,81.72c0,.09,0,.18-.01.27-.67,6.83-6.79,12.5-13.65,12.64-1.5.03-2.74-1.16-2.77-2.67-.01-1.48,1.16-2.74,2.67-2.77,4.05-.08,7.96-3.69,8.35-7.73.14-1.49,1.48-2.59,2.97-2.44,1.4.14,2.46,1.32,2.46,2.7Z"/><path class="cls-3" d="m325.42,883.18c-23.17,0-41.95,18.78-41.95,41.95s18.78,41.95,41.95,41.95,41.95-18.78,41.95-41.95-18.78-41.95-41.95-41.95Zm-24.66,69.06c-2.21-1.05-3.62-3.25-4.72-5.43-1.17-2.33-2.11-4.78-2.81-7.29-1.27-4.58-1.76-9.38-1.42-14.12.17-2.34.46-4.77,1.12-7.03.61-2.11,2.67-1.9,3.6.09.54,1.15.46,2.49.4,3.76-.36,7.81.55,15.67,2.67,23.19.63,2.24,1.38,4.51,1.16,6.83Zm-1.84-46.77c-.26.47-.63,1-1.17.99-.67-.02-.98-.84-1.03-1.51-.14-1.78.82-7.1,3.39-6.93,2.97.19-.55,6.26-1.2,7.45Z"/><path class="cls-3" d="m232.03,179.42c-23.17,0-41.95,18.78-41.95,41.95s18.78,41.95,41.95,41.95,41.95-18.78,41.95-41.95-18.78-41.95-41.95-41.95Zm-24.66,69.06c-2.21-1.05-3.62-3.25-4.72-5.43-1.17-2.33-2.11-4.78-2.81-7.29-1.27-4.58-1.76-9.38-1.42-14.12.17-2.34.46-4.77,1.12-7.03.61-2.11,2.67-1.9,3.6.09.54,1.15.46,2.49.4,3.76-.36,7.81.55,15.67,2.67,23.19.63,2.24,1.38,4.51,1.16,6.83Zm-1.84-46.77c-.26.47-.63,1-1.17.99-.67-.02-.98-.84-1.03-1.51-.14-1.78.82-7.1,3.39-6.93,2.97.19-.55,6.26-1.2,7.45Z"/><path class="cls-3" d="m643.99,945.53c-23.17,0-41.95,18.78-41.95,41.95s18.78,41.95,41.95,41.95,41.95-18.78,41.95-41.95-18.78-41.95-41.95-41.95Zm-24.66,69.06c-2.21-1.05-3.62-3.25-4.72-5.43-1.17-2.33-2.11-4.78-2.81-7.29-1.27-4.58-1.76-9.38-1.42-14.12.17-2.34.46-4.77,1.12-7.03.61-2.11,2.67-1.9,3.6.09.54,1.15.46,2.49.4,3.76-.36,7.81.55,15.67,2.67,23.19.63,2.24,1.38,4.51,1.16,6.83Zm-1.84-46.77c-.26.47-.63,1-1.17.99-.67-.02-.98-.84-1.03-1.51-.14-1.78.82-7.1,3.39-6.93,2.97.19-.55,6.26-1.2,7.45Z"/><path class="cls-3" d="m554.61,337.35c-22.16,0-40.12,17.96-40.12,40.12s17.96,40.12,40.12,40.12,40.12-17.96,40.12-40.12-17.96-40.12-40.12-40.12Zm21.76,15.05c.33-.37.88-.47,1.36-.35.48.12.89.42,1.24.76.89.86,3.08,5.06.94,5.76-.43.14-.91-.03-1.25-.33s-.57-.69-.79-1.09c-.42-.74-.83-1.48-1.25-2.22-.45-.79-.87-1.86-.26-2.53Zm-2.54,53.45c-.7.85-1.73,1.75-2.76,1.37-.87-.32-1.19-1.45-.94-2.34.25-.89.9-1.6,1.51-2.3,2.42-2.77,4.4-5.92,5.9-9.27,2.6-5.83,3.75-12.32,3.28-18.69-.12-1.65-.45-3.25-.69-4.88-.17-1.18-.46-2.79,1.03-1.99,2.34,1.27,2.7,6.08,2.79,8.34.41,10.71-3.26,21.52-10.1,29.77Z"/><path class="cls-3" d="m99.72,541.24c-22.16,0-40.12,17.96-40.12,40.12s17.96,40.12,40.12,40.12,40.12-17.96,40.12-40.12-17.96-40.12-40.12-40.12Zm21.76,15.05c.33-.37.88-.47,1.36-.35.48.12.89.42,1.24.76.89.86,3.08,5.06.94,5.76-.43.14-.91-.03-1.25-.33-.34-.29-.57-.69-.79-1.09-.42-.74-.83-1.48-1.25-2.22-.45-.79-.87-1.86-.26-2.53Zm-2.54,53.46c-.7.85-1.73,1.75-2.76,1.37-.87-.32-1.19-1.45-.94-2.34.25-.89.9-1.6,1.51-2.3,2.42-2.77,4.4-5.92,5.9-9.27,2.6-5.83,3.75-12.32,3.28-18.69-.12-1.65-.45-3.25-.69-4.88-.17-1.18-.46-2.79,1.03-1.99,2.34,1.27,2.7,6.08,2.79,8.34.41,10.71-3.26,21.52-10.1,29.77Z"/><polygon class="cls-6" points="77.68 151.68 161.59 108.21 87.58 68.07 77.68 151.68"/><polygon class="cls-6" points="476.22 590.93 552.76 615.8 532.84 546.92 476.22 590.93"/><polygon class="cls-6" points="291.47 680.53 355.88 632.29 288.1 608.91 291.47 680.53"/><polygon class="cls-6" points="636.82 879.6 691.4 820.46 620.5 809.77 636.82 879.6"/><polygon class="cls-6" points="1289.13 233.39 1343.71 174.25 1272.81 163.57 1289.13 233.39"/><polygon class="cls-6" points="340.92 241.87 354.1 321.26 406.06 271.85 340.92 241.87"/><polygon class="cls-6" points="674.26 281.56 687.43 360.95 739.4 311.54 674.26 281.56"/><polygon class="cls-1" points="206.72 495.1 283.25 519.98 263.33 451.1 206.72 495.1"/><polygon class="cls-6" points="49.9 847.62 126.43 872.49 106.51 803.61 49.9 847.62"/><polygon class="cls-6" points="442.3 1036.15 514.61 1000.83 452.4 965.16 442.3 1036.15"/><circle class="cls-6" cx="416.12" cy="442.69" r="25.1"/><circle class="cls-6" cx="1561.65" cy="377.47" r="25.1"/><circle class="cls-6" cx="869.04" cy="366.6" r="25.1"/><circle class="cls-6" cx="1832.83" cy="519.98" r="25.1"/><circle class="cls-6" cx="94.53" cy="355.82" r="25.1"/><circle class="cls-6" cx="485.4" cy="712.84" r="25.1"/><circle class="cls-6" cx="680" cy="697.03" r="15.81"/><circle class="cls-6" cx="115.15" cy="959.22" r="15.81"/><circle class="cls-6" cx="790.01" cy="1029.43" r="15.81"/><circle class="cls-6" cx="622.43" cy="67.01" r="25.1"/><path class="cls-2" d="m936.3,824.27c-23.02,0-41.74-18.72-41.74-41.74v-46.52c0-7.02,5.72-12.74,12.74-12.74,2.71,0,5.23.85,7.3,2.31h0c0-7.03,5.72-12.75,12.74-12.75s12.74,5.72,12.74,12.74v24.28c2.16-2.71,4.85-4.87,7.84-6.25,4.7-2.16,10.35-2.45,15.49-.78,4.8,1.55,9.18,4.78,12.31,9.08,3.18,4.36,4.66,9.28,4.17,13.86-.17,1.59-.6,3.15-1.27,4.61,1.62,2.1,2.68,4.79,2.9,7.55h0c.4,4.97-1.55,9.68-3.06,12.78-.74,1.52-1.47,2.84-2.24,4.02-5.32,17.41-21.67,29.53-39.92,29.53Zm-29-95.56c-4.03,0-7.3,3.27-7.3,7.3v46.52c0,20.02,16.28,36.3,36.3,36.3,15.98,0,30.3-10.7,34.82-26.03l.12-.4.23-.35c.71-1.06,1.4-2.27,2.09-3.71,1.98-4.08,2.76-7.16,2.53-9.97-.18-2.18-1.15-4.25-2.6-5.55l-1.73-1.54,1.25-1.95c.8-1.25,1.31-2.68,1.46-4.13.35-3.23-.78-6.81-3.16-10.08-2.47-3.38-5.87-5.91-9.6-7.11-3.86-1.25-8.07-1.05-11.54.55-3.09,1.42-5.78,4.01-7.58,7.3-1.44,2.63-2.27,5.59-2.52,9.04l-.27,3.66-5.17-1.99-.02-1.87v-39.11c0-4.03-3.27-7.3-7.3-7.3s-7.3,3.27-7.3,7.3v10.44h-5.44c0-4.03-3.27-7.3-7.3-7.3Z"/><path class="cls-2" d="m917.32,770.08c-1.5,0-2.72-1.22-2.72-2.72v-38.43c0-1.5,1.22-2.72,2.72-2.72s2.72,1.22,2.72,2.72v38.43c0,1.5-1.22,2.72-2.72,2.72Z"/><path class="cls-2" d="m959.61,785.05c-1.5,0-2.71-1.21-2.72-2.71-.01-3.43,1.07-10.05,5.21-13.11,3.73-2.76,8.95-3.2,12.99-1.1,4.73,2.45,7.41,8.03,6.37,13.25-.29,1.47-1.72,2.42-3.2,2.14-1.47-.29-2.43-1.73-2.14-3.2.56-2.81-.99-6.04-3.53-7.36-2.21-1.15-5.19-.88-7.26.65-1.89,1.4-3.01,5.53-3,8.71,0,1.5-1.21,2.72-2.71,2.73h-.01Z"/><path class="cls-4" d="m951.24,761.04c.11,5.46,4.74,10.47,10.18,11"/><path class="cls-2" d="m961.43,774.76c-.09,0-.18,0-.27-.01-6.83-.67-12.5-6.79-12.64-13.65-.03-1.5,1.16-2.74,2.67-2.77,1.48-.01,2.74,1.16,2.77,2.67.08,4.05,3.69,7.96,7.73,8.35,1.49.14,2.59,1.48,2.44,2.97-.14,1.4-1.32,2.46-2.7,2.46Z"/><path class="cls-2" d="m1204.63,788.97c23.02,0,41.74,18.72,41.74,41.74v46.52c0,7.02-5.72,12.74-12.74,12.74-2.71,0-5.23-.85-7.3-2.31h0c0,7.03-5.72,12.75-12.74,12.75s-12.74-5.72-12.74-12.74v-24.28c-2.16,2.71-4.85,4.87-7.84,6.25-4.7,2.16-10.35,2.45-15.49.78-4.8-1.55-9.18-4.78-12.31-9.08-3.18-4.36-4.66-9.28-4.17-13.86.17-1.59.6-3.15,1.27-4.61-1.62-2.1-2.68-4.79-2.9-7.55h0c-.4-4.97,1.55-9.68,3.06-12.78.74-1.52,1.47-2.84,2.24-4.02,5.32-17.41,21.67-29.53,39.92-29.53Zm29,95.56c4.03,0,7.3-3.27,7.3-7.3v-46.52c0-20.02-16.28-36.3-36.3-36.3-15.98,0-30.3,10.7-34.82,26.03l-.12.4-.23.35c-.71,1.06-1.4,2.27-2.09,3.71-1.98,4.08-2.76,7.16-2.53,9.97.18,2.18,1.15,4.25,2.6,5.55l1.73,1.54-1.25,1.95c-.8,1.25-1.31,2.68-1.46,4.13-.35,3.23.78,6.81,3.16,10.08,2.47,3.38,5.87,5.91,9.6,7.11,3.86,1.25,8.07,1.05,11.54-.55,3.09-1.42,5.78-4.01,7.58-7.3,1.44-2.63,2.27-5.59,2.52-9.04l.27-3.66,5.17,1.99.02,1.87v39.11c0,4.03,3.27,7.3,7.3,7.3s7.3-3.27,7.3-7.3v-10.44h5.44c0,4.03,3.27,7.3,7.3,7.3Z"/><path class="cls-2" d="m1223.61,843.16c1.5,0,2.72,1.22,2.72,2.72v38.43c0,1.5-1.22,2.72-2.72,2.72s-2.72-1.22-2.72-2.72v-38.43c0-1.5,1.22-2.72,2.72-2.72Z"/><path class="cls-2" d="m1181.32,828.19c1.5,0,2.71,1.21,2.72,2.71.01,3.43-1.07,10.05-5.21,13.11-3.73,2.76-8.95,3.2-12.99,1.1-4.73-2.45-7.41-8.03-6.37-13.25.29-1.47,1.72-2.42,3.2-2.14,1.47.29,2.43,1.73,2.14,3.2-.56,2.81.99,6.04,3.53,7.36,2.21,1.15,5.19.88,7.26-.65,1.89-1.4,3.01-5.53,3-8.71,0-1.5,1.21-2.72,2.71-2.73h.01Z"/><path class="cls-4" d="m1189.69,852.2c-.11-5.46-4.74-10.47-10.18-11"/><path class="cls-2" d="m1179.51,838.48c.09,0,.18,0,.27.01,6.83.67,12.5,6.79,12.64,13.65.03,1.5-1.16,2.74-2.67,2.77-1.48.01-2.74-1.16-2.77-2.67-.08-4.05-3.69-7.96-7.73-8.35-1.49-.14-2.59-1.48-2.44-2.97.14-1.4,1.32-2.46,2.7-2.46Z"/><path class="cls-2" d="m1385.75,547.86c-23.02,0-41.74-18.72-41.74-41.74v-46.52c0-7.02,5.72-12.74,12.74-12.74,2.71,0,5.23.85,7.3,2.31h0c0-7.03,5.72-12.75,12.74-12.75s12.74,5.72,12.74,12.74v24.28c2.16-2.71,4.85-4.87,7.84-6.25,4.7-2.16,10.35-2.45,15.49-.78,4.8,1.55,9.18,4.78,12.31,9.08,3.18,4.36,4.66,9.28,4.17,13.86-.17,1.59-.6,3.15-1.27,4.61,1.62,2.1,2.68,4.79,2.9,7.55h0c.4,4.97-1.55,9.68-3.06,12.78-.74,1.52-1.47,2.84-2.24,4.02-5.32,17.41-21.67,29.53-39.92,29.53Zm-29-95.56c-4.03,0-7.3,3.27-7.3,7.3v46.52c0,20.02,16.28,36.3,36.3,36.3,15.98,0,30.3-10.7,34.82-26.03l.12-.4.23-.35c.71-1.06,1.4-2.27,2.09-3.71,1.98-4.08,2.76-7.16,2.53-9.97-.18-2.18-1.15-4.25-2.6-5.55l-1.73-1.54,1.25-1.95c.8-1.25,1.31-2.68,1.46-4.13.35-3.23-.78-6.81-3.16-10.08-2.47-3.38-5.87-5.91-9.6-7.11-3.86-1.25-8.07-1.05-11.54.55-3.09,1.42-5.78,4.01-7.58,7.3-1.44,2.63-2.27,5.59-2.52,9.04l-.27,3.66-5.17-1.99-.02-1.87v-39.11c0-4.03-3.27-7.3-7.3-7.3s-7.3,3.27-7.3,7.3v10.44h-5.44c0-4.03-3.27-7.3-7.3-7.3Z"/><line class="cls-4" x1="1366.77" y1="490.94" x2="1366.77" y2="452.51"/><path class="cls-2" d="m1366.77,493.66c-1.5,0-2.72-1.22-2.72-2.72v-38.43c0-1.5,1.22-2.72,2.72-2.72,1.5,0,2.72,1.22,2.72,2.72v38.43c0,1.5-1.22,2.72-2.72,2.72Z"/><path class="cls-2" d="m1409.06,508.64c-1.5,0-2.71-1.21-2.72-2.71-.01-3.43,1.07-10.05,5.21-13.11,3.73-2.76,8.95-3.2,12.99-1.1,4.73,2.45,7.41,8.03,6.37,13.25-.29,1.47-1.72,2.42-3.2,2.14-1.47-.29-2.43-1.73-2.14-3.2.56-2.81-.99-6.04-3.53-7.36-2.21-1.15-5.19-.88-7.26.65-1.89,1.4-3.01,5.53-3,8.71,0,1.5-1.21,2.72-2.71,2.73h-.01Z"/><path class="cls-4" d="m1400.69,484.62c.11,5.46,4.74,10.47,10.18,11"/><path class="cls-2" d="m1410.88,498.34c-.09,0-.18,0-.27-.01-6.83-.67-12.5-6.79-12.64-13.65-.03-1.5,1.16-2.74,2.67-2.77,1.48-.01,2.74,1.16,2.77,2.67.08,4.05,3.69,7.96,7.73,8.35,1.49.14,2.59,1.48,2.44,2.97-.14,1.4-1.32,2.46-2.7,2.46Z"/><path class="cls-2" d="m1174.78,106.84c0,23.02-18.72,41.74-41.74,41.74h-46.52c-7.02,0-12.74-5.72-12.74-12.74,0-2.71.85-5.23,2.31-7.3h0c-7.02,0-12.74-5.72-12.74-12.74s5.72-12.74,12.74-12.74h24.28c-2.71-2.16-4.87-4.85-6.25-7.84-2.16-4.7-2.45-10.35-.78-15.49,1.55-4.8,4.78-9.18,9.08-12.31,4.36-3.18,9.28-4.66,13.86-4.17,1.59.17,3.15.6,4.61,1.27,2.1-1.62,4.79-2.68,7.55-2.9h0c4.97-.4,9.68,1.55,12.78,3.06,1.52.74,2.84,1.47,4.02,2.24,17.41,5.32,29.53,21.67,29.53,39.92Zm-95.56,29c0,4.03,3.27,7.3,7.3,7.3h46.52c20.02,0,36.3-16.28,36.3-36.3,0-15.98-10.7-30.3-26.03-34.82l-.4-.12-.35-.23c-1.06-.71-2.27-1.4-3.71-2.09-4.08-1.98-7.16-2.76-9.97-2.53-2.18.18-4.25,1.15-5.55,2.6l-1.54,1.73-1.95-1.25c-1.25-.8-2.68-1.31-4.13-1.46-3.23-.35-6.81.78-10.08,3.16-3.38,2.47-5.91,5.87-7.11,9.6-1.25,3.86-1.05,8.07.55,11.54,1.42,3.09,4.01,5.78,7.3,7.58,2.63,1.44,5.59,2.27,9.04,2.52l3.66.27-1.99,5.17-1.87.02h-39.11c-4.03,0-7.3,3.27-7.3,7.3s3.27,7.3,7.3,7.3h10.44v5.44c-4.03,0-7.3,3.27-7.3,7.3Z"/><path class="cls-2" d="m1120.59,125.83c0,1.5-1.22,2.72-2.72,2.72h-38.43c-1.5,0-2.72-1.22-2.72-2.72s1.22-2.72,2.72-2.72h38.43c1.5,0,2.72,1.22,2.72,2.72Z"/><path class="cls-2" d="m1135.56,83.53c0,1.5-1.21,2.71-2.71,2.72-3.43.01-10.05-1.07-13.11-5.21-2.76-3.73-3.2-8.95-1.1-12.99,2.45-4.73,8.03-7.41,13.25-6.37,1.47.29,2.42,1.72,2.14,3.2-.29,1.47-1.73,2.43-3.2,2.14-2.81-.56-6.04.99-7.36,3.53-1.15,2.21-.88,5.19.65,7.26,1.4,1.89,5.53,3.01,8.71,3,1.5,0,2.72,1.21,2.73,2.71h0Z"/><path class="cls-4" d="m1111.55,91.9c5.46-.11,10.47-4.74,11-10.18"/><path class="cls-2" d="m1125.27,81.72c0,.09,0,.18-.01.27-.67,6.83-6.79,12.5-13.65,12.64-1.5.03-2.74-1.16-2.77-2.67-.01-1.48,1.16-2.74,2.67-2.77,4.05-.08,7.96-3.69,8.35-7.73.14-1.49,1.48-2.59,2.97-2.44,1.4.14,2.46,1.32,2.46,2.7Z"/><path class="cls-3" d="m1049.72,883.18c-23.17,0-41.95,18.78-41.95,41.95s18.78,41.95,41.95,41.95,41.95-18.78,41.95-41.95-18.78-41.95-41.95-41.95Zm-24.66,69.06c-2.21-1.05-3.62-3.25-4.72-5.43-1.17-2.33-2.11-4.78-2.81-7.29-1.27-4.58-1.76-9.38-1.42-14.12.17-2.34.46-4.77,1.12-7.03.61-2.11,2.67-1.9,3.6.09.54,1.15.46,2.49.4,3.76-.36,7.81.55,15.67,2.67,23.19.63,2.24,1.38,4.51,1.16,6.83Zm-1.84-46.77c-.26.47-.63,1-1.17.99-.67-.02-.98-.84-1.03-1.51-.14-1.78.82-7.1,3.39-6.93,2.97.19-.55,6.26-1.2,7.45Z"/><path class="cls-3" d="m956.33,179.42c-23.17,0-41.95,18.78-41.95,41.95s18.78,41.95,41.95,41.95,41.95-18.78,41.95-41.95-18.78-41.95-41.95-41.95Zm-24.66,69.06c-2.21-1.05-3.62-3.25-4.72-5.43-1.17-2.33-2.11-4.78-2.81-7.29-1.27-4.58-1.76-9.38-1.42-14.12.17-2.34.46-4.77,1.12-7.03.61-2.11,2.67-1.9,3.6.09.54,1.15.46,2.49.4,3.76-.36,7.81.55,15.67,2.67,23.19.63,2.24,1.38,4.51,1.16,6.83Zm-1.84-46.77c-.26.47-.63,1-1.17.99-.67-.02-.98-.84-1.03-1.51-.14-1.78.82-7.1,3.39-6.93,2.97.19-.55,6.26-1.2,7.45Z"/><path class="cls-3" d="m1368.29,945.53c-23.17,0-41.95,18.78-41.95,41.95s18.78,41.95,41.95,41.95,41.95-18.78,41.95-41.95-18.78-41.95-41.95-41.95Zm-24.66,69.06c-2.21-1.05-3.62-3.25-4.72-5.43-1.17-2.33-2.11-4.78-2.81-7.29-1.27-4.58-1.76-9.38-1.42-14.12.17-2.34.46-4.77,1.12-7.03.61-2.11,2.67-1.9,3.6.09.54,1.15.46,2.49.4,3.76-.36,7.81.55,15.67,2.67,23.19.63,2.24,1.38,4.51,1.16,6.83Zm-1.84-46.77c-.26.47-.63,1-1.17.99-.67-.02-.98-.84-1.03-1.51-.14-1.78.82-7.1,3.39-6.93,2.97.19-.55,6.26-1.2,7.45Z"/><path class="cls-3" d="m1278.91,337.35c-22.16,0-40.12,17.96-40.12,40.12s17.96,40.12,40.12,40.12,40.12-17.96,40.12-40.12-17.96-40.12-40.12-40.12Zm21.76,15.05c.33-.37.88-.47,1.36-.35.48.12.89.42,1.24.76.89.86,3.08,5.06.94,5.76-.43.14-.91-.03-1.25-.33-.34-.29-.57-.69-.79-1.09-.42-.74-.83-1.48-1.25-2.22-.45-.79-.87-1.86-.26-2.53Zm-2.54,53.45c-.7.85-1.73,1.75-2.76,1.37-.87-.32-1.19-1.45-.94-2.34.25-.89.9-1.6,1.51-2.3,2.42-2.77,4.4-5.92,5.9-9.27,2.6-5.83,3.75-12.32,3.28-18.69-.12-1.65-.45-3.25-.69-4.88-.17-1.18-.46-2.79,1.03-1.99,2.34,1.27,2.7,6.08,2.79,8.34.41,10.71-3.26,21.52-10.1,29.77Z"/><path class="cls-3" d="m824.02,541.24c-22.16,0-40.12,17.96-40.12,40.12s17.96,40.12,40.12,40.12,40.12-17.96,40.12-40.12-17.96-40.12-40.12-40.12Zm21.76,15.05c.33-.37.88-.47,1.36-.35s.89.42,1.24.76c.89.86,3.08,5.06.94,5.76-.43.14-.91-.03-1.25-.33-.34-.29-.57-.69-.79-1.09-.42-.74-.83-1.48-1.25-2.22-.45-.79-.87-1.86-.26-2.53Zm-2.54,53.46c-.7.85-1.73,1.75-2.76,1.37-.87-.32-1.19-1.45-.94-2.34.25-.89.9-1.6,1.51-2.3,2.42-2.77,4.4-5.92,5.9-9.27,2.6-5.83,3.75-12.32,3.28-18.69-.12-1.65-.45-3.25-.69-4.88-.17-1.18-.46-2.79,1.03-1.99,2.34,1.27,2.7,6.08,2.79,8.34.41,10.71-3.26,21.52-10.1,29.77Z"/><polygon class="cls-3" points="801.99 151.68 885.89 108.21 811.88 68.07 801.99 151.68"/><polygon class="cls-6" points="1200.52 590.93 1277.06 615.8 1257.14 546.92 1200.52 590.93"/><polygon class="cls-6" points="1713.62 1010.31 1790.16 1035.19 1770.24 966.3 1713.62 1010.31"/><polygon class="cls-3" points="1361.12 879.6 1415.7 820.46 1344.8 809.77 1361.12 879.6"/><polygon class="cls-6" points="1065.23 241.87 1078.4 321.26 1130.36 271.85 1065.23 241.87"/><polygon class="cls-6" points="1398.56 281.56 1411.73 360.95 1463.7 311.54 1398.56 281.56"/><polygon class="cls-6" points="931.02 495.1 1007.55 519.98 987.63 451.1 931.02 495.1"/><polygon class="cls-3" points="774.2 847.62 850.73 872.49 830.81 803.61 774.2 847.62"/><polygon class="cls-3" points="1044.2 680.11 1104.82 627.18 1035.48 608.94 1044.2 680.11"/><polygon class="cls-3" points="1546.12 1047 1589.92 979.48 1518.23 980.94 1546.12 1047"/><polygon class="cls-1" points="1166.6 1036.15 1238.91 1000.83 1176.71 965.16 1166.6 1036.15"/><circle class="cls-1" cx="1140.42" cy="442.69" r="25.1"/><circle class="cls-1" cx="527.13" cy="203.72" r="25.1"/><circle class="cls-6" cx="1209.7" cy="712.84" r="25.1"/><circle class="cls-6" cx="878.47" cy="954.49" r="25.1"/><circle class="cls-6" cx="213.76" cy="1022.01" r="25.1"/><circle class="cls-6" cx="1418.73" cy="632.2" r="25.1"/><circle class="cls-6" cx="1736.37" cy="644.38" r="25.1"/><circle class="cls-6" cx="1795.26" cy="872.49" r="25.1"/><circle class="cls-6" cx="1346.73" cy="67.01" r="25.1"/><path class="cls-2" d="m1665.11,824.27c-23.02,0-41.74-18.72-41.74-41.74v-46.52c0-7.02,5.72-12.74,12.74-12.74,2.71,0,5.23.85,7.3,2.31h0c0-7.03,5.72-12.75,12.74-12.75s12.74,5.72,12.74,12.74v24.28c2.16-2.71,4.85-4.87,7.84-6.25,4.7-2.16,10.35-2.45,15.49-.78,4.8,1.55,9.18,4.78,12.31,9.08,3.18,4.36,4.66,9.28,4.17,13.86-.17,1.59-.6,3.15-1.27,4.61,1.62,2.1,2.68,4.79,2.9,7.55h0c.4,4.97-1.55,9.68-3.06,12.78-.74,1.52-1.47,2.84-2.24,4.02-5.32,17.41-21.67,29.53-39.92,29.53Zm-29-95.56c-4.03,0-7.3,3.27-7.3,7.3v46.52c0,20.02,16.28,36.3,36.3,36.3,15.98,0,30.3-10.7,34.82-26.03l.12-.4.23-.35c.71-1.06,1.4-2.27,2.09-3.71,1.98-4.08,2.76-7.16,2.53-9.97-.18-2.18-1.15-4.25-2.6-5.55l-1.73-1.54,1.25-1.95c.8-1.25,1.31-2.68,1.46-4.13.35-3.23-.78-6.81-3.16-10.08-2.47-3.38-5.87-5.91-9.6-7.11-3.86-1.25-8.07-1.05-11.54.55-3.09,1.42-5.78,4.01-7.58,7.3-1.44,2.63-2.27,5.59-2.52,9.04l-.27,3.66-5.17-1.99-.02-1.87v-39.11c0-4.03-3.27-7.3-7.3-7.3s-7.3,3.27-7.3,7.3v10.44h-5.44c0-4.03-3.27-7.3-7.3-7.3Z"/><path class="cls-2" d="m1646.13,770.08c-1.5,0-2.72-1.22-2.72-2.72v-38.43c0-1.5,1.22-2.72,2.72-2.72s2.72,1.22,2.72,2.72v38.43c0,1.5-1.22,2.72-2.72,2.72Z"/><path class="cls-2" d="m1688.42,785.05c-1.5,0-2.71-1.21-2.72-2.71-.01-3.43,1.07-10.05,5.21-13.11,3.73-2.76,8.95-3.2,12.99-1.1,4.73,2.45,7.41,8.03,6.37,13.25-.29,1.47-1.72,2.42-3.2,2.14-1.47-.29-2.43-1.73-2.14-3.2.56-2.81-.99-6.04-3.53-7.36-2.21-1.15-5.19-.88-7.26.65-1.89,1.4-3.01,5.53-3,8.71,0,1.5-1.21,2.72-2.71,2.73h-.01Z"/><path class="cls-4" d="m1680.05,761.04c.11,5.46,4.74,10.47,10.18,11"/><path class="cls-2" d="m1690.24,774.76c-.09,0-.18,0-.27-.01-6.83-.67-12.5-6.79-12.64-13.65-.03-1.5,1.16-2.74,2.67-2.77,1.48-.01,2.74,1.16,2.77,2.67.08,4.05,3.69,7.96,7.73,8.35,1.49.14,2.59,1.48,2.44,2.97-.14,1.4-1.32,2.46-2.7,2.46Z"/><path class="cls-3" d="m1685.14,179.42c-23.17,0-41.95,18.78-41.95,41.95s18.78,41.95,41.95,41.95,41.95-18.78,41.95-41.95-18.78-41.95-41.95-41.95Zm-24.66,69.06c-2.21-1.05-3.62-3.25-4.72-5.43-1.17-2.33-2.11-4.78-2.81-7.29-1.27-4.58-1.76-9.38-1.42-14.12.17-2.34.46-4.77,1.12-7.03.61-2.11,2.67-1.9,3.6.09.54,1.15.46,2.49.4,3.76-.36,7.81.55,15.67,2.67,23.19.63,2.24,1.38,4.51,1.16,6.83Zm-1.84-46.77c-.25.47-.63,1-1.17.99-.67-.02-.98-.84-1.03-1.51-.14-1.78.82-7.1,3.39-6.93,2.97.19-.55,6.26-1.2,7.45Z"/><path class="cls-3" d="m1552.83,541.24c-22.16,0-40.12,17.96-40.12,40.12s17.96,40.12,40.12,40.12,40.12-17.96,40.12-40.12-17.96-40.12-40.12-40.12Zm21.76,15.05c.33-.37.88-.47,1.36-.35s.89.42,1.24.76c.89.86,3.08,5.06.94,5.76-.43.14-.91-.03-1.25-.33-.34-.29-.57-.69-.79-1.09-.42-.74-.83-1.48-1.25-2.22-.45-.79-.87-1.86-.26-2.53Zm-2.54,53.46c-.7.85-1.73,1.75-2.76,1.37-.87-.32-1.19-1.45-.94-2.34.25-.89.9-1.6,1.51-2.3,2.42-2.77,4.4-5.92,5.9-9.27,2.6-5.83,3.75-12.32,3.28-18.69-.12-1.65-.45-3.25-.69-4.88-.17-1.18-.46-2.79,1.03-1.99,2.34,1.27,2.7,6.08,2.79,8.34.41,10.71-3.26,21.52-10.1,29.77Z"/><polygon class="cls-6" points="1530.8 151.68 1614.7 108.21 1540.69 68.07 1530.8 151.68"/><polygon class="cls-6" points="1820.36 198.48 1833.53 277.87 1885.5 228.46 1820.36 198.48"/><polygon class="cls-3" points="1659.83 495.1 1736.37 519.98 1716.45 451.1 1659.83 495.1"/><polygon class="cls-6" points="1503.01 847.62 1579.55 872.49 1559.63 803.61 1503.01 847.62"/><circle class="cls-1" cx="1795.26" cy="397.39" r="25.1"/><circle class="cls-1" cx="1820.36" cy="83.53" r="25.1"/></g></g></svg>